G04 #@! TF.GenerationSoftware,KiCad,Pcbnew,(6.0.8)*
G04 #@! TF.CreationDate,2022-11-24T15:47:19+02:00*
G04 #@! TF.ProjectId,sensor,73656e73-6f72-42e6-9b69-6361645f7063,rev?*
G04 #@! TF.SameCoordinates,Original*
G04 #@! TF.FileFunction,Copper,L4,Bot*
G04 #@! TF.FilePolarity,Positive*
%FSLAX46Y46*%
G04 Gerber Fmt 4.6, Leading zero omitted, Abs format (unit mm)*
G04 Created by KiCad (PCBNEW (6.0.8)) date 2022-11-24 15:47:19*
%MOMM*%
%LPD*%
G01*
G04 APERTURE LIST*
G04 Aperture macros list*
%AMRoundRect*
0 Rectangle with rounded corners*
0 $1 Rounding radius*
0 $2 $3 $4 $5 $6 $7 $8 $9 X,Y pos of 4 corners*
0 Add a 4 corners polygon primitive as box body*
4,1,4,$2,$3,$4,$5,$6,$7,$8,$9,$2,$3,0*
0 Add four circle primitives for the rounded corners*
1,1,$1+$1,$2,$3*
1,1,$1+$1,$4,$5*
1,1,$1+$1,$6,$7*
1,1,$1+$1,$8,$9*
0 Add four rect primitives between the rounded corners*
20,1,$1+$1,$2,$3,$4,$5,0*
20,1,$1+$1,$4,$5,$6,$7,0*
20,1,$1+$1,$6,$7,$8,$9,0*
20,1,$1+$1,$8,$9,$2,$3,0*%
G04 Aperture macros list end*
G04 #@! TA.AperFunction,ComponentPad*
%ADD10O,1.700000X1.700000*%
G04 #@! TD*
G04 #@! TA.AperFunction,ComponentPad*
%ADD11R,1.700000X1.700000*%
G04 #@! TD*
G04 #@! TA.AperFunction,ComponentPad*
%ADD12C,3.000000*%
G04 #@! TD*
G04 #@! TA.AperFunction,SMDPad,CuDef*
%ADD13R,0.550000X0.540000*%
G04 #@! TD*
G04 #@! TA.AperFunction,SMDPad,CuDef*
%ADD14RoundRect,0.135000X-0.185000X0.135000X-0.185000X-0.135000X0.185000X-0.135000X0.185000X0.135000X0*%
G04 #@! TD*
G04 #@! TA.AperFunction,ComponentPad*
%ADD15C,1.192000*%
G04 #@! TD*
G04 #@! TA.AperFunction,ViaPad*
%ADD16C,0.381000*%
G04 #@! TD*
G04 #@! TA.AperFunction,Conductor*
%ADD17C,0.254000*%
G04 #@! TD*
G04 #@! TA.AperFunction,Conductor*
%ADD18C,0.152400*%
G04 #@! TD*
G04 APERTURE END LIST*
D10*
X131572000Y-70866000D03*
D11*
X134112000Y-70866000D03*
D10*
X136652000Y-70866000D03*
X139192000Y-70866000D03*
X141732000Y-70866000D03*
X144272000Y-70866000D03*
X146812000Y-70866000D03*
X149352000Y-70866000D03*
X151892000Y-70866000D03*
X154432000Y-70866000D03*
X131572000Y-85090000D03*
X134112000Y-85090000D03*
X136652000Y-85090000D03*
X139192000Y-85090000D03*
X141732000Y-85090000D03*
X144272000Y-85090000D03*
X146812000Y-85090000D03*
X149352000Y-85090000D03*
X151892000Y-85090000D03*
D11*
X154432000Y-85090000D03*
D12*
X132842000Y-74676000D03*
X156438600Y-81280000D03*
X156438600Y-74676000D03*
X132842000Y-81280000D03*
D13*
X136478000Y-79978000D03*
X136478000Y-78668000D03*
X136478000Y-77288000D03*
X136478000Y-75978000D03*
X138858000Y-75978000D03*
X138858000Y-77288000D03*
X138858000Y-78668000D03*
X138858000Y-79978000D03*
D14*
X156514800Y-76934600D03*
X156514800Y-77954600D03*
D15*
X144272000Y-78994000D03*
X144272000Y-76994000D03*
X143272000Y-77994000D03*
D13*
X149686000Y-79978000D03*
X149686000Y-78668000D03*
X149686000Y-77288000D03*
X149686000Y-75978000D03*
X152066000Y-75978000D03*
X152066000Y-77288000D03*
X152066000Y-78668000D03*
X152066000Y-79978000D03*
D16*
X156514800Y-79121000D03*
X136118600Y-80949800D03*
X137160000Y-78994000D03*
X138074400Y-78994000D03*
X146812000Y-72390000D03*
D17*
X156514800Y-79121000D02*
X156514800Y-77954600D01*
X153769600Y-76934600D02*
X152813000Y-75978000D01*
X156514800Y-76934600D02*
X153769600Y-76934600D01*
X152813000Y-75978000D02*
X152066000Y-75978000D01*
D18*
X137160000Y-80137000D02*
X138176000Y-81153000D01*
X148511000Y-81153000D02*
X149686000Y-79978000D01*
D17*
X152066000Y-78668000D02*
X152066000Y-79978000D01*
X152066000Y-77288000D02*
X149686000Y-77288000D01*
D18*
X137160000Y-78994000D02*
X137160000Y-80137000D01*
D17*
X152066000Y-78668000D02*
X152066000Y-77288000D01*
D18*
X138176000Y-81153000D02*
X148511000Y-81153000D01*
D17*
X149686000Y-77288000D02*
X149686000Y-79978000D01*
X149686000Y-77288000D02*
X149686000Y-75978000D01*
X138858000Y-77288000D02*
X138858000Y-79978000D01*
D18*
X138858000Y-78668000D02*
X138400400Y-78668000D01*
D17*
X138858000Y-77288000D02*
X137850000Y-77288000D01*
D18*
X138400400Y-78668000D02*
X138074400Y-78994000D01*
D17*
X137850000Y-77288000D02*
X136478000Y-77288000D01*
X136478000Y-75978000D02*
X136478000Y-79978000D01*
X154127200Y-83591400D02*
X134035800Y-83591400D01*
X156438600Y-81280000D02*
X154127200Y-83591400D01*
X132842000Y-82397600D02*
X132842000Y-81280000D01*
X134035800Y-83591400D02*
X132842000Y-82397600D01*
X132842000Y-73533000D02*
X132842000Y-74676000D01*
X133985000Y-72390000D02*
X132842000Y-73533000D01*
X155854400Y-72390000D02*
X146812000Y-72390000D01*
X156438600Y-74676000D02*
X156438600Y-72974200D01*
X146812000Y-72390000D02*
X133985000Y-72390000D01*
X156438600Y-72974200D02*
X155854400Y-72390000D01*
G04 #@! TA.AperFunction,Conductor*
G36*
X153737536Y-72918002D02*
G01*
X153784029Y-72971658D01*
X153795405Y-73025575D01*
X153671555Y-82933575D01*
X153650703Y-83001440D01*
X153596471Y-83047259D01*
X153545565Y-83058000D01*
X135000000Y-83058000D01*
X134931879Y-83037998D01*
X134885386Y-82984342D01*
X134874000Y-82932000D01*
X134874000Y-79698101D01*
X136102500Y-79698101D01*
X136102501Y-80257898D01*
X136103709Y-80263971D01*
X136105911Y-80275042D01*
X136108331Y-80287213D01*
X136130543Y-80320457D01*
X136163787Y-80342669D01*
X136193101Y-80348500D01*
X136477861Y-80348500D01*
X136762898Y-80348499D01*
X136776810Y-80345732D01*
X136780045Y-80345089D01*
X136792213Y-80342669D01*
X136825457Y-80320457D01*
X136832349Y-80310142D01*
X136832351Y-80310140D01*
X136846859Y-80288426D01*
X136901335Y-80242897D01*
X136971778Y-80234047D01*
X137035823Y-80264686D01*
X137046136Y-80275095D01*
X137056136Y-80286437D01*
X137055263Y-80287207D01*
X137058727Y-80291510D01*
X137061673Y-80288564D01*
X138030686Y-81257577D01*
X138045532Y-81275521D01*
X138045656Y-81275633D01*
X138054226Y-81288243D01*
X138085512Y-81305019D01*
X138091230Y-81308280D01*
X138121578Y-81326660D01*
X138126442Y-81326966D01*
X138130741Y-81329271D01*
X138134137Y-81329700D01*
X138165938Y-81329700D01*
X138173850Y-81329949D01*
X138208227Y-81332112D01*
X138208154Y-81333273D01*
X138213644Y-81333866D01*
X138213644Y-81329700D01*
X148482205Y-81329700D01*
X148505374Y-81331890D01*
X148505546Y-81331881D01*
X148520524Y-81334738D01*
X148535117Y-81330332D01*
X148535120Y-81330332D01*
X148554499Y-81324481D01*
X148560863Y-81322740D01*
X148585283Y-81316742D01*
X148595314Y-81314278D01*
X148598970Y-81311054D01*
X148603639Y-81309645D01*
X148606344Y-81307547D01*
X148628822Y-81285069D01*
X148634592Y-81279650D01*
X148660439Y-81256863D01*
X148661208Y-81257736D01*
X148665510Y-81254273D01*
X148662564Y-81251327D01*
X149528486Y-80385405D01*
X149590798Y-80351379D01*
X149617581Y-80348500D01*
X149927884Y-80348499D01*
X149970898Y-80348499D01*
X149984810Y-80345732D01*
X149988045Y-80345089D01*
X150000213Y-80342669D01*
X150033457Y-80320457D01*
X150055669Y-80287213D01*
X150061500Y-80257899D01*
X150061499Y-79698102D01*
X150058732Y-79684190D01*
X150058089Y-79680955D01*
X150055669Y-79668787D01*
X150033457Y-79635543D01*
X150000213Y-79613331D01*
X149990134Y-79611326D01*
X149936002Y-79567706D01*
X149913500Y-79495843D01*
X149913500Y-79150157D01*
X149933502Y-79082036D01*
X149990188Y-79034663D01*
X150000213Y-79032669D01*
X150033457Y-79010457D01*
X150055669Y-78977213D01*
X150061500Y-78947899D01*
X150061499Y-78388102D01*
X150058732Y-78374190D01*
X150058089Y-78370955D01*
X150055669Y-78358787D01*
X150033457Y-78325543D01*
X150000213Y-78303331D01*
X149990134Y-78301326D01*
X149936002Y-78257706D01*
X149913500Y-78185843D01*
X149913500Y-77770157D01*
X149933502Y-77702036D01*
X149990188Y-77654663D01*
X150000213Y-77652669D01*
X150033457Y-77630457D01*
X150055669Y-77597213D01*
X150057032Y-77590360D01*
X150099223Y-77538003D01*
X150171086Y-77515500D01*
X151580914Y-77515500D01*
X151649035Y-77535502D01*
X151694996Y-77590498D01*
X151696331Y-77597213D01*
X151718543Y-77630457D01*
X151751787Y-77652669D01*
X151761866Y-77654674D01*
X151815998Y-77698294D01*
X151838500Y-77770157D01*
X151838500Y-78185843D01*
X151818498Y-78253964D01*
X151761812Y-78301337D01*
X151751787Y-78303331D01*
X151718543Y-78325543D01*
X151696331Y-78358787D01*
X151690500Y-78388101D01*
X151690501Y-78947898D01*
X151691709Y-78953971D01*
X151693911Y-78965042D01*
X151696331Y-78977213D01*
X151718543Y-79010457D01*
X151751787Y-79032669D01*
X151761866Y-79034674D01*
X151815998Y-79078294D01*
X151838500Y-79150157D01*
X151838500Y-79495843D01*
X151818498Y-79563964D01*
X151761812Y-79611337D01*
X151751787Y-79613331D01*
X151718543Y-79635543D01*
X151696331Y-79668787D01*
X151690500Y-79698101D01*
X151690501Y-80257898D01*
X151691709Y-80263971D01*
X151693911Y-80275042D01*
X151696331Y-80287213D01*
X151718543Y-80320457D01*
X151751787Y-80342669D01*
X151781101Y-80348500D01*
X152065861Y-80348500D01*
X152350898Y-80348499D01*
X152364810Y-80345732D01*
X152368045Y-80345089D01*
X152380213Y-80342669D01*
X152413457Y-80320457D01*
X152435669Y-80287213D01*
X152441500Y-80257899D01*
X152441499Y-79698102D01*
X152438732Y-79684190D01*
X152438089Y-79680955D01*
X152435669Y-79668787D01*
X152413457Y-79635543D01*
X152380213Y-79613331D01*
X152370134Y-79611326D01*
X152316002Y-79567706D01*
X152293500Y-79495843D01*
X152293500Y-79150157D01*
X152313502Y-79082036D01*
X152370188Y-79034663D01*
X152380213Y-79032669D01*
X152413457Y-79010457D01*
X152435669Y-78977213D01*
X152441500Y-78947899D01*
X152441499Y-78388102D01*
X152438732Y-78374190D01*
X152438089Y-78370955D01*
X152435669Y-78358787D01*
X152413457Y-78325543D01*
X152380213Y-78303331D01*
X152370134Y-78301326D01*
X152316002Y-78257706D01*
X152293500Y-78185843D01*
X152293500Y-77770157D01*
X152313502Y-77702036D01*
X152370188Y-77654663D01*
X152380213Y-77652669D01*
X152413457Y-77630457D01*
X152435669Y-77597213D01*
X152441500Y-77567899D01*
X152441499Y-77008102D01*
X152438694Y-76994000D01*
X152438089Y-76990955D01*
X152435669Y-76978787D01*
X152413457Y-76945543D01*
X152412955Y-76945207D01*
X152382846Y-76890069D01*
X152387911Y-76819254D01*
X152430458Y-76762418D01*
X152461738Y-76745304D01*
X152579052Y-76701325D01*
X152594649Y-76692786D01*
X152696724Y-76616285D01*
X152709285Y-76603724D01*
X152785786Y-76501649D01*
X152794324Y-76486054D01*
X152839478Y-76365606D01*
X152843105Y-76350351D01*
X152848631Y-76299486D01*
X152849000Y-76292672D01*
X152849000Y-76250115D01*
X152844525Y-76234876D01*
X152843135Y-76233671D01*
X152835452Y-76232000D01*
X151301116Y-76232000D01*
X151285877Y-76236475D01*
X151284672Y-76237865D01*
X151283001Y-76245548D01*
X151283001Y-76292669D01*
X151283371Y-76299490D01*
X151288895Y-76350352D01*
X151292521Y-76365604D01*
X151337676Y-76486054D01*
X151346214Y-76501649D01*
X151422715Y-76603724D01*
X151435276Y-76616285D01*
X151537351Y-76692786D01*
X151552948Y-76701325D01*
X151670262Y-76745304D01*
X151727027Y-76787945D01*
X151751727Y-76854507D01*
X151736520Y-76923856D01*
X151721977Y-76943249D01*
X151718543Y-76945543D01*
X151696331Y-76978787D01*
X151694968Y-76985640D01*
X151652777Y-77037997D01*
X151580914Y-77060500D01*
X150171086Y-77060500D01*
X150102965Y-77040498D01*
X150057004Y-76985502D01*
X150055669Y-76978787D01*
X150033457Y-76945543D01*
X150000213Y-76923331D01*
X149990134Y-76921326D01*
X149936002Y-76877706D01*
X149913500Y-76805843D01*
X149913500Y-76460157D01*
X149933502Y-76392036D01*
X149990188Y-76344663D01*
X150000213Y-76342669D01*
X150033457Y-76320457D01*
X150055669Y-76287213D01*
X150061500Y-76257899D01*
X150061499Y-75705885D01*
X151283000Y-75705885D01*
X151287475Y-75721124D01*
X151288865Y-75722329D01*
X151296548Y-75724000D01*
X151793885Y-75724000D01*
X151809124Y-75719525D01*
X151810329Y-75718135D01*
X151812000Y-75710451D01*
X151812000Y-75705885D01*
X152320000Y-75705885D01*
X152324475Y-75721124D01*
X152325865Y-75722329D01*
X152333548Y-75724000D01*
X152830884Y-75724000D01*
X152846123Y-75719525D01*
X152847328Y-75718135D01*
X152848999Y-75710451D01*
X152848999Y-75663331D01*
X152848629Y-75656510D01*
X152843105Y-75605648D01*
X152839479Y-75590396D01*
X152794324Y-75469946D01*
X152785786Y-75454351D01*
X152709285Y-75352276D01*
X152696724Y-75339715D01*
X152594649Y-75263214D01*
X152579054Y-75254676D01*
X152458606Y-75209522D01*
X152443351Y-75205895D01*
X152392486Y-75200369D01*
X152385672Y-75200000D01*
X152338115Y-75200000D01*
X152322876Y-75204475D01*
X152321671Y-75205865D01*
X152320000Y-75213548D01*
X152320000Y-75705885D01*
X151812000Y-75705885D01*
X151812000Y-75218116D01*
X151807525Y-75202877D01*
X151806135Y-75201672D01*
X151798452Y-75200001D01*
X151746331Y-75200001D01*
X151739510Y-75200371D01*
X151688648Y-75205895D01*
X151673396Y-75209521D01*
X151552946Y-75254676D01*
X151537351Y-75263214D01*
X151435276Y-75339715D01*
X151422715Y-75352276D01*
X151346214Y-75454351D01*
X151337676Y-75469946D01*
X151292522Y-75590394D01*
X151288895Y-75605649D01*
X151283369Y-75656514D01*
X151283000Y-75663328D01*
X151283000Y-75705885D01*
X150061499Y-75705885D01*
X150061499Y-75698102D01*
X150058732Y-75684190D01*
X150058089Y-75680955D01*
X150055669Y-75668787D01*
X150033457Y-75635543D01*
X150000213Y-75613331D01*
X149970899Y-75607500D01*
X149686139Y-75607500D01*
X149401102Y-75607501D01*
X149387190Y-75610268D01*
X149383961Y-75610910D01*
X149371787Y-75613331D01*
X149338543Y-75635543D01*
X149316331Y-75668787D01*
X149310500Y-75698101D01*
X149310501Y-76257898D01*
X149311709Y-76263971D01*
X149313911Y-76275042D01*
X149316331Y-76287213D01*
X149338543Y-76320457D01*
X149371787Y-76342669D01*
X149381866Y-76344674D01*
X149435998Y-76388294D01*
X149458500Y-76460157D01*
X149458500Y-76805843D01*
X149438498Y-76873964D01*
X149381812Y-76921337D01*
X149371787Y-76923331D01*
X149338543Y-76945543D01*
X149316331Y-76978787D01*
X149310500Y-77008101D01*
X149310501Y-77567898D01*
X149311709Y-77573971D01*
X149313911Y-77585042D01*
X149316331Y-77597213D01*
X149338543Y-77630457D01*
X149371787Y-77652669D01*
X149381866Y-77654674D01*
X149435998Y-77698294D01*
X149458500Y-77770157D01*
X149458500Y-78185843D01*
X149438498Y-78253964D01*
X149381812Y-78301337D01*
X149371787Y-78303331D01*
X149338543Y-78325543D01*
X149316331Y-78358787D01*
X149310500Y-78388101D01*
X149310501Y-78947898D01*
X149311709Y-78953971D01*
X149313911Y-78965042D01*
X149316331Y-78977213D01*
X149338543Y-79010457D01*
X149371787Y-79032669D01*
X149381866Y-79034674D01*
X149435998Y-79078294D01*
X149458500Y-79150157D01*
X149458500Y-79495843D01*
X149438498Y-79563964D01*
X149381812Y-79611337D01*
X149371787Y-79613331D01*
X149338543Y-79635543D01*
X149316331Y-79668787D01*
X149310500Y-79698101D01*
X149310500Y-79704288D01*
X149310501Y-80051418D01*
X149290499Y-80119538D01*
X149273596Y-80140513D01*
X148474714Y-80939395D01*
X148412402Y-80973421D01*
X148385619Y-80976300D01*
X138301381Y-80976300D01*
X138233260Y-80956298D01*
X138212286Y-80939395D01*
X137373605Y-80100714D01*
X137339579Y-80038402D01*
X137336700Y-80011619D01*
X137336700Y-79291800D01*
X137356702Y-79223679D01*
X137381708Y-79195280D01*
X137390792Y-79187657D01*
X137443108Y-79097043D01*
X137461277Y-78994000D01*
X137443108Y-78890957D01*
X137405975Y-78826641D01*
X137396303Y-78809888D01*
X137396302Y-78809887D01*
X137390792Y-78800343D01*
X137382348Y-78793257D01*
X137319081Y-78740170D01*
X137310639Y-78733086D01*
X137300287Y-78729318D01*
X137300285Y-78729317D01*
X137222672Y-78701069D01*
X137222671Y-78701069D01*
X137212316Y-78697300D01*
X137107684Y-78697300D01*
X137022591Y-78728271D01*
X136951739Y-78732773D01*
X136889699Y-78698254D01*
X136856170Y-78635674D01*
X136853499Y-78609869D01*
X136853499Y-78388102D01*
X136850732Y-78374190D01*
X136850089Y-78370955D01*
X136847669Y-78358787D01*
X136825457Y-78325543D01*
X136792213Y-78303331D01*
X136782134Y-78301326D01*
X136728002Y-78257706D01*
X136705500Y-78185843D01*
X136705500Y-77770157D01*
X136725502Y-77702036D01*
X136782188Y-77654663D01*
X136792213Y-77652669D01*
X136825457Y-77630457D01*
X136847669Y-77597213D01*
X136849032Y-77590360D01*
X136891223Y-77538003D01*
X136963086Y-77515500D01*
X138372914Y-77515500D01*
X138441035Y-77535502D01*
X138486996Y-77590498D01*
X138488331Y-77597213D01*
X138510543Y-77630457D01*
X138543787Y-77652669D01*
X138553866Y-77654674D01*
X138607998Y-77698294D01*
X138630500Y-77770157D01*
X138630500Y-78185843D01*
X138610498Y-78253964D01*
X138553812Y-78301337D01*
X138543787Y-78303331D01*
X138510543Y-78325543D01*
X138488331Y-78358787D01*
X138482500Y-78388101D01*
X138480147Y-78387633D01*
X138457530Y-78443615D01*
X138399568Y-78484614D01*
X138390967Y-78486278D01*
X138390876Y-78486261D01*
X138390554Y-78486358D01*
X138390550Y-78486359D01*
X138374185Y-78491300D01*
X138356888Y-78496522D01*
X138350535Y-78498260D01*
X138316086Y-78506722D01*
X138312431Y-78509944D01*
X138307761Y-78511354D01*
X138305056Y-78513452D01*
X138282570Y-78535938D01*
X138276800Y-78541357D01*
X138250961Y-78564137D01*
X138250192Y-78563264D01*
X138245891Y-78566727D01*
X138248836Y-78569672D01*
X138158113Y-78660395D01*
X138095801Y-78694421D01*
X138069018Y-78697300D01*
X138022084Y-78697300D01*
X137923762Y-78733086D01*
X137843608Y-78800343D01*
X137791292Y-78890957D01*
X137773123Y-78994000D01*
X137791292Y-79097043D01*
X137843608Y-79187657D01*
X137852047Y-79194738D01*
X137852050Y-79194741D01*
X137853982Y-79196362D01*
X137923761Y-79254914D01*
X137934113Y-79258682D01*
X137934115Y-79258683D01*
X138011728Y-79286931D01*
X138011729Y-79286931D01*
X138022084Y-79290700D01*
X138126716Y-79290700D01*
X138137071Y-79286931D01*
X138137072Y-79286931D01*
X138214685Y-79258683D01*
X138214687Y-79258682D01*
X138225039Y-79254914D01*
X138294818Y-79196362D01*
X138296750Y-79194741D01*
X138296753Y-79194738D01*
X138305192Y-79187657D01*
X138357508Y-79097043D01*
X138358421Y-79091864D01*
X138398408Y-79037555D01*
X138464729Y-79012217D01*
X138522929Y-79021410D01*
X138533470Y-79025776D01*
X138543787Y-79032669D01*
X138553865Y-79034674D01*
X138607996Y-79078292D01*
X138630500Y-79150157D01*
X138630500Y-79495843D01*
X138610498Y-79563964D01*
X138553812Y-79611337D01*
X138543787Y-79613331D01*
X138510543Y-79635543D01*
X138488331Y-79668787D01*
X138482500Y-79698101D01*
X138482501Y-80257898D01*
X138483709Y-80263971D01*
X138485911Y-80275042D01*
X138488331Y-80287213D01*
X138510543Y-80320457D01*
X138543787Y-80342669D01*
X138573101Y-80348500D01*
X138857861Y-80348500D01*
X139142898Y-80348499D01*
X139156810Y-80345732D01*
X139160045Y-80345089D01*
X139172213Y-80342669D01*
X139205457Y-80320457D01*
X139227669Y-80287213D01*
X139233500Y-80257899D01*
X139233499Y-79698102D01*
X139230732Y-79684190D01*
X139230089Y-79680955D01*
X139227669Y-79668787D01*
X139205457Y-79635543D01*
X139172213Y-79613331D01*
X139162134Y-79611326D01*
X139108002Y-79567706D01*
X139085500Y-79495843D01*
X139085500Y-79150157D01*
X139105502Y-79082036D01*
X139162188Y-79034663D01*
X139172213Y-79032669D01*
X139205457Y-79010457D01*
X139227669Y-78977213D01*
X139233500Y-78947899D01*
X139233499Y-78388102D01*
X139230732Y-78374190D01*
X139230089Y-78370955D01*
X139227669Y-78358787D01*
X139205457Y-78325543D01*
X139172213Y-78303331D01*
X139162134Y-78301326D01*
X139108002Y-78257706D01*
X139085500Y-78185843D01*
X139085500Y-77986653D01*
X142570422Y-77986653D01*
X142588921Y-78154215D01*
X142646856Y-78312527D01*
X142740880Y-78452450D01*
X142746492Y-78457557D01*
X142746495Y-78457560D01*
X142805614Y-78511354D01*
X142865567Y-78565907D01*
X142872240Y-78569530D01*
X142872244Y-78569533D01*
X143007045Y-78642723D01*
X143013718Y-78646346D01*
X143176780Y-78689125D01*
X143264683Y-78690505D01*
X143337741Y-78691653D01*
X143337744Y-78691653D01*
X143345339Y-78691772D01*
X143352744Y-78690076D01*
X143352745Y-78690076D01*
X143413990Y-78676049D01*
X143442109Y-78669609D01*
X143512974Y-78673898D01*
X143570273Y-78715820D01*
X143595810Y-78782065D01*
X143592696Y-78818826D01*
X143592427Y-78819515D01*
X143591436Y-78827044D01*
X143571665Y-78977213D01*
X143570422Y-78986653D01*
X143588921Y-79154215D01*
X143646856Y-79312527D01*
X143740880Y-79452450D01*
X143746492Y-79457557D01*
X143746495Y-79457560D01*
X143838407Y-79541193D01*
X143865567Y-79565907D01*
X143872240Y-79569530D01*
X143872244Y-79569533D01*
X143985909Y-79631247D01*
X144013718Y-79646346D01*
X144176780Y-79689125D01*
X144264683Y-79690505D01*
X144337741Y-79691653D01*
X144337744Y-79691653D01*
X144345339Y-79691772D01*
X144352744Y-79690076D01*
X144352745Y-79690076D01*
X144445698Y-79668787D01*
X144509664Y-79654137D01*
X144660268Y-79578391D01*
X144666040Y-79573462D01*
X144666042Y-79573460D01*
X144782681Y-79473841D01*
X144782685Y-79473837D01*
X144788457Y-79468907D01*
X144886831Y-79332006D01*
X144938359Y-79203826D01*
X144946875Y-79182642D01*
X144946875Y-79182641D01*
X144949709Y-79175592D01*
X144969220Y-79038499D01*
X144972881Y-79012778D01*
X144972881Y-79012774D01*
X144973462Y-79008694D01*
X144973616Y-78994000D01*
X144972303Y-78983145D01*
X144954276Y-78834184D01*
X144954276Y-78834183D01*
X144953363Y-78826641D01*
X144940749Y-78793259D01*
X144896460Y-78676049D01*
X144896459Y-78676047D01*
X144893775Y-78668944D01*
X144889476Y-78662689D01*
X144889474Y-78662685D01*
X144802592Y-78536272D01*
X144802591Y-78536270D01*
X144798290Y-78530013D01*
X144672422Y-78417869D01*
X144523437Y-78338985D01*
X144359936Y-78297916D01*
X144352338Y-78297876D01*
X144352336Y-78297876D01*
X144279659Y-78297496D01*
X144191358Y-78297034D01*
X144183973Y-78298807D01*
X144103242Y-78318188D01*
X144032334Y-78314640D01*
X143974601Y-78273321D01*
X143948371Y-78207347D01*
X143951046Y-78175782D01*
X143949709Y-78175592D01*
X143972881Y-78012778D01*
X143972881Y-78012774D01*
X143973462Y-78008694D01*
X143973616Y-77994000D01*
X143964112Y-77915467D01*
X143975785Y-77845438D01*
X144023466Y-77792835D01*
X144092017Y-77774362D01*
X144105863Y-77775437D01*
X144170918Y-77784117D01*
X144255214Y-77795364D01*
X144262225Y-77794726D01*
X144262229Y-77794726D01*
X144426151Y-77779808D01*
X144433172Y-77779169D01*
X144603120Y-77723949D01*
X144694404Y-77669533D01*
X144750558Y-77636059D01*
X144750560Y-77636058D01*
X144756610Y-77632451D01*
X144886015Y-77509220D01*
X144984903Y-77360382D01*
X145048358Y-77193335D01*
X145058966Y-77117856D01*
X145072678Y-77020289D01*
X145072678Y-77020283D01*
X145073227Y-77016380D01*
X145073540Y-76994000D01*
X145053621Y-76816420D01*
X145013541Y-76701325D01*
X144997170Y-76654313D01*
X144997169Y-76654311D01*
X144994855Y-76647666D01*
X144988570Y-76637607D01*
X144903895Y-76502099D01*
X144900162Y-76496125D01*
X144774248Y-76369329D01*
X144697237Y-76320457D01*
X144629315Y-76277352D01*
X144629312Y-76277350D01*
X144623372Y-76273581D01*
X144579332Y-76257899D01*
X144461667Y-76216000D01*
X144461662Y-76215999D01*
X144455032Y-76213638D01*
X144448044Y-76212805D01*
X144448041Y-76212804D01*
X144327793Y-76198466D01*
X144277596Y-76192480D01*
X144270593Y-76193216D01*
X144270592Y-76193216D01*
X144225892Y-76197914D01*
X144099881Y-76211158D01*
X144093213Y-76213428D01*
X143937388Y-76266475D01*
X143937385Y-76266476D01*
X143930721Y-76268745D01*
X143924726Y-76272433D01*
X143924722Y-76272435D01*
X143863431Y-76310142D01*
X143778523Y-76362378D01*
X143773492Y-76367305D01*
X143773489Y-76367307D01*
X143752058Y-76388294D01*
X143650851Y-76487403D01*
X143554051Y-76637607D01*
X143551642Y-76644227D01*
X143551640Y-76644230D01*
X143547970Y-76654313D01*
X143492934Y-76805524D01*
X143492051Y-76812512D01*
X143492051Y-76812513D01*
X143490674Y-76823417D01*
X143470538Y-76982809D01*
X143476195Y-77040498D01*
X143487899Y-77159863D01*
X143474640Y-77229611D01*
X143425777Y-77281118D01*
X143359939Y-77297267D01*
X143359936Y-77297916D01*
X143357349Y-77297902D01*
X143357347Y-77297902D01*
X143355194Y-77297891D01*
X143355192Y-77297891D01*
X143291831Y-77297560D01*
X143191358Y-77297034D01*
X143183979Y-77298806D01*
X143183975Y-77298806D01*
X143034815Y-77334616D01*
X143034811Y-77334617D01*
X143027436Y-77336388D01*
X142877633Y-77413707D01*
X142871911Y-77418699D01*
X142871909Y-77418700D01*
X142756323Y-77519532D01*
X142756320Y-77519535D01*
X142750598Y-77524527D01*
X142746231Y-77530741D01*
X142672212Y-77636059D01*
X142653663Y-77662451D01*
X142592427Y-77819515D01*
X142570422Y-77986653D01*
X139085500Y-77986653D01*
X139085500Y-77770157D01*
X139105502Y-77702036D01*
X139162188Y-77654663D01*
X139172213Y-77652669D01*
X139205457Y-77630457D01*
X139227669Y-77597213D01*
X139233500Y-77567899D01*
X139233499Y-77008102D01*
X139230694Y-76994000D01*
X139230089Y-76990955D01*
X139227669Y-76978787D01*
X139205457Y-76945543D01*
X139204955Y-76945207D01*
X139174846Y-76890069D01*
X139179911Y-76819254D01*
X139222458Y-76762418D01*
X139253738Y-76745304D01*
X139371052Y-76701325D01*
X139386649Y-76692786D01*
X139488724Y-76616285D01*
X139501285Y-76603724D01*
X139577786Y-76501649D01*
X139586324Y-76486054D01*
X139631478Y-76365606D01*
X139635105Y-76350351D01*
X139640631Y-76299486D01*
X139641000Y-76292672D01*
X139641000Y-76250115D01*
X139636525Y-76234876D01*
X139635135Y-76233671D01*
X139627452Y-76232000D01*
X138093116Y-76232000D01*
X138077877Y-76236475D01*
X138076672Y-76237865D01*
X138075001Y-76245548D01*
X138075001Y-76292669D01*
X138075371Y-76299490D01*
X138080895Y-76350352D01*
X138084521Y-76365604D01*
X138129676Y-76486054D01*
X138138214Y-76501649D01*
X138214715Y-76603724D01*
X138227276Y-76616285D01*
X138329351Y-76692786D01*
X138344948Y-76701325D01*
X138462262Y-76745304D01*
X138519027Y-76787945D01*
X138543727Y-76854507D01*
X138528520Y-76923856D01*
X138513977Y-76943249D01*
X138510543Y-76945543D01*
X138488331Y-76978787D01*
X138486968Y-76985640D01*
X138444777Y-77037997D01*
X138372914Y-77060500D01*
X136963086Y-77060500D01*
X136894965Y-77040498D01*
X136849004Y-76985502D01*
X136847669Y-76978787D01*
X136825457Y-76945543D01*
X136792213Y-76923331D01*
X136782134Y-76921326D01*
X136728002Y-76877706D01*
X136705500Y-76805843D01*
X136705500Y-76460157D01*
X136725502Y-76392036D01*
X136782188Y-76344663D01*
X136792213Y-76342669D01*
X136825457Y-76320457D01*
X136847669Y-76287213D01*
X136853500Y-76257899D01*
X136853499Y-75705885D01*
X138075000Y-75705885D01*
X138079475Y-75721124D01*
X138080865Y-75722329D01*
X138088548Y-75724000D01*
X138585885Y-75724000D01*
X138601124Y-75719525D01*
X138602329Y-75718135D01*
X138604000Y-75710451D01*
X138604000Y-75705885D01*
X139112000Y-75705885D01*
X139116475Y-75721124D01*
X139117865Y-75722329D01*
X139125548Y-75724000D01*
X139622884Y-75724000D01*
X139638123Y-75719525D01*
X139639328Y-75718135D01*
X139640999Y-75710451D01*
X139640999Y-75663331D01*
X139640629Y-75656510D01*
X139635105Y-75605648D01*
X139631479Y-75590396D01*
X139586324Y-75469946D01*
X139577786Y-75454351D01*
X139501285Y-75352276D01*
X139488724Y-75339715D01*
X139386649Y-75263214D01*
X139371054Y-75254676D01*
X139250606Y-75209522D01*
X139235351Y-75205895D01*
X139184486Y-75200369D01*
X139177672Y-75200000D01*
X139130115Y-75200000D01*
X139114876Y-75204475D01*
X139113671Y-75205865D01*
X139112000Y-75213548D01*
X139112000Y-75705885D01*
X138604000Y-75705885D01*
X138604000Y-75218116D01*
X138599525Y-75202877D01*
X138598135Y-75201672D01*
X138590452Y-75200001D01*
X138538331Y-75200001D01*
X138531510Y-75200371D01*
X138480648Y-75205895D01*
X138465396Y-75209521D01*
X138344946Y-75254676D01*
X138329351Y-75263214D01*
X138227276Y-75339715D01*
X138214715Y-75352276D01*
X138138214Y-75454351D01*
X138129676Y-75469946D01*
X138084522Y-75590394D01*
X138080895Y-75605649D01*
X138075369Y-75656514D01*
X138075000Y-75663328D01*
X138075000Y-75705885D01*
X136853499Y-75705885D01*
X136853499Y-75698102D01*
X136850732Y-75684190D01*
X136850089Y-75680955D01*
X136847669Y-75668787D01*
X136825457Y-75635543D01*
X136792213Y-75613331D01*
X136762899Y-75607500D01*
X136478139Y-75607500D01*
X136193102Y-75607501D01*
X136179190Y-75610268D01*
X136175961Y-75610910D01*
X136163787Y-75613331D01*
X136130543Y-75635543D01*
X136108331Y-75668787D01*
X136102500Y-75698101D01*
X136102501Y-76257898D01*
X136103709Y-76263971D01*
X136105911Y-76275042D01*
X136108331Y-76287213D01*
X136130543Y-76320457D01*
X136163787Y-76342669D01*
X136173866Y-76344674D01*
X136227998Y-76388294D01*
X136250500Y-76460157D01*
X136250500Y-76805843D01*
X136230498Y-76873964D01*
X136173812Y-76921337D01*
X136163787Y-76923331D01*
X136130543Y-76945543D01*
X136108331Y-76978787D01*
X136102500Y-77008101D01*
X136102501Y-77567898D01*
X136103709Y-77573971D01*
X136105911Y-77585042D01*
X136108331Y-77597213D01*
X136130543Y-77630457D01*
X136163787Y-77652669D01*
X136173866Y-77654674D01*
X136227998Y-77698294D01*
X136250500Y-77770157D01*
X136250500Y-78185843D01*
X136230498Y-78253964D01*
X136173812Y-78301337D01*
X136163787Y-78303331D01*
X136130543Y-78325543D01*
X136108331Y-78358787D01*
X136102500Y-78388101D01*
X136102501Y-78947898D01*
X136103709Y-78953971D01*
X136105911Y-78965042D01*
X136108331Y-78977213D01*
X136130543Y-79010457D01*
X136163787Y-79032669D01*
X136173866Y-79034674D01*
X136227998Y-79078294D01*
X136250500Y-79150157D01*
X136250500Y-79495843D01*
X136230498Y-79563964D01*
X136173812Y-79611337D01*
X136163787Y-79613331D01*
X136130543Y-79635543D01*
X136108331Y-79668787D01*
X136102500Y-79698101D01*
X134874000Y-79698101D01*
X134874000Y-73024000D01*
X134894002Y-72955879D01*
X134947658Y-72909386D01*
X135000000Y-72898000D01*
X153669415Y-72898000D01*
X153737536Y-72918002D01*
G37*
G04 #@! TD.AperFunction*
M02*
