G04 #@! TF.GenerationSoftware,KiCad,Pcbnew,(5.1.8)-1*
G04 #@! TF.CreationDate,2021-04-03T22:15:50+03:00*
G04 #@! TF.ProjectId,sensor,73656e73-6f72-42e6-9b69-6361645f7063,rev?*
G04 #@! TF.SameCoordinates,Original*
G04 #@! TF.FileFunction,Legend,Top*
G04 #@! TF.FilePolarity,Positive*
%FSLAX46Y46*%
G04 Gerber Fmt 4.6, Leading zero omitted, Abs format (unit mm)*
G04 Created by KiCad (PCBNEW (5.1.8)-1) date 2021-04-03 22:15:50*
%MOMM*%
%LPD*%
G01*
G04 APERTURE LIST*
%ADD10C,0.120000*%
%ADD11C,0.200000*%
%ADD12C,0.100000*%
%ADD13C,0.300000*%
%ADD14C,0.127000*%
%ADD15C,0.112700*%
G04 APERTURE END LIST*
D10*
X144146000Y-83719641D02*
X144146000Y-83412359D01*
X144906000Y-83719641D02*
X144906000Y-83412359D01*
X138302000Y-69950359D02*
X138302000Y-70257641D01*
X137542000Y-69950359D02*
X137542000Y-70257641D01*
X150496000Y-81179641D02*
X150496000Y-80872359D01*
X151256000Y-81179641D02*
X151256000Y-80872359D01*
X132741641Y-72770000D02*
X132434359Y-72770000D01*
X132741641Y-72010000D02*
X132434359Y-72010000D01*
X146198000Y-83458164D02*
X146198000Y-83673836D01*
X146918000Y-83458164D02*
X146918000Y-83673836D01*
X148950000Y-80879836D02*
X148950000Y-80664164D01*
X148230000Y-80879836D02*
X148230000Y-80664164D01*
X132186000Y-81680164D02*
X132186000Y-81895836D01*
X131466000Y-81680164D02*
X131466000Y-81895836D01*
X145660164Y-85492000D02*
X145875836Y-85492000D01*
X145660164Y-86212000D02*
X145875836Y-86212000D01*
X131720000Y-69996164D02*
X131720000Y-70211836D01*
X132440000Y-69996164D02*
X132440000Y-70211836D01*
X134218000Y-69996164D02*
X134218000Y-70211836D01*
X133498000Y-69996164D02*
X133498000Y-70211836D01*
D11*
X135330000Y-79516000D02*
X135330000Y-74916000D01*
X135330000Y-74916000D02*
X141530000Y-74916000D01*
X141530000Y-74916000D02*
X141530000Y-79516000D01*
X141530000Y-79516000D02*
X135330000Y-79516000D01*
X135580000Y-81666000D02*
X135580000Y-79866000D01*
X146346000Y-78702000D02*
X146346000Y-80760000D01*
X146346000Y-80760000D02*
X144230000Y-80760000D01*
X144230000Y-80760000D02*
X144230000Y-78244000D01*
X144230000Y-78244000D02*
X145888000Y-78244000D01*
X145888000Y-78244000D02*
X146346000Y-78702000D01*
X146446000Y-78244000D02*
G75*
G03*
X146446000Y-78244000I-100000J0D01*
G01*
D12*
X144167000Y-74890000D02*
X144167000Y-75390000D01*
X144167000Y-75390000D02*
X145542000Y-75390000D01*
X144167000Y-69890000D02*
X144167000Y-69390000D01*
X144167000Y-69390000D02*
X145542000Y-69390000D01*
D13*
X147642000Y-70290000D02*
X147642000Y-70290000D01*
X147642000Y-70190000D02*
X147642000Y-70190000D01*
X147642000Y-70190000D02*
G75*
G02*
X147642000Y-70290000I0J-50000D01*
G01*
X147642000Y-70290000D02*
G75*
G02*
X147642000Y-70190000I0J50000D01*
G01*
D10*
X148210000Y-83412359D02*
X148210000Y-83719641D01*
X148970000Y-83412359D02*
X148970000Y-83719641D01*
X150748000Y-83412359D02*
X150748000Y-83719641D01*
X149988000Y-83412359D02*
X149988000Y-83719641D01*
X135510000Y-69950359D02*
X135510000Y-70257641D01*
X136270000Y-69950359D02*
X136270000Y-70257641D01*
X137796000Y-83973641D02*
X137796000Y-83666359D01*
X138556000Y-83973641D02*
X138556000Y-83666359D01*
X135764000Y-83973641D02*
X135764000Y-83666359D01*
X136524000Y-83973641D02*
X136524000Y-83666359D01*
X132460000Y-74575641D02*
X132460000Y-74268359D01*
X131700000Y-74575641D02*
X131700000Y-74268359D01*
D14*
X144117785Y-82583261D02*
X143906119Y-82280880D01*
X143754928Y-82583261D02*
X143754928Y-81948261D01*
X143996833Y-81948261D01*
X144057309Y-81978500D01*
X144087547Y-82008738D01*
X144117785Y-82069214D01*
X144117785Y-82159928D01*
X144087547Y-82220404D01*
X144057309Y-82250642D01*
X143996833Y-82280880D01*
X143754928Y-82280880D01*
X144722547Y-82583261D02*
X144359690Y-82583261D01*
X144541119Y-82583261D02*
X144541119Y-81948261D01*
X144480642Y-82038976D01*
X144420166Y-82099452D01*
X144359690Y-82129690D01*
X145115642Y-81948261D02*
X145176119Y-81948261D01*
X145236595Y-81978500D01*
X145266833Y-82008738D01*
X145297071Y-82069214D01*
X145327309Y-82190166D01*
X145327309Y-82341357D01*
X145297071Y-82462309D01*
X145266833Y-82522785D01*
X145236595Y-82553023D01*
X145176119Y-82583261D01*
X145115642Y-82583261D01*
X145055166Y-82553023D01*
X145024928Y-82522785D01*
X144994690Y-82462309D01*
X144964452Y-82341357D01*
X144964452Y-82190166D01*
X144994690Y-82069214D01*
X145024928Y-82008738D01*
X145055166Y-81978500D01*
X145115642Y-81948261D01*
X137816166Y-69121261D02*
X137604500Y-68818880D01*
X137453309Y-69121261D02*
X137453309Y-68486261D01*
X137695214Y-68486261D01*
X137755690Y-68516500D01*
X137785928Y-68546738D01*
X137816166Y-68607214D01*
X137816166Y-68697928D01*
X137785928Y-68758404D01*
X137755690Y-68788642D01*
X137695214Y-68818880D01*
X137453309Y-68818880D01*
X138058071Y-68546738D02*
X138088309Y-68516500D01*
X138148785Y-68486261D01*
X138299976Y-68486261D01*
X138360452Y-68516500D01*
X138390690Y-68546738D01*
X138420928Y-68607214D01*
X138420928Y-68667690D01*
X138390690Y-68758404D01*
X138027833Y-69121261D01*
X138420928Y-69121261D01*
X150770166Y-80043261D02*
X150558500Y-79740880D01*
X150407309Y-80043261D02*
X150407309Y-79408261D01*
X150649214Y-79408261D01*
X150709690Y-79438500D01*
X150739928Y-79468738D01*
X150770166Y-79529214D01*
X150770166Y-79619928D01*
X150739928Y-79680404D01*
X150709690Y-79710642D01*
X150649214Y-79740880D01*
X150407309Y-79740880D01*
X151374928Y-80043261D02*
X151012071Y-80043261D01*
X151193500Y-80043261D02*
X151193500Y-79408261D01*
X151133023Y-79498976D01*
X151072547Y-79559452D01*
X151012071Y-79589690D01*
X130704166Y-72677261D02*
X130492500Y-72374880D01*
X130341309Y-72677261D02*
X130341309Y-72042261D01*
X130583214Y-72042261D01*
X130643690Y-72072500D01*
X130673928Y-72102738D01*
X130704166Y-72163214D01*
X130704166Y-72253928D01*
X130673928Y-72314404D01*
X130643690Y-72344642D01*
X130583214Y-72374880D01*
X130341309Y-72374880D01*
X131278690Y-72042261D02*
X130976309Y-72042261D01*
X130946071Y-72344642D01*
X130976309Y-72314404D01*
X131036785Y-72284166D01*
X131187976Y-72284166D01*
X131248452Y-72314404D01*
X131278690Y-72344642D01*
X131308928Y-72405119D01*
X131308928Y-72556309D01*
X131278690Y-72616785D01*
X131248452Y-72647023D01*
X131187976Y-72677261D01*
X131036785Y-72677261D01*
X130976309Y-72647023D01*
X130946071Y-72616785D01*
X146452166Y-82522785D02*
X146421928Y-82553023D01*
X146331214Y-82583261D01*
X146270738Y-82583261D01*
X146180023Y-82553023D01*
X146119547Y-82492547D01*
X146089309Y-82432071D01*
X146059071Y-82311119D01*
X146059071Y-82220404D01*
X146089309Y-82099452D01*
X146119547Y-82038976D01*
X146180023Y-81978500D01*
X146270738Y-81948261D01*
X146331214Y-81948261D01*
X146421928Y-81978500D01*
X146452166Y-82008738D01*
X147056928Y-82583261D02*
X146694071Y-82583261D01*
X146875500Y-82583261D02*
X146875500Y-81948261D01*
X146815023Y-82038976D01*
X146754547Y-82099452D01*
X146694071Y-82129690D01*
X148484166Y-79728785D02*
X148453928Y-79759023D01*
X148363214Y-79789261D01*
X148302738Y-79789261D01*
X148212023Y-79759023D01*
X148151547Y-79698547D01*
X148121309Y-79638071D01*
X148091071Y-79517119D01*
X148091071Y-79426404D01*
X148121309Y-79305452D01*
X148151547Y-79244976D01*
X148212023Y-79184500D01*
X148302738Y-79154261D01*
X148363214Y-79154261D01*
X148453928Y-79184500D01*
X148484166Y-79214738D01*
X148695833Y-79154261D02*
X149088928Y-79154261D01*
X148877261Y-79396166D01*
X148967976Y-79396166D01*
X149028452Y-79426404D01*
X149058690Y-79456642D01*
X149088928Y-79517119D01*
X149088928Y-79668309D01*
X149058690Y-79728785D01*
X149028452Y-79759023D01*
X148967976Y-79789261D01*
X148786547Y-79789261D01*
X148726071Y-79759023D01*
X148695833Y-79728785D01*
D15*
X131720166Y-80490785D02*
X131689928Y-80521023D01*
X131599214Y-80551261D01*
X131538738Y-80551261D01*
X131448023Y-80521023D01*
X131387547Y-80460547D01*
X131357309Y-80400071D01*
X131327071Y-80279119D01*
X131327071Y-80188404D01*
X131357309Y-80067452D01*
X131387547Y-80006976D01*
X131448023Y-79946500D01*
X131538738Y-79916261D01*
X131599214Y-79916261D01*
X131689928Y-79946500D01*
X131720166Y-79976738D01*
X131962071Y-79976738D02*
X131992309Y-79946500D01*
X132052785Y-79916261D01*
X132203976Y-79916261D01*
X132264452Y-79946500D01*
X132294690Y-79976738D01*
X132324928Y-80037214D01*
X132324928Y-80097690D01*
X132294690Y-80188404D01*
X131931833Y-80551261D01*
X132324928Y-80551261D01*
D14*
X144166166Y-86078785D02*
X144135928Y-86109023D01*
X144045214Y-86139261D01*
X143984738Y-86139261D01*
X143894023Y-86109023D01*
X143833547Y-86048547D01*
X143803309Y-85988071D01*
X143773071Y-85867119D01*
X143773071Y-85776404D01*
X143803309Y-85655452D01*
X143833547Y-85594976D01*
X143894023Y-85534500D01*
X143984738Y-85504261D01*
X144045214Y-85504261D01*
X144135928Y-85534500D01*
X144166166Y-85564738D01*
X144710452Y-85715928D02*
X144710452Y-86139261D01*
X144559261Y-85474023D02*
X144408071Y-85927595D01*
X144801166Y-85927595D01*
X131974166Y-69060785D02*
X131943928Y-69091023D01*
X131853214Y-69121261D01*
X131792738Y-69121261D01*
X131702023Y-69091023D01*
X131641547Y-69030547D01*
X131611309Y-68970071D01*
X131581071Y-68849119D01*
X131581071Y-68758404D01*
X131611309Y-68637452D01*
X131641547Y-68576976D01*
X131702023Y-68516500D01*
X131792738Y-68486261D01*
X131853214Y-68486261D01*
X131943928Y-68516500D01*
X131974166Y-68546738D01*
X132548690Y-68486261D02*
X132246309Y-68486261D01*
X132216071Y-68788642D01*
X132246309Y-68758404D01*
X132306785Y-68728166D01*
X132457976Y-68728166D01*
X132518452Y-68758404D01*
X132548690Y-68788642D01*
X132578928Y-68849119D01*
X132578928Y-69000309D01*
X132548690Y-69060785D01*
X132518452Y-69091023D01*
X132457976Y-69121261D01*
X132306785Y-69121261D01*
X132246309Y-69091023D01*
X132216071Y-69060785D01*
X133752166Y-69060785D02*
X133721928Y-69091023D01*
X133631214Y-69121261D01*
X133570738Y-69121261D01*
X133480023Y-69091023D01*
X133419547Y-69030547D01*
X133389309Y-68970071D01*
X133359071Y-68849119D01*
X133359071Y-68758404D01*
X133389309Y-68637452D01*
X133419547Y-68576976D01*
X133480023Y-68516500D01*
X133570738Y-68486261D01*
X133631214Y-68486261D01*
X133721928Y-68516500D01*
X133752166Y-68546738D01*
X134296452Y-68486261D02*
X134175500Y-68486261D01*
X134115023Y-68516500D01*
X134084785Y-68546738D01*
X134024309Y-68637452D01*
X133994071Y-68758404D01*
X133994071Y-69000309D01*
X134024309Y-69060785D01*
X134054547Y-69091023D01*
X134115023Y-69121261D01*
X134235976Y-69121261D01*
X134296452Y-69091023D01*
X134326690Y-69060785D01*
X134356928Y-69000309D01*
X134356928Y-68849119D01*
X134326690Y-68788642D01*
X134296452Y-68758404D01*
X134235976Y-68728166D01*
X134115023Y-68728166D01*
X134054547Y-68758404D01*
X134024309Y-68788642D01*
X133994071Y-68849119D01*
X134653261Y-77835880D02*
X134018261Y-77835880D01*
X134592785Y-77170642D02*
X134623023Y-77200880D01*
X134653261Y-77291595D01*
X134653261Y-77352071D01*
X134623023Y-77442785D01*
X134562547Y-77503261D01*
X134502071Y-77533500D01*
X134381119Y-77563738D01*
X134290404Y-77563738D01*
X134169452Y-77533500D01*
X134108976Y-77503261D01*
X134048500Y-77442785D01*
X134018261Y-77352071D01*
X134018261Y-77291595D01*
X134048500Y-77200880D01*
X134078738Y-77170642D01*
X134653261Y-76565880D02*
X134653261Y-76928738D01*
X134653261Y-76747309D02*
X134018261Y-76747309D01*
X134108976Y-76807785D01*
X134169452Y-76868261D01*
X134199690Y-76928738D01*
X144414119Y-78011261D02*
X144414119Y-77376261D01*
X145079357Y-77950785D02*
X145049119Y-77981023D01*
X144958404Y-78011261D01*
X144897928Y-78011261D01*
X144807214Y-77981023D01*
X144746738Y-77920547D01*
X144716500Y-77860071D01*
X144686261Y-77739119D01*
X144686261Y-77648404D01*
X144716500Y-77527452D01*
X144746738Y-77466976D01*
X144807214Y-77406500D01*
X144897928Y-77376261D01*
X144958404Y-77376261D01*
X145049119Y-77406500D01*
X145079357Y-77436738D01*
X145321261Y-77436738D02*
X145351500Y-77406500D01*
X145411976Y-77376261D01*
X145563166Y-77376261D01*
X145623642Y-77406500D01*
X145653880Y-77436738D01*
X145684119Y-77497214D01*
X145684119Y-77557690D01*
X145653880Y-77648404D01*
X145291023Y-78011261D01*
X145684119Y-78011261D01*
X149004261Y-72601666D02*
X149457833Y-72601666D01*
X149548547Y-72631904D01*
X149609023Y-72692380D01*
X149639261Y-72783095D01*
X149639261Y-72843571D01*
X149639261Y-71966666D02*
X149639261Y-72329523D01*
X149639261Y-72148095D02*
X149004261Y-72148095D01*
X149094976Y-72208571D01*
X149155452Y-72269047D01*
X149185690Y-72329523D01*
X148484166Y-85377261D02*
X148272500Y-85074880D01*
X148121309Y-85377261D02*
X148121309Y-84742261D01*
X148363214Y-84742261D01*
X148423690Y-84772500D01*
X148453928Y-84802738D01*
X148484166Y-84863214D01*
X148484166Y-84953928D01*
X148453928Y-85014404D01*
X148423690Y-85044642D01*
X148363214Y-85074880D01*
X148121309Y-85074880D01*
X148695833Y-84742261D02*
X149088928Y-84742261D01*
X148877261Y-84984166D01*
X148967976Y-84984166D01*
X149028452Y-85014404D01*
X149058690Y-85044642D01*
X149088928Y-85105119D01*
X149088928Y-85256309D01*
X149058690Y-85316785D01*
X149028452Y-85347023D01*
X148967976Y-85377261D01*
X148786547Y-85377261D01*
X148726071Y-85347023D01*
X148695833Y-85316785D01*
X150262166Y-85377261D02*
X150050500Y-85074880D01*
X149899309Y-85377261D02*
X149899309Y-84742261D01*
X150141214Y-84742261D01*
X150201690Y-84772500D01*
X150231928Y-84802738D01*
X150262166Y-84863214D01*
X150262166Y-84953928D01*
X150231928Y-85014404D01*
X150201690Y-85044642D01*
X150141214Y-85074880D01*
X149899309Y-85074880D01*
X150806452Y-84953928D02*
X150806452Y-85377261D01*
X150655261Y-84712023D02*
X150504071Y-85165595D01*
X150897166Y-85165595D01*
X135784166Y-69121261D02*
X135572500Y-68818880D01*
X135421309Y-69121261D02*
X135421309Y-68486261D01*
X135663214Y-68486261D01*
X135723690Y-68516500D01*
X135753928Y-68546738D01*
X135784166Y-68607214D01*
X135784166Y-68697928D01*
X135753928Y-68758404D01*
X135723690Y-68788642D01*
X135663214Y-68818880D01*
X135421309Y-68818880D01*
X135995833Y-68486261D02*
X136419166Y-68486261D01*
X136147023Y-69121261D01*
X138070166Y-85631261D02*
X137858500Y-85328880D01*
X137707309Y-85631261D02*
X137707309Y-84996261D01*
X137949214Y-84996261D01*
X138009690Y-85026500D01*
X138039928Y-85056738D01*
X138070166Y-85117214D01*
X138070166Y-85207928D01*
X138039928Y-85268404D01*
X138009690Y-85298642D01*
X137949214Y-85328880D01*
X137707309Y-85328880D01*
X138433023Y-85268404D02*
X138372547Y-85238166D01*
X138342309Y-85207928D01*
X138312071Y-85147452D01*
X138312071Y-85117214D01*
X138342309Y-85056738D01*
X138372547Y-85026500D01*
X138433023Y-84996261D01*
X138553976Y-84996261D01*
X138614452Y-85026500D01*
X138644690Y-85056738D01*
X138674928Y-85117214D01*
X138674928Y-85147452D01*
X138644690Y-85207928D01*
X138614452Y-85238166D01*
X138553976Y-85268404D01*
X138433023Y-85268404D01*
X138372547Y-85298642D01*
X138342309Y-85328880D01*
X138312071Y-85389357D01*
X138312071Y-85510309D01*
X138342309Y-85570785D01*
X138372547Y-85601023D01*
X138433023Y-85631261D01*
X138553976Y-85631261D01*
X138614452Y-85601023D01*
X138644690Y-85570785D01*
X138674928Y-85510309D01*
X138674928Y-85389357D01*
X138644690Y-85328880D01*
X138614452Y-85298642D01*
X138553976Y-85268404D01*
X136038166Y-85631261D02*
X135826500Y-85328880D01*
X135675309Y-85631261D02*
X135675309Y-84996261D01*
X135917214Y-84996261D01*
X135977690Y-85026500D01*
X136007928Y-85056738D01*
X136038166Y-85117214D01*
X136038166Y-85207928D01*
X136007928Y-85268404D01*
X135977690Y-85298642D01*
X135917214Y-85328880D01*
X135675309Y-85328880D01*
X136340547Y-85631261D02*
X136461500Y-85631261D01*
X136521976Y-85601023D01*
X136552214Y-85570785D01*
X136612690Y-85480071D01*
X136642928Y-85359119D01*
X136642928Y-85117214D01*
X136612690Y-85056738D01*
X136582452Y-85026500D01*
X136521976Y-84996261D01*
X136401023Y-84996261D01*
X136340547Y-85026500D01*
X136310309Y-85056738D01*
X136280071Y-85117214D01*
X136280071Y-85268404D01*
X136310309Y-85328880D01*
X136340547Y-85359119D01*
X136401023Y-85389357D01*
X136521976Y-85389357D01*
X136582452Y-85359119D01*
X136612690Y-85328880D01*
X136642928Y-85268404D01*
X130704166Y-74709261D02*
X130492500Y-74406880D01*
X130341309Y-74709261D02*
X130341309Y-74074261D01*
X130583214Y-74074261D01*
X130643690Y-74104500D01*
X130673928Y-74134738D01*
X130704166Y-74195214D01*
X130704166Y-74285928D01*
X130673928Y-74346404D01*
X130643690Y-74376642D01*
X130583214Y-74406880D01*
X130341309Y-74406880D01*
X131248452Y-74074261D02*
X131127500Y-74074261D01*
X131067023Y-74104500D01*
X131036785Y-74134738D01*
X130976309Y-74225452D01*
X130946071Y-74346404D01*
X130946071Y-74588309D01*
X130976309Y-74648785D01*
X131006547Y-74679023D01*
X131067023Y-74709261D01*
X131187976Y-74709261D01*
X131248452Y-74679023D01*
X131278690Y-74648785D01*
X131308928Y-74588309D01*
X131308928Y-74437119D01*
X131278690Y-74376642D01*
X131248452Y-74346404D01*
X131187976Y-74316166D01*
X131067023Y-74316166D01*
X131006547Y-74346404D01*
X130976309Y-74376642D01*
X130946071Y-74437119D01*
X133752166Y-82583261D02*
X133449785Y-82583261D01*
X133449785Y-81948261D01*
X134296452Y-82583261D02*
X133933595Y-82583261D01*
X134115023Y-82583261D02*
X134115023Y-81948261D01*
X134054547Y-82038976D01*
X133994071Y-82099452D01*
X133933595Y-82129690D01*
M02*
