M48
INCH,TZ
T1C0.0040
T2C0.0060
%
G90
G05
T1
X54330Y-32030
X54500Y-32030
X54660Y-32030
X59150Y-31550
X59150Y-31950
X59350Y-31950
X59660Y-30650
X59750Y-31950
T2
X51750Y-31150
X52300Y-31150
X52900Y-31150
X53500Y-32400
X53500Y-32600
X55500Y-32550
X57750Y-31560
X57750Y-31790
X58230Y-32550
X58940Y-29050
X59380Y-28790
X59455Y-29085
X60970Y-32770
X61000Y-31440
X61610Y-33270
X61890Y-30770
T0
M30
