G04 #@! TF.GenerationSoftware,KiCad,Pcbnew,(6.0.8)*
G04 #@! TF.CreationDate,2022-11-21T13:53:06+02:00*
G04 #@! TF.ProjectId,sensor,73656e73-6f72-42e6-9b69-6361645f7063,rev?*
G04 #@! TF.SameCoordinates,Original*
G04 #@! TF.FileFunction,Copper,L2,Inr*
G04 #@! TF.FilePolarity,Positive*
%FSLAX46Y46*%
G04 Gerber Fmt 4.6, Leading zero omitted, Abs format (unit mm)*
G04 Created by KiCad (PCBNEW (6.0.8)) date 2022-11-21 13:53:06*
%MOMM*%
%LPD*%
G01*
G04 APERTURE LIST*
G04 #@! TA.AperFunction,ComponentPad*
%ADD10O,1.700000X1.700000*%
G04 #@! TD*
G04 #@! TA.AperFunction,ComponentPad*
%ADD11R,1.700000X1.700000*%
G04 #@! TD*
G04 #@! TA.AperFunction,ComponentPad*
%ADD12C,3.000000*%
G04 #@! TD*
G04 #@! TA.AperFunction,ComponentPad*
%ADD13C,1.192000*%
G04 #@! TD*
G04 #@! TA.AperFunction,ViaPad*
%ADD14C,0.381000*%
G04 #@! TD*
G04 #@! TA.AperFunction,ViaPad*
%ADD15C,0.254000*%
G04 #@! TD*
G04 APERTURE END LIST*
D10*
X131572000Y-70866000D03*
D11*
X134112000Y-70866000D03*
D10*
X136652000Y-70866000D03*
X139192000Y-70866000D03*
X141732000Y-70866000D03*
X144272000Y-70866000D03*
X146812000Y-70866000D03*
X149352000Y-70866000D03*
X151892000Y-70866000D03*
X154432000Y-70866000D03*
X131572000Y-85090000D03*
X134112000Y-85090000D03*
X136652000Y-85090000D03*
X139192000Y-85090000D03*
X141732000Y-85090000D03*
X144272000Y-85090000D03*
X146812000Y-85090000D03*
X149352000Y-85090000D03*
X151892000Y-85090000D03*
D11*
X154432000Y-85090000D03*
D12*
X132842000Y-74676000D03*
X156438600Y-81280000D03*
X156438600Y-74676000D03*
X132842000Y-81280000D03*
D13*
X144272000Y-78994000D03*
X144272000Y-76994000D03*
X143272000Y-77994000D03*
D14*
X135356600Y-75311000D03*
X141147800Y-73939400D03*
X142570200Y-81356200D03*
X151866600Y-74879200D03*
X156489400Y-85217000D03*
X146380200Y-74650600D03*
X135382000Y-78232000D03*
D15*
X151257000Y-80645000D03*
D14*
X156514800Y-79121000D03*
D15*
X150749000Y-81153000D03*
D14*
X156489400Y-84505800D03*
X157200600Y-78155800D03*
D15*
X154863800Y-83235800D03*
X147329800Y-80152600D03*
X136118600Y-80949800D03*
X137160000Y-78994000D03*
X140970000Y-82677000D03*
X135890000Y-82804000D03*
X135890000Y-82296000D03*
X138861800Y-81356200D03*
X134366000Y-79121000D03*
X138074400Y-78994000D03*
X150825200Y-73126600D03*
X151536400Y-77851000D03*
D14*
X154940000Y-79857600D03*
X151015700Y-73875900D03*
X146812000Y-72390000D03*
D15*
X149707600Y-73787000D03*
X150241000Y-80137000D03*
X150241000Y-81153000D03*
X151765000Y-81153000D03*
X146685000Y-80746600D03*
X147904200Y-82677000D03*
X131445000Y-79121000D03*
X137998200Y-81356200D03*
X132842000Y-79121000D03*
X138430000Y-81356200D03*
G04 #@! TA.AperFunction,Conductor*
G36*
X160115621Y-69208502D02*
G01*
X160162114Y-69262158D01*
X160173500Y-69314500D01*
X160173500Y-86641500D01*
X160153498Y-86709621D01*
X160099842Y-86756114D01*
X160047500Y-86767500D01*
X130020500Y-86767500D01*
X129952379Y-86747498D01*
X129905886Y-86693842D01*
X129894500Y-86641500D01*
X129894500Y-85076665D01*
X130616994Y-85076665D01*
X130632592Y-85262414D01*
X130634291Y-85268339D01*
X130661181Y-85362115D01*
X130683971Y-85441595D01*
X130769176Y-85607385D01*
X130884959Y-85753468D01*
X131026912Y-85874279D01*
X131189627Y-85965217D01*
X131366907Y-86022819D01*
X131551998Y-86044890D01*
X131558133Y-86044418D01*
X131558135Y-86044418D01*
X131731710Y-86031062D01*
X131731715Y-86031061D01*
X131737851Y-86030589D01*
X131743781Y-86028933D01*
X131743783Y-86028933D01*
X131911459Y-85982117D01*
X131911458Y-85982117D01*
X131917387Y-85980462D01*
X132083768Y-85896417D01*
X132108255Y-85877286D01*
X132225794Y-85785454D01*
X132225795Y-85785453D01*
X132230655Y-85781656D01*
X132352454Y-85640550D01*
X132444526Y-85478474D01*
X132503364Y-85301601D01*
X132510585Y-85244443D01*
X132526285Y-85120170D01*
X132526286Y-85120163D01*
X132526727Y-85116668D01*
X132527099Y-85090000D01*
X132525791Y-85076665D01*
X133156994Y-85076665D01*
X133172592Y-85262414D01*
X133174291Y-85268339D01*
X133201181Y-85362115D01*
X133223971Y-85441595D01*
X133309176Y-85607385D01*
X133424959Y-85753468D01*
X133566912Y-85874279D01*
X133729627Y-85965217D01*
X133906907Y-86022819D01*
X134091998Y-86044890D01*
X134098133Y-86044418D01*
X134098135Y-86044418D01*
X134271710Y-86031062D01*
X134271715Y-86031061D01*
X134277851Y-86030589D01*
X134283781Y-86028933D01*
X134283783Y-86028933D01*
X134451459Y-85982117D01*
X134451458Y-85982117D01*
X134457387Y-85980462D01*
X134623768Y-85896417D01*
X134648255Y-85877286D01*
X134765794Y-85785454D01*
X134765795Y-85785453D01*
X134770655Y-85781656D01*
X134892454Y-85640550D01*
X134984526Y-85478474D01*
X135043364Y-85301601D01*
X135050585Y-85244443D01*
X135066285Y-85120170D01*
X135066286Y-85120163D01*
X135066727Y-85116668D01*
X135067099Y-85090000D01*
X135065791Y-85076665D01*
X135696994Y-85076665D01*
X135712592Y-85262414D01*
X135714291Y-85268339D01*
X135741181Y-85362115D01*
X135763971Y-85441595D01*
X135849176Y-85607385D01*
X135964959Y-85753468D01*
X136106912Y-85874279D01*
X136269627Y-85965217D01*
X136446907Y-86022819D01*
X136631998Y-86044890D01*
X136638133Y-86044418D01*
X136638135Y-86044418D01*
X136811710Y-86031062D01*
X136811715Y-86031061D01*
X136817851Y-86030589D01*
X136823781Y-86028933D01*
X136823783Y-86028933D01*
X136991459Y-85982117D01*
X136991458Y-85982117D01*
X136997387Y-85980462D01*
X137163768Y-85896417D01*
X137188255Y-85877286D01*
X137305794Y-85785454D01*
X137305795Y-85785453D01*
X137310655Y-85781656D01*
X137432454Y-85640550D01*
X137524526Y-85478474D01*
X137583364Y-85301601D01*
X137590585Y-85244443D01*
X137606285Y-85120170D01*
X137606286Y-85120163D01*
X137606727Y-85116668D01*
X137607099Y-85090000D01*
X137605791Y-85076665D01*
X138236994Y-85076665D01*
X138252592Y-85262414D01*
X138254291Y-85268339D01*
X138281181Y-85362115D01*
X138303971Y-85441595D01*
X138389176Y-85607385D01*
X138504959Y-85753468D01*
X138646912Y-85874279D01*
X138809627Y-85965217D01*
X138986907Y-86022819D01*
X139171998Y-86044890D01*
X139178133Y-86044418D01*
X139178135Y-86044418D01*
X139351710Y-86031062D01*
X139351715Y-86031061D01*
X139357851Y-86030589D01*
X139363781Y-86028933D01*
X139363783Y-86028933D01*
X139531459Y-85982117D01*
X139531458Y-85982117D01*
X139537387Y-85980462D01*
X139703768Y-85896417D01*
X139728255Y-85877286D01*
X139845794Y-85785454D01*
X139845795Y-85785453D01*
X139850655Y-85781656D01*
X139972454Y-85640550D01*
X140064526Y-85478474D01*
X140123364Y-85301601D01*
X140130585Y-85244443D01*
X140146285Y-85120170D01*
X140146286Y-85120163D01*
X140146727Y-85116668D01*
X140147099Y-85090000D01*
X140145791Y-85076665D01*
X140776994Y-85076665D01*
X140792592Y-85262414D01*
X140794291Y-85268339D01*
X140821181Y-85362115D01*
X140843971Y-85441595D01*
X140929176Y-85607385D01*
X141044959Y-85753468D01*
X141186912Y-85874279D01*
X141349627Y-85965217D01*
X141526907Y-86022819D01*
X141711998Y-86044890D01*
X141718133Y-86044418D01*
X141718135Y-86044418D01*
X141891710Y-86031062D01*
X141891715Y-86031061D01*
X141897851Y-86030589D01*
X141903781Y-86028933D01*
X141903783Y-86028933D01*
X142071459Y-85982117D01*
X142071458Y-85982117D01*
X142077387Y-85980462D01*
X142243768Y-85896417D01*
X142268255Y-85877286D01*
X142385794Y-85785454D01*
X142385795Y-85785453D01*
X142390655Y-85781656D01*
X142512454Y-85640550D01*
X142604526Y-85478474D01*
X142663364Y-85301601D01*
X142670585Y-85244443D01*
X142686285Y-85120170D01*
X142686286Y-85120163D01*
X142686727Y-85116668D01*
X142687099Y-85090000D01*
X142685791Y-85076665D01*
X143316994Y-85076665D01*
X143332592Y-85262414D01*
X143334291Y-85268339D01*
X143361181Y-85362115D01*
X143383971Y-85441595D01*
X143469176Y-85607385D01*
X143584959Y-85753468D01*
X143726912Y-85874279D01*
X143889627Y-85965217D01*
X144066907Y-86022819D01*
X144251998Y-86044890D01*
X144258133Y-86044418D01*
X144258135Y-86044418D01*
X144431710Y-86031062D01*
X144431715Y-86031061D01*
X144437851Y-86030589D01*
X144443781Y-86028933D01*
X144443783Y-86028933D01*
X144611459Y-85982117D01*
X144611458Y-85982117D01*
X144617387Y-85980462D01*
X144783768Y-85896417D01*
X144808255Y-85877286D01*
X144925794Y-85785454D01*
X144925795Y-85785453D01*
X144930655Y-85781656D01*
X145052454Y-85640550D01*
X145144526Y-85478474D01*
X145203364Y-85301601D01*
X145210585Y-85244443D01*
X145226285Y-85120170D01*
X145226286Y-85120163D01*
X145226727Y-85116668D01*
X145227099Y-85090000D01*
X145225791Y-85076665D01*
X145856994Y-85076665D01*
X145872592Y-85262414D01*
X145874291Y-85268339D01*
X145901181Y-85362115D01*
X145923971Y-85441595D01*
X146009176Y-85607385D01*
X146124959Y-85753468D01*
X146266912Y-85874279D01*
X146429627Y-85965217D01*
X146606907Y-86022819D01*
X146791998Y-86044890D01*
X146798133Y-86044418D01*
X146798135Y-86044418D01*
X146971710Y-86031062D01*
X146971715Y-86031061D01*
X146977851Y-86030589D01*
X146983781Y-86028933D01*
X146983783Y-86028933D01*
X147151459Y-85982117D01*
X147151458Y-85982117D01*
X147157387Y-85980462D01*
X147323768Y-85896417D01*
X147348255Y-85877286D01*
X147465794Y-85785454D01*
X147465795Y-85785453D01*
X147470655Y-85781656D01*
X147592454Y-85640550D01*
X147684526Y-85478474D01*
X147743364Y-85301601D01*
X147750585Y-85244443D01*
X147766285Y-85120170D01*
X147766286Y-85120163D01*
X147766727Y-85116668D01*
X147767099Y-85090000D01*
X147765791Y-85076665D01*
X148396994Y-85076665D01*
X148412592Y-85262414D01*
X148414291Y-85268339D01*
X148441181Y-85362115D01*
X148463971Y-85441595D01*
X148549176Y-85607385D01*
X148664959Y-85753468D01*
X148806912Y-85874279D01*
X148969627Y-85965217D01*
X149146907Y-86022819D01*
X149331998Y-86044890D01*
X149338133Y-86044418D01*
X149338135Y-86044418D01*
X149511710Y-86031062D01*
X149511715Y-86031061D01*
X149517851Y-86030589D01*
X149523781Y-86028933D01*
X149523783Y-86028933D01*
X149691459Y-85982117D01*
X149691458Y-85982117D01*
X149697387Y-85980462D01*
X149863768Y-85896417D01*
X149888255Y-85877286D01*
X150005794Y-85785454D01*
X150005795Y-85785453D01*
X150010655Y-85781656D01*
X150132454Y-85640550D01*
X150224526Y-85478474D01*
X150283364Y-85301601D01*
X150290585Y-85244443D01*
X150306285Y-85120170D01*
X150306286Y-85120163D01*
X150306727Y-85116668D01*
X150307099Y-85090000D01*
X150305791Y-85076665D01*
X150936994Y-85076665D01*
X150952592Y-85262414D01*
X150954291Y-85268339D01*
X150981181Y-85362115D01*
X151003971Y-85441595D01*
X151089176Y-85607385D01*
X151204959Y-85753468D01*
X151346912Y-85874279D01*
X151509627Y-85965217D01*
X151686907Y-86022819D01*
X151871998Y-86044890D01*
X151878133Y-86044418D01*
X151878135Y-86044418D01*
X152051710Y-86031062D01*
X152051715Y-86031061D01*
X152057851Y-86030589D01*
X152063781Y-86028933D01*
X152063783Y-86028933D01*
X152231459Y-85982117D01*
X152231458Y-85982117D01*
X152237387Y-85980462D01*
X152403768Y-85896417D01*
X152428255Y-85877286D01*
X152545794Y-85785454D01*
X152545795Y-85785453D01*
X152550655Y-85781656D01*
X152672454Y-85640550D01*
X152764526Y-85478474D01*
X152823364Y-85301601D01*
X152824136Y-85295489D01*
X152825133Y-85291102D01*
X152859730Y-85229106D01*
X152922353Y-85195657D01*
X152993120Y-85201374D01*
X153049561Y-85244443D01*
X153073757Y-85311189D01*
X153074001Y-85319019D01*
X153074001Y-85984669D01*
X153074371Y-85991490D01*
X153079895Y-86042352D01*
X153083521Y-86057604D01*
X153128676Y-86178054D01*
X153137214Y-86193649D01*
X153213715Y-86295724D01*
X153226276Y-86308285D01*
X153328351Y-86384786D01*
X153343946Y-86393324D01*
X153464394Y-86438478D01*
X153479649Y-86442105D01*
X153530514Y-86447631D01*
X153537328Y-86448000D01*
X154159885Y-86448000D01*
X154175124Y-86443525D01*
X154176329Y-86442135D01*
X154178000Y-86434452D01*
X154178000Y-86429884D01*
X154686000Y-86429884D01*
X154690475Y-86445123D01*
X154691865Y-86446328D01*
X154699548Y-86447999D01*
X155326669Y-86447999D01*
X155333490Y-86447629D01*
X155384352Y-86442105D01*
X155399604Y-86438479D01*
X155520054Y-86393324D01*
X155535649Y-86384786D01*
X155637724Y-86308285D01*
X155650285Y-86295724D01*
X155726786Y-86193649D01*
X155735324Y-86178054D01*
X155780478Y-86057606D01*
X155784105Y-86042351D01*
X155789631Y-85991486D01*
X155790000Y-85984672D01*
X155790000Y-85362115D01*
X155785525Y-85346876D01*
X155784135Y-85345671D01*
X155776452Y-85344000D01*
X154704115Y-85344000D01*
X154688876Y-85348475D01*
X154687671Y-85349865D01*
X154686000Y-85357548D01*
X154686000Y-86429884D01*
X154178000Y-86429884D01*
X154178000Y-83750116D01*
X154173525Y-83734877D01*
X154172135Y-83733672D01*
X154164452Y-83732001D01*
X153537331Y-83732001D01*
X153530510Y-83732371D01*
X153479648Y-83737895D01*
X153464396Y-83741521D01*
X153343946Y-83786676D01*
X153328351Y-83795214D01*
X153226276Y-83871715D01*
X153213715Y-83884276D01*
X153137214Y-83986351D01*
X153128676Y-84001946D01*
X153083522Y-84122394D01*
X153079895Y-84137649D01*
X153074369Y-84188514D01*
X153074000Y-84195328D01*
X153074000Y-84862999D01*
X153053998Y-84931120D01*
X153000342Y-84977613D01*
X152930068Y-84987717D01*
X152865488Y-84958223D01*
X152827378Y-84899417D01*
X152806881Y-84831525D01*
X152775033Y-84726040D01*
X152731277Y-84643748D01*
X152690416Y-84566898D01*
X152690414Y-84566895D01*
X152687522Y-84561456D01*
X152683632Y-84556686D01*
X152683629Y-84556682D01*
X152573605Y-84421780D01*
X152573602Y-84421777D01*
X152569710Y-84417005D01*
X152564056Y-84412327D01*
X152454496Y-84321691D01*
X152426085Y-84298187D01*
X152262116Y-84209529D01*
X152173082Y-84181969D01*
X152089936Y-84156231D01*
X152089933Y-84156230D01*
X152084049Y-84154409D01*
X152077924Y-84153765D01*
X152077923Y-84153765D01*
X151904796Y-84135568D01*
X151904795Y-84135568D01*
X151898668Y-84134924D01*
X151820549Y-84142033D01*
X151719171Y-84151259D01*
X151719168Y-84151260D01*
X151713032Y-84151818D01*
X151707122Y-84153557D01*
X151707119Y-84153558D01*
X151565190Y-84195331D01*
X151534214Y-84204448D01*
X151369023Y-84290807D01*
X151223752Y-84407608D01*
X151103935Y-84550401D01*
X151100971Y-84555793D01*
X151100968Y-84555797D01*
X151027238Y-84689912D01*
X151014135Y-84713746D01*
X151012274Y-84719613D01*
X151012273Y-84719615D01*
X150966789Y-84862999D01*
X150957772Y-84891424D01*
X150936994Y-85076665D01*
X150305791Y-85076665D01*
X150288909Y-84904487D01*
X150287128Y-84898588D01*
X150287127Y-84898583D01*
X150236814Y-84731939D01*
X150235033Y-84726040D01*
X150191277Y-84643748D01*
X150150416Y-84566898D01*
X150150414Y-84566895D01*
X150147522Y-84561456D01*
X150143632Y-84556686D01*
X150143629Y-84556682D01*
X150033605Y-84421780D01*
X150033602Y-84421777D01*
X150029710Y-84417005D01*
X150024056Y-84412327D01*
X149914496Y-84321691D01*
X149886085Y-84298187D01*
X149722116Y-84209529D01*
X149633082Y-84181969D01*
X149549936Y-84156231D01*
X149549933Y-84156230D01*
X149544049Y-84154409D01*
X149537924Y-84153765D01*
X149537923Y-84153765D01*
X149364796Y-84135568D01*
X149364795Y-84135568D01*
X149358668Y-84134924D01*
X149280549Y-84142033D01*
X149179171Y-84151259D01*
X149179168Y-84151260D01*
X149173032Y-84151818D01*
X149167122Y-84153557D01*
X149167119Y-84153558D01*
X149025190Y-84195331D01*
X148994214Y-84204448D01*
X148829023Y-84290807D01*
X148683752Y-84407608D01*
X148563935Y-84550401D01*
X148560971Y-84555793D01*
X148560968Y-84555797D01*
X148487238Y-84689912D01*
X148474135Y-84713746D01*
X148472274Y-84719613D01*
X148472273Y-84719615D01*
X148426789Y-84862999D01*
X148417772Y-84891424D01*
X148396994Y-85076665D01*
X147765791Y-85076665D01*
X147748909Y-84904487D01*
X147747128Y-84898588D01*
X147747127Y-84898583D01*
X147696814Y-84731939D01*
X147695033Y-84726040D01*
X147651277Y-84643748D01*
X147610416Y-84566898D01*
X147610414Y-84566895D01*
X147607522Y-84561456D01*
X147603632Y-84556686D01*
X147603629Y-84556682D01*
X147493605Y-84421780D01*
X147493602Y-84421777D01*
X147489710Y-84417005D01*
X147484056Y-84412327D01*
X147374496Y-84321691D01*
X147346085Y-84298187D01*
X147182116Y-84209529D01*
X147093082Y-84181969D01*
X147009936Y-84156231D01*
X147009933Y-84156230D01*
X147004049Y-84154409D01*
X146997924Y-84153765D01*
X146997923Y-84153765D01*
X146824796Y-84135568D01*
X146824795Y-84135568D01*
X146818668Y-84134924D01*
X146740549Y-84142033D01*
X146639171Y-84151259D01*
X146639168Y-84151260D01*
X146633032Y-84151818D01*
X146627122Y-84153557D01*
X146627119Y-84153558D01*
X146485190Y-84195331D01*
X146454214Y-84204448D01*
X146289023Y-84290807D01*
X146143752Y-84407608D01*
X146023935Y-84550401D01*
X146020971Y-84555793D01*
X146020968Y-84555797D01*
X145947238Y-84689912D01*
X145934135Y-84713746D01*
X145932274Y-84719613D01*
X145932273Y-84719615D01*
X145886789Y-84862999D01*
X145877772Y-84891424D01*
X145856994Y-85076665D01*
X145225791Y-85076665D01*
X145208909Y-84904487D01*
X145207128Y-84898588D01*
X145207127Y-84898583D01*
X145156814Y-84731939D01*
X145155033Y-84726040D01*
X145111277Y-84643748D01*
X145070416Y-84566898D01*
X145070414Y-84566895D01*
X145067522Y-84561456D01*
X145063632Y-84556686D01*
X145063629Y-84556682D01*
X144953605Y-84421780D01*
X144953602Y-84421777D01*
X144949710Y-84417005D01*
X144944056Y-84412327D01*
X144834496Y-84321691D01*
X144806085Y-84298187D01*
X144642116Y-84209529D01*
X144553082Y-84181969D01*
X144469936Y-84156231D01*
X144469933Y-84156230D01*
X144464049Y-84154409D01*
X144457924Y-84153765D01*
X144457923Y-84153765D01*
X144284796Y-84135568D01*
X144284795Y-84135568D01*
X144278668Y-84134924D01*
X144200549Y-84142033D01*
X144099171Y-84151259D01*
X144099168Y-84151260D01*
X144093032Y-84151818D01*
X144087122Y-84153557D01*
X144087119Y-84153558D01*
X143945190Y-84195331D01*
X143914214Y-84204448D01*
X143749023Y-84290807D01*
X143603752Y-84407608D01*
X143483935Y-84550401D01*
X143480971Y-84555793D01*
X143480968Y-84555797D01*
X143407238Y-84689912D01*
X143394135Y-84713746D01*
X143392274Y-84719613D01*
X143392273Y-84719615D01*
X143346789Y-84862999D01*
X143337772Y-84891424D01*
X143316994Y-85076665D01*
X142685791Y-85076665D01*
X142668909Y-84904487D01*
X142667128Y-84898588D01*
X142667127Y-84898583D01*
X142616814Y-84731939D01*
X142615033Y-84726040D01*
X142571277Y-84643748D01*
X142530416Y-84566898D01*
X142530414Y-84566895D01*
X142527522Y-84561456D01*
X142523632Y-84556686D01*
X142523629Y-84556682D01*
X142413605Y-84421780D01*
X142413602Y-84421777D01*
X142409710Y-84417005D01*
X142404056Y-84412327D01*
X142294496Y-84321691D01*
X142266085Y-84298187D01*
X142102116Y-84209529D01*
X142013082Y-84181969D01*
X141929936Y-84156231D01*
X141929933Y-84156230D01*
X141924049Y-84154409D01*
X141917924Y-84153765D01*
X141917923Y-84153765D01*
X141744796Y-84135568D01*
X141744795Y-84135568D01*
X141738668Y-84134924D01*
X141660549Y-84142033D01*
X141559171Y-84151259D01*
X141559168Y-84151260D01*
X141553032Y-84151818D01*
X141547122Y-84153557D01*
X141547119Y-84153558D01*
X141405190Y-84195331D01*
X141374214Y-84204448D01*
X141209023Y-84290807D01*
X141063752Y-84407608D01*
X140943935Y-84550401D01*
X140940971Y-84555793D01*
X140940968Y-84555797D01*
X140867238Y-84689912D01*
X140854135Y-84713746D01*
X140852274Y-84719613D01*
X140852273Y-84719615D01*
X140806789Y-84862999D01*
X140797772Y-84891424D01*
X140776994Y-85076665D01*
X140145791Y-85076665D01*
X140128909Y-84904487D01*
X140127128Y-84898588D01*
X140127127Y-84898583D01*
X140076814Y-84731939D01*
X140075033Y-84726040D01*
X140031277Y-84643748D01*
X139990416Y-84566898D01*
X139990414Y-84566895D01*
X139987522Y-84561456D01*
X139983632Y-84556686D01*
X139983629Y-84556682D01*
X139873605Y-84421780D01*
X139873602Y-84421777D01*
X139869710Y-84417005D01*
X139864056Y-84412327D01*
X139754496Y-84321691D01*
X139726085Y-84298187D01*
X139562116Y-84209529D01*
X139473082Y-84181969D01*
X139389936Y-84156231D01*
X139389933Y-84156230D01*
X139384049Y-84154409D01*
X139377924Y-84153765D01*
X139377923Y-84153765D01*
X139204796Y-84135568D01*
X139204795Y-84135568D01*
X139198668Y-84134924D01*
X139120549Y-84142033D01*
X139019171Y-84151259D01*
X139019168Y-84151260D01*
X139013032Y-84151818D01*
X139007122Y-84153557D01*
X139007119Y-84153558D01*
X138865190Y-84195331D01*
X138834214Y-84204448D01*
X138669023Y-84290807D01*
X138523752Y-84407608D01*
X138403935Y-84550401D01*
X138400971Y-84555793D01*
X138400968Y-84555797D01*
X138327238Y-84689912D01*
X138314135Y-84713746D01*
X138312274Y-84719613D01*
X138312273Y-84719615D01*
X138266789Y-84862999D01*
X138257772Y-84891424D01*
X138236994Y-85076665D01*
X137605791Y-85076665D01*
X137588909Y-84904487D01*
X137587128Y-84898588D01*
X137587127Y-84898583D01*
X137536814Y-84731939D01*
X137535033Y-84726040D01*
X137491277Y-84643748D01*
X137450416Y-84566898D01*
X137450414Y-84566895D01*
X137447522Y-84561456D01*
X137443632Y-84556686D01*
X137443629Y-84556682D01*
X137333605Y-84421780D01*
X137333602Y-84421777D01*
X137329710Y-84417005D01*
X137324056Y-84412327D01*
X137214496Y-84321691D01*
X137186085Y-84298187D01*
X137022116Y-84209529D01*
X136933082Y-84181969D01*
X136849936Y-84156231D01*
X136849933Y-84156230D01*
X136844049Y-84154409D01*
X136837924Y-84153765D01*
X136837923Y-84153765D01*
X136664796Y-84135568D01*
X136664795Y-84135568D01*
X136658668Y-84134924D01*
X136580549Y-84142033D01*
X136479171Y-84151259D01*
X136479168Y-84151260D01*
X136473032Y-84151818D01*
X136467122Y-84153557D01*
X136467119Y-84153558D01*
X136325190Y-84195331D01*
X136294214Y-84204448D01*
X136129023Y-84290807D01*
X135983752Y-84407608D01*
X135863935Y-84550401D01*
X135860971Y-84555793D01*
X135860968Y-84555797D01*
X135787238Y-84689912D01*
X135774135Y-84713746D01*
X135772274Y-84719613D01*
X135772273Y-84719615D01*
X135726789Y-84862999D01*
X135717772Y-84891424D01*
X135696994Y-85076665D01*
X135065791Y-85076665D01*
X135048909Y-84904487D01*
X135047128Y-84898588D01*
X135047127Y-84898583D01*
X134996814Y-84731939D01*
X134995033Y-84726040D01*
X134951277Y-84643748D01*
X134910416Y-84566898D01*
X134910414Y-84566895D01*
X134907522Y-84561456D01*
X134903632Y-84556686D01*
X134903629Y-84556682D01*
X134793605Y-84421780D01*
X134793602Y-84421777D01*
X134789710Y-84417005D01*
X134784056Y-84412327D01*
X134674496Y-84321691D01*
X134646085Y-84298187D01*
X134482116Y-84209529D01*
X134393082Y-84181969D01*
X134309936Y-84156231D01*
X134309933Y-84156230D01*
X134304049Y-84154409D01*
X134297924Y-84153765D01*
X134297923Y-84153765D01*
X134124796Y-84135568D01*
X134124795Y-84135568D01*
X134118668Y-84134924D01*
X134040549Y-84142033D01*
X133939171Y-84151259D01*
X133939168Y-84151260D01*
X133933032Y-84151818D01*
X133927122Y-84153557D01*
X133927119Y-84153558D01*
X133785190Y-84195331D01*
X133754214Y-84204448D01*
X133589023Y-84290807D01*
X133443752Y-84407608D01*
X133323935Y-84550401D01*
X133320971Y-84555793D01*
X133320968Y-84555797D01*
X133247238Y-84689912D01*
X133234135Y-84713746D01*
X133232274Y-84719613D01*
X133232273Y-84719615D01*
X133186789Y-84862999D01*
X133177772Y-84891424D01*
X133156994Y-85076665D01*
X132525791Y-85076665D01*
X132508909Y-84904487D01*
X132507128Y-84898588D01*
X132507127Y-84898583D01*
X132456814Y-84731939D01*
X132455033Y-84726040D01*
X132411277Y-84643748D01*
X132370416Y-84566898D01*
X132370414Y-84566895D01*
X132367522Y-84561456D01*
X132363632Y-84556686D01*
X132363629Y-84556682D01*
X132253605Y-84421780D01*
X132253602Y-84421777D01*
X132249710Y-84417005D01*
X132244056Y-84412327D01*
X132134496Y-84321691D01*
X132106085Y-84298187D01*
X131942116Y-84209529D01*
X131853082Y-84181969D01*
X131769936Y-84156231D01*
X131769933Y-84156230D01*
X131764049Y-84154409D01*
X131757924Y-84153765D01*
X131757923Y-84153765D01*
X131584796Y-84135568D01*
X131584795Y-84135568D01*
X131578668Y-84134924D01*
X131500549Y-84142033D01*
X131399171Y-84151259D01*
X131399168Y-84151260D01*
X131393032Y-84151818D01*
X131387122Y-84153557D01*
X131387119Y-84153558D01*
X131245190Y-84195331D01*
X131214214Y-84204448D01*
X131049023Y-84290807D01*
X130903752Y-84407608D01*
X130783935Y-84550401D01*
X130780971Y-84555793D01*
X130780968Y-84555797D01*
X130707238Y-84689912D01*
X130694135Y-84713746D01*
X130692274Y-84719613D01*
X130692273Y-84719615D01*
X130646789Y-84862999D01*
X130637772Y-84891424D01*
X130616994Y-85076665D01*
X129894500Y-85076665D01*
X129894500Y-83235800D01*
X154587185Y-83235800D01*
X154608241Y-83341656D01*
X154668204Y-83431396D01*
X154757944Y-83491359D01*
X154763591Y-83492482D01*
X154815284Y-83534139D01*
X154837705Y-83601502D01*
X154820147Y-83670294D01*
X154768185Y-83718672D01*
X154711785Y-83732000D01*
X154704115Y-83732000D01*
X154688876Y-83736475D01*
X154687671Y-83737865D01*
X154686000Y-83745548D01*
X154686000Y-84817885D01*
X154690475Y-84833124D01*
X154691865Y-84834329D01*
X154699548Y-84836000D01*
X155771884Y-84836000D01*
X155787123Y-84831525D01*
X155788328Y-84830135D01*
X155789999Y-84822452D01*
X155789999Y-84505800D01*
X156188123Y-84505800D01*
X156206292Y-84608843D01*
X156258608Y-84699457D01*
X156267049Y-84706540D01*
X156267050Y-84706541D01*
X156290288Y-84726040D01*
X156338761Y-84766714D01*
X156349113Y-84770482D01*
X156349115Y-84770483D01*
X156426728Y-84798731D01*
X156426729Y-84798731D01*
X156437084Y-84802500D01*
X156541716Y-84802500D01*
X156552071Y-84798731D01*
X156552072Y-84798731D01*
X156629685Y-84770483D01*
X156629687Y-84770482D01*
X156640039Y-84766714D01*
X156688512Y-84726040D01*
X156711750Y-84706541D01*
X156711751Y-84706540D01*
X156720192Y-84699457D01*
X156772508Y-84608843D01*
X156790677Y-84505800D01*
X156772508Y-84402757D01*
X156720192Y-84312143D01*
X156711748Y-84305057D01*
X156648481Y-84251970D01*
X156640039Y-84244886D01*
X156629687Y-84241118D01*
X156629685Y-84241117D01*
X156552072Y-84212869D01*
X156552071Y-84212869D01*
X156541716Y-84209100D01*
X156437084Y-84209100D01*
X156338762Y-84244886D01*
X156258608Y-84312143D01*
X156206292Y-84402757D01*
X156188123Y-84505800D01*
X155789999Y-84505800D01*
X155789999Y-84195331D01*
X155789629Y-84188510D01*
X155784105Y-84137648D01*
X155780479Y-84122396D01*
X155735324Y-84001946D01*
X155726786Y-83986351D01*
X155650285Y-83884276D01*
X155637724Y-83871715D01*
X155535649Y-83795214D01*
X155520054Y-83786676D01*
X155399606Y-83741522D01*
X155384351Y-83737895D01*
X155333486Y-83732369D01*
X155326672Y-83732000D01*
X155015815Y-83732000D01*
X154947694Y-83711998D01*
X154901201Y-83658342D01*
X154891097Y-83588068D01*
X154920591Y-83523488D01*
X154963427Y-83492598D01*
X154969656Y-83491359D01*
X155059396Y-83431396D01*
X155119359Y-83341656D01*
X155140415Y-83235800D01*
X155119359Y-83129944D01*
X155059396Y-83040204D01*
X154969656Y-82980241D01*
X154863800Y-82959185D01*
X154757944Y-82980241D01*
X154668204Y-83040204D01*
X154608241Y-83129944D01*
X154587185Y-83235800D01*
X129894500Y-83235800D01*
X129894500Y-81280000D01*
X131236551Y-81280000D01*
X131256317Y-81531148D01*
X131257471Y-81535955D01*
X131257472Y-81535961D01*
X131280725Y-81632815D01*
X131315127Y-81776111D01*
X131411534Y-82008859D01*
X131543164Y-82223659D01*
X131546376Y-82227419D01*
X131546379Y-82227424D01*
X131594554Y-82283829D01*
X131706776Y-82415224D01*
X131710538Y-82418437D01*
X131894576Y-82575621D01*
X131894581Y-82575624D01*
X131898341Y-82578836D01*
X132113141Y-82710466D01*
X132117711Y-82712359D01*
X132117715Y-82712361D01*
X132341316Y-82804979D01*
X132345889Y-82806873D01*
X132430289Y-82827135D01*
X132586039Y-82864528D01*
X132586045Y-82864529D01*
X132590852Y-82865683D01*
X132842000Y-82885449D01*
X133093148Y-82865683D01*
X133097955Y-82864529D01*
X133097961Y-82864528D01*
X133253711Y-82827135D01*
X133338111Y-82806873D01*
X133342684Y-82804979D01*
X133345048Y-82804000D01*
X135613385Y-82804000D01*
X135634441Y-82909856D01*
X135641336Y-82920175D01*
X135662062Y-82951194D01*
X135694404Y-82999596D01*
X135784144Y-83059559D01*
X135890000Y-83080615D01*
X135995856Y-83059559D01*
X136085596Y-82999596D01*
X136117938Y-82951194D01*
X136138664Y-82920175D01*
X136145559Y-82909856D01*
X136166615Y-82804000D01*
X136145559Y-82698144D01*
X136131431Y-82677000D01*
X140693385Y-82677000D01*
X140714441Y-82782856D01*
X140774404Y-82872596D01*
X140864144Y-82932559D01*
X140970000Y-82953615D01*
X141075856Y-82932559D01*
X141165596Y-82872596D01*
X141225559Y-82782856D01*
X141246615Y-82677000D01*
X147627585Y-82677000D01*
X147648641Y-82782856D01*
X147708604Y-82872596D01*
X147798344Y-82932559D01*
X147904200Y-82953615D01*
X148010056Y-82932559D01*
X148099796Y-82872596D01*
X148159759Y-82782856D01*
X148180815Y-82677000D01*
X148159759Y-82571144D01*
X148099796Y-82481404D01*
X148010056Y-82421441D01*
X147904200Y-82400385D01*
X147798344Y-82421441D01*
X147708604Y-82481404D01*
X147648641Y-82571144D01*
X147627585Y-82677000D01*
X141246615Y-82677000D01*
X141225559Y-82571144D01*
X141165596Y-82481404D01*
X141075856Y-82421441D01*
X140970000Y-82400385D01*
X140864144Y-82421441D01*
X140774404Y-82481404D01*
X140714441Y-82571144D01*
X140693385Y-82677000D01*
X136131431Y-82677000D01*
X136093346Y-82620002D01*
X136072131Y-82552249D01*
X136093346Y-82479998D01*
X136138664Y-82412175D01*
X136145559Y-82401856D01*
X136166615Y-82296000D01*
X136145559Y-82190144D01*
X136085596Y-82100404D01*
X135995856Y-82040441D01*
X135890000Y-82019385D01*
X135784144Y-82040441D01*
X135694404Y-82100404D01*
X135634441Y-82190144D01*
X135613385Y-82296000D01*
X135634441Y-82401856D01*
X135641336Y-82412175D01*
X135686654Y-82479998D01*
X135707869Y-82547751D01*
X135686654Y-82620002D01*
X135648569Y-82677000D01*
X135634441Y-82698144D01*
X135613385Y-82804000D01*
X133345048Y-82804000D01*
X133566285Y-82712361D01*
X133566289Y-82712359D01*
X133570859Y-82710466D01*
X133785659Y-82578836D01*
X133789419Y-82575624D01*
X133789424Y-82575621D01*
X133973462Y-82418437D01*
X133977224Y-82415224D01*
X134089446Y-82283829D01*
X134137621Y-82227424D01*
X134137624Y-82227419D01*
X134140836Y-82223659D01*
X134272466Y-82008859D01*
X134368873Y-81776111D01*
X134403275Y-81632815D01*
X134426528Y-81535961D01*
X134426529Y-81535955D01*
X134427683Y-81531148D01*
X134441452Y-81356200D01*
X137721585Y-81356200D01*
X137742641Y-81462056D01*
X137802604Y-81551796D01*
X137892344Y-81611759D01*
X137998200Y-81632815D01*
X138104056Y-81611759D01*
X138114374Y-81604865D01*
X138114378Y-81604863D01*
X138144099Y-81585004D01*
X138211851Y-81563789D01*
X138284101Y-81585004D01*
X138313822Y-81604863D01*
X138313826Y-81604865D01*
X138324144Y-81611759D01*
X138430000Y-81632815D01*
X138535856Y-81611759D01*
X138546174Y-81604865D01*
X138546178Y-81604863D01*
X138575899Y-81585004D01*
X138643651Y-81563789D01*
X138715901Y-81585004D01*
X138745622Y-81604863D01*
X138745626Y-81604865D01*
X138755944Y-81611759D01*
X138861800Y-81632815D01*
X138967656Y-81611759D01*
X139057396Y-81551796D01*
X139117359Y-81462056D01*
X139138415Y-81356200D01*
X139117359Y-81250344D01*
X139057396Y-81160604D01*
X139046016Y-81153000D01*
X149964385Y-81153000D01*
X149985441Y-81258856D01*
X150045404Y-81348596D01*
X150135144Y-81408559D01*
X150241000Y-81429615D01*
X150346856Y-81408559D01*
X150407001Y-81368371D01*
X150424998Y-81356346D01*
X150492751Y-81335131D01*
X150565002Y-81356346D01*
X150582999Y-81368371D01*
X150643144Y-81408559D01*
X150749000Y-81429615D01*
X150854856Y-81408559D01*
X150944596Y-81348596D01*
X151004559Y-81258856D01*
X151025615Y-81153000D01*
X151488385Y-81153000D01*
X151509441Y-81258856D01*
X151569404Y-81348596D01*
X151659144Y-81408559D01*
X151765000Y-81429615D01*
X151870856Y-81408559D01*
X151960596Y-81348596D01*
X152020559Y-81258856D01*
X152041615Y-81153000D01*
X152020559Y-81047144D01*
X151960596Y-80957404D01*
X151870856Y-80897441D01*
X151765000Y-80876385D01*
X151659144Y-80897441D01*
X151569404Y-80957404D01*
X151509441Y-81047144D01*
X151488385Y-81153000D01*
X151025615Y-81153000D01*
X151004559Y-81047144D01*
X150944596Y-80957404D01*
X150854856Y-80897441D01*
X150749000Y-80876385D01*
X150643144Y-80897441D01*
X150632825Y-80904336D01*
X150565002Y-80949654D01*
X150497249Y-80970869D01*
X150424998Y-80949654D01*
X150357175Y-80904336D01*
X150346856Y-80897441D01*
X150241000Y-80876385D01*
X150135144Y-80897441D01*
X150045404Y-80957404D01*
X149985441Y-81047144D01*
X149964385Y-81153000D01*
X139046016Y-81153000D01*
X138967656Y-81100641D01*
X138861800Y-81079585D01*
X138755944Y-81100641D01*
X138745626Y-81107535D01*
X138745622Y-81107537D01*
X138715901Y-81127396D01*
X138648149Y-81148611D01*
X138575899Y-81127396D01*
X138546178Y-81107537D01*
X138546174Y-81107535D01*
X138535856Y-81100641D01*
X138430000Y-81079585D01*
X138324144Y-81100641D01*
X138313826Y-81107535D01*
X138313822Y-81107537D01*
X138284101Y-81127396D01*
X138216349Y-81148611D01*
X138144099Y-81127396D01*
X138114378Y-81107537D01*
X138114374Y-81107535D01*
X138104056Y-81100641D01*
X137998200Y-81079585D01*
X137892344Y-81100641D01*
X137802604Y-81160604D01*
X137742641Y-81250344D01*
X137721585Y-81356200D01*
X134441452Y-81356200D01*
X134447449Y-81280000D01*
X134427683Y-81028852D01*
X134425749Y-81020794D01*
X134408705Y-80949800D01*
X135841985Y-80949800D01*
X135863041Y-81055656D01*
X135923004Y-81145396D01*
X136012744Y-81205359D01*
X136118600Y-81226415D01*
X136224456Y-81205359D01*
X136314196Y-81145396D01*
X136374159Y-81055656D01*
X136395215Y-80949800D01*
X136374159Y-80843944D01*
X136314196Y-80754204D01*
X136302816Y-80746600D01*
X146408385Y-80746600D01*
X146429441Y-80852456D01*
X146489404Y-80942196D01*
X146579144Y-81002159D01*
X146685000Y-81023215D01*
X146790856Y-81002159D01*
X146880596Y-80942196D01*
X146940559Y-80852456D01*
X146961615Y-80746600D01*
X146940559Y-80640744D01*
X146880596Y-80551004D01*
X146790856Y-80491041D01*
X146685000Y-80469985D01*
X146579144Y-80491041D01*
X146489404Y-80551004D01*
X146429441Y-80640744D01*
X146408385Y-80746600D01*
X136302816Y-80746600D01*
X136224456Y-80694241D01*
X136118600Y-80673185D01*
X136012744Y-80694241D01*
X135923004Y-80754204D01*
X135863041Y-80843944D01*
X135841985Y-80949800D01*
X134408705Y-80949800D01*
X134370028Y-80788701D01*
X134368873Y-80783889D01*
X134353722Y-80747311D01*
X134274361Y-80555715D01*
X134274359Y-80555711D01*
X134272466Y-80551141D01*
X134140836Y-80336341D01*
X134137624Y-80332581D01*
X134137621Y-80332576D01*
X133983906Y-80152600D01*
X147053185Y-80152600D01*
X147074241Y-80258456D01*
X147134204Y-80348196D01*
X147223944Y-80408159D01*
X147329800Y-80429215D01*
X147435656Y-80408159D01*
X147525396Y-80348196D01*
X147585359Y-80258456D01*
X147606415Y-80152600D01*
X147603312Y-80137000D01*
X149964385Y-80137000D01*
X149985441Y-80242856D01*
X150045404Y-80332596D01*
X150135144Y-80392559D01*
X150241000Y-80413615D01*
X150346856Y-80392559D01*
X150436596Y-80332596D01*
X150496559Y-80242856D01*
X150517615Y-80137000D01*
X150496559Y-80031144D01*
X150436596Y-79941404D01*
X150346856Y-79881441D01*
X150241000Y-79860385D01*
X150135144Y-79881441D01*
X150045404Y-79941404D01*
X149985441Y-80031144D01*
X149964385Y-80137000D01*
X147603312Y-80137000D01*
X147585359Y-80046744D01*
X147525396Y-79957004D01*
X147435656Y-79897041D01*
X147329800Y-79875985D01*
X147223944Y-79897041D01*
X147134204Y-79957004D01*
X147074241Y-80046744D01*
X147053185Y-80152600D01*
X133983906Y-80152600D01*
X133980437Y-80148538D01*
X133977224Y-80144776D01*
X133938181Y-80111430D01*
X133789424Y-79984379D01*
X133789419Y-79984376D01*
X133785659Y-79981164D01*
X133588566Y-79860385D01*
X133584021Y-79857600D01*
X154638723Y-79857600D01*
X154656892Y-79960643D01*
X154709208Y-80051257D01*
X154717649Y-80058340D01*
X154717650Y-80058341D01*
X154718730Y-80059247D01*
X154789361Y-80118514D01*
X154799713Y-80122282D01*
X154799715Y-80122283D01*
X154877328Y-80150531D01*
X154877329Y-80150531D01*
X154887684Y-80154300D01*
X154992316Y-80154300D01*
X155002670Y-80150532D01*
X155008572Y-80149491D01*
X155079131Y-80157361D01*
X155134234Y-80202130D01*
X155156386Y-80269582D01*
X155137882Y-80339412D01*
X155008134Y-80551141D01*
X155006241Y-80555711D01*
X155006239Y-80555715D01*
X154926878Y-80747311D01*
X154911727Y-80783889D01*
X154910572Y-80788701D01*
X154854852Y-81020794D01*
X154852917Y-81028852D01*
X154833151Y-81280000D01*
X154852917Y-81531148D01*
X154854071Y-81535955D01*
X154854072Y-81535961D01*
X154877325Y-81632815D01*
X154911727Y-81776111D01*
X155008134Y-82008859D01*
X155139764Y-82223659D01*
X155142976Y-82227419D01*
X155142979Y-82227424D01*
X155191154Y-82283829D01*
X155303376Y-82415224D01*
X155307138Y-82418437D01*
X155491176Y-82575621D01*
X155491181Y-82575624D01*
X155494941Y-82578836D01*
X155709741Y-82710466D01*
X155714311Y-82712359D01*
X155714315Y-82712361D01*
X155937916Y-82804979D01*
X155942489Y-82806873D01*
X156026889Y-82827135D01*
X156182639Y-82864528D01*
X156182645Y-82864529D01*
X156187452Y-82865683D01*
X156438600Y-82885449D01*
X156689748Y-82865683D01*
X156694555Y-82864529D01*
X156694561Y-82864528D01*
X156850311Y-82827135D01*
X156934711Y-82806873D01*
X156939284Y-82804979D01*
X157162885Y-82712361D01*
X157162889Y-82712359D01*
X157167459Y-82710466D01*
X157382259Y-82578836D01*
X157386019Y-82575624D01*
X157386024Y-82575621D01*
X157570062Y-82418437D01*
X157573824Y-82415224D01*
X157686046Y-82283829D01*
X157734221Y-82227424D01*
X157734224Y-82227419D01*
X157737436Y-82223659D01*
X157869066Y-82008859D01*
X157965473Y-81776111D01*
X157999875Y-81632815D01*
X158023128Y-81535961D01*
X158023129Y-81535955D01*
X158024283Y-81531148D01*
X158044049Y-81280000D01*
X158024283Y-81028852D01*
X158022349Y-81020794D01*
X157966628Y-80788701D01*
X157965473Y-80783889D01*
X157950322Y-80747311D01*
X157870961Y-80555715D01*
X157870959Y-80555711D01*
X157869066Y-80551141D01*
X157737436Y-80336341D01*
X157734224Y-80332581D01*
X157734221Y-80332576D01*
X157577037Y-80148538D01*
X157573824Y-80144776D01*
X157534781Y-80111430D01*
X157386024Y-79984379D01*
X157386019Y-79984376D01*
X157382259Y-79981164D01*
X157185166Y-79860385D01*
X157171679Y-79852120D01*
X157167459Y-79849534D01*
X157162889Y-79847641D01*
X157162885Y-79847639D01*
X156939284Y-79755021D01*
X156939282Y-79755020D01*
X156934711Y-79753127D01*
X156850311Y-79732865D01*
X156694561Y-79695472D01*
X156694555Y-79695471D01*
X156689748Y-79694317D01*
X156438600Y-79674551D01*
X156187452Y-79694317D01*
X156182645Y-79695471D01*
X156182639Y-79695472D01*
X156026889Y-79732865D01*
X155942489Y-79753127D01*
X155937918Y-79755020D01*
X155937916Y-79755021D01*
X155714315Y-79847639D01*
X155714311Y-79847641D01*
X155709741Y-79849534D01*
X155705521Y-79852120D01*
X155692034Y-79860385D01*
X155494941Y-79981164D01*
X155491177Y-79984379D01*
X155491176Y-79984380D01*
X155437508Y-80030216D01*
X155372718Y-80059247D01*
X155302518Y-80048642D01*
X155249196Y-80001767D01*
X155229681Y-79933505D01*
X155231592Y-79912525D01*
X155233107Y-79903936D01*
X155241277Y-79857600D01*
X155223108Y-79754557D01*
X155188995Y-79695472D01*
X155176303Y-79673488D01*
X155176302Y-79673487D01*
X155170792Y-79663943D01*
X155162348Y-79656857D01*
X155099081Y-79603770D01*
X155090639Y-79596686D01*
X155080287Y-79592918D01*
X155080285Y-79592917D01*
X155002672Y-79564669D01*
X155002671Y-79564669D01*
X154992316Y-79560900D01*
X154887684Y-79560900D01*
X154789362Y-79596686D01*
X154709208Y-79663943D01*
X154656892Y-79754557D01*
X154638723Y-79857600D01*
X133584021Y-79857600D01*
X133575079Y-79852120D01*
X133570859Y-79849534D01*
X133566289Y-79847641D01*
X133566285Y-79847639D01*
X133342684Y-79755021D01*
X133342682Y-79755020D01*
X133338111Y-79753127D01*
X133253711Y-79732865D01*
X133097961Y-79695472D01*
X133097955Y-79695471D01*
X133093148Y-79694317D01*
X132842000Y-79674551D01*
X132590852Y-79694317D01*
X132586045Y-79695471D01*
X132586039Y-79695472D01*
X132430289Y-79732865D01*
X132345889Y-79753127D01*
X132341318Y-79755020D01*
X132341316Y-79755021D01*
X132117715Y-79847639D01*
X132117711Y-79847641D01*
X132113141Y-79849534D01*
X132108921Y-79852120D01*
X132095434Y-79860385D01*
X131898341Y-79981164D01*
X131894581Y-79984376D01*
X131894576Y-79984379D01*
X131745819Y-80111430D01*
X131706776Y-80144776D01*
X131703563Y-80148538D01*
X131546379Y-80332576D01*
X131546376Y-80332581D01*
X131543164Y-80336341D01*
X131411534Y-80551141D01*
X131409641Y-80555711D01*
X131409639Y-80555715D01*
X131330278Y-80747311D01*
X131315127Y-80783889D01*
X131313972Y-80788701D01*
X131258252Y-81020794D01*
X131256317Y-81028852D01*
X131236551Y-81280000D01*
X129894500Y-81280000D01*
X129894500Y-79121000D01*
X131168385Y-79121000D01*
X131189441Y-79226856D01*
X131196336Y-79237175D01*
X131217062Y-79268194D01*
X131249404Y-79316596D01*
X131339144Y-79376559D01*
X131445000Y-79397615D01*
X131550856Y-79376559D01*
X131640596Y-79316596D01*
X131672938Y-79268194D01*
X131693664Y-79237175D01*
X131700559Y-79226856D01*
X131721615Y-79121000D01*
X132565385Y-79121000D01*
X132586441Y-79226856D01*
X132593336Y-79237175D01*
X132614062Y-79268194D01*
X132646404Y-79316596D01*
X132736144Y-79376559D01*
X132842000Y-79397615D01*
X132947856Y-79376559D01*
X133037596Y-79316596D01*
X133069938Y-79268194D01*
X133090664Y-79237175D01*
X133097559Y-79226856D01*
X133118615Y-79121000D01*
X134089385Y-79121000D01*
X134110441Y-79226856D01*
X134117336Y-79237175D01*
X134138062Y-79268194D01*
X134170404Y-79316596D01*
X134260144Y-79376559D01*
X134366000Y-79397615D01*
X134471856Y-79376559D01*
X134561596Y-79316596D01*
X134593938Y-79268194D01*
X134614664Y-79237175D01*
X134621559Y-79226856D01*
X134642615Y-79121000D01*
X134621559Y-79015144D01*
X134607431Y-78994000D01*
X136883385Y-78994000D01*
X136904441Y-79099856D01*
X136964404Y-79189596D01*
X137054144Y-79249559D01*
X137160000Y-79270615D01*
X137265856Y-79249559D01*
X137355596Y-79189596D01*
X137415559Y-79099856D01*
X137436615Y-78994000D01*
X137797785Y-78994000D01*
X137818841Y-79099856D01*
X137878804Y-79189596D01*
X137968544Y-79249559D01*
X138074400Y-79270615D01*
X138180256Y-79249559D01*
X138269996Y-79189596D01*
X138329959Y-79099856D01*
X138351015Y-78994000D01*
X138329959Y-78888144D01*
X138313172Y-78863020D01*
X138276889Y-78808720D01*
X138269996Y-78798404D01*
X138180256Y-78738441D01*
X138074400Y-78717385D01*
X137968544Y-78738441D01*
X137878804Y-78798404D01*
X137871911Y-78808720D01*
X137835629Y-78863020D01*
X137818841Y-78888144D01*
X137797785Y-78994000D01*
X137436615Y-78994000D01*
X137415559Y-78888144D01*
X137398772Y-78863020D01*
X137362489Y-78808720D01*
X137355596Y-78798404D01*
X137265856Y-78738441D01*
X137160000Y-78717385D01*
X137054144Y-78738441D01*
X136964404Y-78798404D01*
X136957511Y-78808720D01*
X136921229Y-78863020D01*
X136904441Y-78888144D01*
X136883385Y-78994000D01*
X134607431Y-78994000D01*
X134561596Y-78925404D01*
X134471856Y-78865441D01*
X134366000Y-78844385D01*
X134260144Y-78865441D01*
X134170404Y-78925404D01*
X134110441Y-79015144D01*
X134089385Y-79121000D01*
X133118615Y-79121000D01*
X133097559Y-79015144D01*
X133037596Y-78925404D01*
X132947856Y-78865441D01*
X132842000Y-78844385D01*
X132736144Y-78865441D01*
X132646404Y-78925404D01*
X132586441Y-79015144D01*
X132565385Y-79121000D01*
X131721615Y-79121000D01*
X131700559Y-79015144D01*
X131640596Y-78925404D01*
X131550856Y-78865441D01*
X131445000Y-78844385D01*
X131339144Y-78865441D01*
X131249404Y-78925404D01*
X131189441Y-79015144D01*
X131168385Y-79121000D01*
X129894500Y-79121000D01*
X129894500Y-77986653D01*
X142570422Y-77986653D01*
X142588921Y-78154215D01*
X142646856Y-78312527D01*
X142740880Y-78452450D01*
X142746492Y-78457557D01*
X142746495Y-78457560D01*
X142820091Y-78524527D01*
X142865567Y-78565907D01*
X142872240Y-78569530D01*
X142872244Y-78569533D01*
X143007045Y-78642723D01*
X143013718Y-78646346D01*
X143176780Y-78689125D01*
X143264683Y-78690505D01*
X143337741Y-78691653D01*
X143337744Y-78691653D01*
X143345339Y-78691772D01*
X143352744Y-78690076D01*
X143352745Y-78690076D01*
X143413990Y-78676049D01*
X143442109Y-78669609D01*
X143512974Y-78673898D01*
X143570273Y-78715820D01*
X143595810Y-78782065D01*
X143592696Y-78818826D01*
X143592427Y-78819515D01*
X143570422Y-78986653D01*
X143588921Y-79154215D01*
X143646856Y-79312527D01*
X143740880Y-79452450D01*
X143746492Y-79457557D01*
X143746495Y-79457560D01*
X143764388Y-79473841D01*
X143865567Y-79565907D01*
X143872240Y-79569530D01*
X143872244Y-79569533D01*
X144007045Y-79642723D01*
X144013718Y-79646346D01*
X144176780Y-79689125D01*
X144264683Y-79690505D01*
X144337741Y-79691653D01*
X144337744Y-79691653D01*
X144345339Y-79691772D01*
X144352744Y-79690076D01*
X144352745Y-79690076D01*
X144466848Y-79663943D01*
X144509664Y-79654137D01*
X144660268Y-79578391D01*
X144666040Y-79573462D01*
X144666042Y-79573460D01*
X144782681Y-79473841D01*
X144782685Y-79473837D01*
X144788457Y-79468907D01*
X144886831Y-79332006D01*
X144934308Y-79213903D01*
X144946875Y-79182642D01*
X144946875Y-79182641D01*
X144949709Y-79175592D01*
X144973462Y-79008694D01*
X144973616Y-78994000D01*
X144958059Y-78865441D01*
X144954276Y-78834184D01*
X144954276Y-78834183D01*
X144953363Y-78826641D01*
X144922641Y-78745336D01*
X144896460Y-78676049D01*
X144896459Y-78676047D01*
X144893775Y-78668944D01*
X144889476Y-78662689D01*
X144889474Y-78662685D01*
X144802592Y-78536272D01*
X144802591Y-78536270D01*
X144798290Y-78530013D01*
X144672422Y-78417869D01*
X144523437Y-78338985D01*
X144359936Y-78297916D01*
X144352338Y-78297876D01*
X144352336Y-78297876D01*
X144279659Y-78297496D01*
X144191358Y-78297034D01*
X144183973Y-78298807D01*
X144103242Y-78318188D01*
X144032334Y-78314640D01*
X143974601Y-78273321D01*
X143948371Y-78207347D01*
X143951046Y-78175782D01*
X143949709Y-78175592D01*
X143952526Y-78155800D01*
X156899323Y-78155800D01*
X156917492Y-78258843D01*
X156923004Y-78268390D01*
X156962263Y-78336388D01*
X156969808Y-78349457D01*
X157049961Y-78416714D01*
X157060313Y-78420482D01*
X157060315Y-78420483D01*
X157137928Y-78448731D01*
X157137929Y-78448731D01*
X157148284Y-78452500D01*
X157252916Y-78452500D01*
X157263271Y-78448731D01*
X157263272Y-78448731D01*
X157340885Y-78420483D01*
X157340887Y-78420482D01*
X157351239Y-78416714D01*
X157431392Y-78349457D01*
X157438938Y-78336388D01*
X157478196Y-78268390D01*
X157483708Y-78258843D01*
X157501877Y-78155800D01*
X157483708Y-78052757D01*
X157445543Y-77986653D01*
X157436903Y-77971688D01*
X157436902Y-77971687D01*
X157431392Y-77962143D01*
X157422948Y-77955057D01*
X157359681Y-77901970D01*
X157351239Y-77894886D01*
X157340887Y-77891118D01*
X157340885Y-77891117D01*
X157263272Y-77862869D01*
X157263271Y-77862869D01*
X157252916Y-77859100D01*
X157148284Y-77859100D01*
X157049962Y-77894886D01*
X156969808Y-77962143D01*
X156917492Y-78052757D01*
X156899323Y-78155800D01*
X143952526Y-78155800D01*
X143972881Y-78012778D01*
X143972881Y-78012774D01*
X143973462Y-78008694D01*
X143973616Y-77994000D01*
X143964112Y-77915467D01*
X143974858Y-77851000D01*
X151259785Y-77851000D01*
X151280841Y-77956856D01*
X151340804Y-78046596D01*
X151430544Y-78106559D01*
X151536400Y-78127615D01*
X151642256Y-78106559D01*
X151731996Y-78046596D01*
X151791959Y-77956856D01*
X151813015Y-77851000D01*
X151791959Y-77745144D01*
X151731996Y-77655404D01*
X151642256Y-77595441D01*
X151536400Y-77574385D01*
X151430544Y-77595441D01*
X151340804Y-77655404D01*
X151280841Y-77745144D01*
X151259785Y-77851000D01*
X143974858Y-77851000D01*
X143975785Y-77845438D01*
X144023466Y-77792835D01*
X144092017Y-77774362D01*
X144105863Y-77775437D01*
X144170918Y-77784117D01*
X144255214Y-77795364D01*
X144262225Y-77794726D01*
X144262229Y-77794726D01*
X144426151Y-77779808D01*
X144433172Y-77779169D01*
X144603120Y-77723949D01*
X144694404Y-77669533D01*
X144750558Y-77636059D01*
X144750560Y-77636058D01*
X144756610Y-77632451D01*
X144886015Y-77509220D01*
X144984903Y-77360382D01*
X145048358Y-77193335D01*
X145073227Y-77016380D01*
X145073540Y-76994000D01*
X145053621Y-76816420D01*
X144994855Y-76647666D01*
X144988570Y-76637607D01*
X144903895Y-76502099D01*
X144900162Y-76496125D01*
X144774248Y-76369329D01*
X144706040Y-76326043D01*
X144629315Y-76277352D01*
X144629312Y-76277350D01*
X144623372Y-76273581D01*
X144603416Y-76266475D01*
X144461667Y-76216000D01*
X144461662Y-76215999D01*
X144455032Y-76213638D01*
X144448044Y-76212805D01*
X144448041Y-76212804D01*
X144327793Y-76198466D01*
X144277596Y-76192480D01*
X144270593Y-76193216D01*
X144270592Y-76193216D01*
X144225892Y-76197914D01*
X144099881Y-76211158D01*
X144093213Y-76213428D01*
X143937388Y-76266475D01*
X143937385Y-76266476D01*
X143930721Y-76268745D01*
X143924726Y-76272433D01*
X143924722Y-76272435D01*
X143822780Y-76335151D01*
X143778523Y-76362378D01*
X143773492Y-76367305D01*
X143773489Y-76367307D01*
X143711640Y-76427874D01*
X143650851Y-76487403D01*
X143554051Y-76637607D01*
X143551642Y-76644227D01*
X143551640Y-76644230D01*
X143547970Y-76654313D01*
X143492934Y-76805524D01*
X143492051Y-76812512D01*
X143492051Y-76812513D01*
X143490674Y-76823417D01*
X143470538Y-76982809D01*
X143472024Y-76997961D01*
X143487899Y-77159863D01*
X143474640Y-77229611D01*
X143425777Y-77281118D01*
X143359939Y-77297267D01*
X143359936Y-77297916D01*
X143357349Y-77297902D01*
X143357347Y-77297902D01*
X143355194Y-77297891D01*
X143355192Y-77297891D01*
X143291831Y-77297560D01*
X143191358Y-77297034D01*
X143183979Y-77298806D01*
X143183975Y-77298806D01*
X143034815Y-77334616D01*
X143034811Y-77334617D01*
X143027436Y-77336388D01*
X142877633Y-77413707D01*
X142871911Y-77418699D01*
X142871909Y-77418700D01*
X142756323Y-77519532D01*
X142756320Y-77519535D01*
X142750598Y-77524527D01*
X142746231Y-77530741D01*
X142658616Y-77655404D01*
X142653663Y-77662451D01*
X142592427Y-77819515D01*
X142583000Y-77891116D01*
X142574582Y-77955059D01*
X142570422Y-77986653D01*
X129894500Y-77986653D01*
X129894500Y-74676000D01*
X131236551Y-74676000D01*
X131256317Y-74927148D01*
X131315127Y-75172111D01*
X131411534Y-75404859D01*
X131543164Y-75619659D01*
X131546376Y-75623419D01*
X131546379Y-75623424D01*
X131691256Y-75793052D01*
X131706776Y-75811224D01*
X131710538Y-75814437D01*
X131894576Y-75971621D01*
X131894581Y-75971624D01*
X131898341Y-75974836D01*
X132113141Y-76106466D01*
X132117711Y-76108359D01*
X132117715Y-76108361D01*
X132322811Y-76193314D01*
X132345889Y-76202873D01*
X132430289Y-76223135D01*
X132586039Y-76260528D01*
X132586045Y-76260529D01*
X132590852Y-76261683D01*
X132842000Y-76281449D01*
X133093148Y-76261683D01*
X133097955Y-76260529D01*
X133097961Y-76260528D01*
X133253711Y-76223135D01*
X133338111Y-76202873D01*
X133361189Y-76193314D01*
X133566285Y-76108361D01*
X133566289Y-76108359D01*
X133570859Y-76106466D01*
X133785659Y-75974836D01*
X133789419Y-75971624D01*
X133789424Y-75971621D01*
X133973462Y-75814437D01*
X133977224Y-75811224D01*
X133992744Y-75793052D01*
X134137621Y-75623424D01*
X134137624Y-75623419D01*
X134140836Y-75619659D01*
X134272466Y-75404859D01*
X134368873Y-75172111D01*
X134427683Y-74927148D01*
X134447449Y-74676000D01*
X154833151Y-74676000D01*
X154852917Y-74927148D01*
X154911727Y-75172111D01*
X155008134Y-75404859D01*
X155139764Y-75619659D01*
X155142976Y-75623419D01*
X155142979Y-75623424D01*
X155287856Y-75793052D01*
X155303376Y-75811224D01*
X155307138Y-75814437D01*
X155491176Y-75971621D01*
X155491181Y-75971624D01*
X155494941Y-75974836D01*
X155709741Y-76106466D01*
X155714311Y-76108359D01*
X155714315Y-76108361D01*
X155919411Y-76193314D01*
X155942489Y-76202873D01*
X156026889Y-76223135D01*
X156182639Y-76260528D01*
X156182645Y-76260529D01*
X156187452Y-76261683D01*
X156438600Y-76281449D01*
X156689748Y-76261683D01*
X156694555Y-76260529D01*
X156694561Y-76260528D01*
X156850311Y-76223135D01*
X156934711Y-76202873D01*
X156957789Y-76193314D01*
X157162885Y-76108361D01*
X157162889Y-76108359D01*
X157167459Y-76106466D01*
X157382259Y-75974836D01*
X157386019Y-75971624D01*
X157386024Y-75971621D01*
X157570062Y-75814437D01*
X157573824Y-75811224D01*
X157589344Y-75793052D01*
X157734221Y-75623424D01*
X157734224Y-75623419D01*
X157737436Y-75619659D01*
X157869066Y-75404859D01*
X157965473Y-75172111D01*
X158024283Y-74927148D01*
X158044049Y-74676000D01*
X158024283Y-74424852D01*
X157965473Y-74179889D01*
X157944697Y-74129730D01*
X157870961Y-73951715D01*
X157870959Y-73951711D01*
X157869066Y-73947141D01*
X157737436Y-73732341D01*
X157734224Y-73728581D01*
X157734221Y-73728576D01*
X157577037Y-73544538D01*
X157573824Y-73540776D01*
X157532570Y-73505542D01*
X157386024Y-73380379D01*
X157386019Y-73380376D01*
X157382259Y-73377164D01*
X157167459Y-73245534D01*
X157162889Y-73243641D01*
X157162885Y-73243639D01*
X156939284Y-73151021D01*
X156939282Y-73151020D01*
X156934711Y-73149127D01*
X156840879Y-73126600D01*
X156694561Y-73091472D01*
X156694555Y-73091471D01*
X156689748Y-73090317D01*
X156438600Y-73070551D01*
X156187452Y-73090317D01*
X156182645Y-73091471D01*
X156182639Y-73091472D01*
X156036321Y-73126600D01*
X155942489Y-73149127D01*
X155937918Y-73151020D01*
X155937916Y-73151021D01*
X155714315Y-73243639D01*
X155714311Y-73243641D01*
X155709741Y-73245534D01*
X155494941Y-73377164D01*
X155491181Y-73380376D01*
X155491176Y-73380379D01*
X155344630Y-73505542D01*
X155303376Y-73540776D01*
X155300163Y-73544538D01*
X155142979Y-73728576D01*
X155142976Y-73728581D01*
X155139764Y-73732341D01*
X155008134Y-73947141D01*
X155006241Y-73951711D01*
X155006239Y-73951715D01*
X154932503Y-74129730D01*
X154911727Y-74179889D01*
X154852917Y-74424852D01*
X154833151Y-74676000D01*
X134447449Y-74676000D01*
X134427683Y-74424852D01*
X134368873Y-74179889D01*
X134348097Y-74129730D01*
X134274361Y-73951715D01*
X134274359Y-73951711D01*
X134272466Y-73947141D01*
X134174331Y-73787000D01*
X149430985Y-73787000D01*
X149452041Y-73892856D01*
X149512004Y-73982596D01*
X149601744Y-74042559D01*
X149707600Y-74063615D01*
X149813456Y-74042559D01*
X149903196Y-73982596D01*
X149963159Y-73892856D01*
X149984215Y-73787000D01*
X149963159Y-73681144D01*
X149903196Y-73591404D01*
X149813456Y-73531441D01*
X149707600Y-73510385D01*
X149601744Y-73531441D01*
X149512004Y-73591404D01*
X149452041Y-73681144D01*
X149430985Y-73787000D01*
X134174331Y-73787000D01*
X134140836Y-73732341D01*
X134137624Y-73728581D01*
X134137621Y-73728576D01*
X133980437Y-73544538D01*
X133977224Y-73540776D01*
X133935970Y-73505542D01*
X133789424Y-73380379D01*
X133789419Y-73380376D01*
X133785659Y-73377164D01*
X133570859Y-73245534D01*
X133566289Y-73243641D01*
X133566285Y-73243639D01*
X133342684Y-73151021D01*
X133342682Y-73151020D01*
X133338111Y-73149127D01*
X133244279Y-73126600D01*
X150548585Y-73126600D01*
X150569641Y-73232456D01*
X150629604Y-73322196D01*
X150719344Y-73382159D01*
X150786746Y-73395566D01*
X150803798Y-73398958D01*
X150866708Y-73431866D01*
X150901840Y-73493561D01*
X150898040Y-73564455D01*
X150860208Y-73619059D01*
X150784908Y-73682243D01*
X150732592Y-73772857D01*
X150714423Y-73875900D01*
X150732592Y-73978943D01*
X150784908Y-74069557D01*
X150865061Y-74136814D01*
X150875413Y-74140582D01*
X150875415Y-74140583D01*
X150953028Y-74168831D01*
X150953029Y-74168831D01*
X150963384Y-74172600D01*
X151068016Y-74172600D01*
X151078371Y-74168831D01*
X151078372Y-74168831D01*
X151155985Y-74140583D01*
X151155987Y-74140582D01*
X151166339Y-74136814D01*
X151246492Y-74069557D01*
X151298808Y-73978943D01*
X151316977Y-73875900D01*
X151298808Y-73772857D01*
X151246492Y-73682243D01*
X151238048Y-73675157D01*
X151174781Y-73622070D01*
X151166339Y-73614986D01*
X151155987Y-73611218D01*
X151155985Y-73611217D01*
X151078372Y-73582969D01*
X151078371Y-73582969D01*
X151068016Y-73579200D01*
X151051529Y-73579200D01*
X150983408Y-73559198D01*
X150936915Y-73505542D01*
X150926811Y-73435268D01*
X150956305Y-73370688D01*
X150981527Y-73348435D01*
X151010480Y-73329089D01*
X151020796Y-73322196D01*
X151080759Y-73232456D01*
X151101815Y-73126600D01*
X151080759Y-73020744D01*
X151020796Y-72931004D01*
X150931056Y-72871041D01*
X150825200Y-72849985D01*
X150719344Y-72871041D01*
X150629604Y-72931004D01*
X150569641Y-73020744D01*
X150548585Y-73126600D01*
X133244279Y-73126600D01*
X133097961Y-73091472D01*
X133097955Y-73091471D01*
X133093148Y-73090317D01*
X132842000Y-73070551D01*
X132590852Y-73090317D01*
X132586045Y-73091471D01*
X132586039Y-73091472D01*
X132439721Y-73126600D01*
X132345889Y-73149127D01*
X132341318Y-73151020D01*
X132341316Y-73151021D01*
X132117715Y-73243639D01*
X132117711Y-73243641D01*
X132113141Y-73245534D01*
X131898341Y-73377164D01*
X131894581Y-73380376D01*
X131894576Y-73380379D01*
X131748030Y-73505542D01*
X131706776Y-73540776D01*
X131703563Y-73544538D01*
X131546379Y-73728576D01*
X131546376Y-73728581D01*
X131543164Y-73732341D01*
X131411534Y-73947141D01*
X131409641Y-73951711D01*
X131409639Y-73951715D01*
X131335903Y-74129730D01*
X131315127Y-74179889D01*
X131256317Y-74424852D01*
X131236551Y-74676000D01*
X129894500Y-74676000D01*
X129894500Y-72390000D01*
X146510723Y-72390000D01*
X146528892Y-72493043D01*
X146581208Y-72583657D01*
X146661361Y-72650914D01*
X146671713Y-72654682D01*
X146671715Y-72654683D01*
X146749328Y-72682931D01*
X146749329Y-72682931D01*
X146759684Y-72686700D01*
X146864316Y-72686700D01*
X146874671Y-72682931D01*
X146874672Y-72682931D01*
X146952285Y-72654683D01*
X146952287Y-72654682D01*
X146962639Y-72650914D01*
X147042792Y-72583657D01*
X147095108Y-72493043D01*
X147113277Y-72390000D01*
X147095108Y-72286957D01*
X147058546Y-72223629D01*
X147048303Y-72205888D01*
X147048300Y-72205884D01*
X147042792Y-72196343D01*
X147034348Y-72189257D01*
X146971081Y-72136170D01*
X146962639Y-72129086D01*
X146952287Y-72125318D01*
X146952285Y-72125317D01*
X146874672Y-72097069D01*
X146874671Y-72097069D01*
X146864316Y-72093300D01*
X146759684Y-72093300D01*
X146661362Y-72129086D01*
X146581208Y-72196343D01*
X146528892Y-72286957D01*
X146510723Y-72390000D01*
X129894500Y-72390000D01*
X129894500Y-70852665D01*
X130616994Y-70852665D01*
X130617510Y-70858809D01*
X130631114Y-71020809D01*
X130632592Y-71038414D01*
X130683971Y-71217595D01*
X130769176Y-71383385D01*
X130884959Y-71529468D01*
X131026912Y-71650279D01*
X131189627Y-71741217D01*
X131366907Y-71798819D01*
X131551998Y-71820890D01*
X131558133Y-71820418D01*
X131558135Y-71820418D01*
X131731710Y-71807062D01*
X131731715Y-71807061D01*
X131737851Y-71806589D01*
X131743781Y-71804933D01*
X131743783Y-71804933D01*
X131911459Y-71758117D01*
X131911458Y-71758117D01*
X131917387Y-71756462D01*
X132083768Y-71672417D01*
X132108255Y-71653286D01*
X132225794Y-71561454D01*
X132225795Y-71561453D01*
X132230655Y-71557656D01*
X132352454Y-71416550D01*
X132444526Y-71254474D01*
X132503364Y-71077601D01*
X132504136Y-71071489D01*
X132505133Y-71067102D01*
X132539730Y-71005106D01*
X132602353Y-70971657D01*
X132673120Y-70977374D01*
X132729561Y-71020443D01*
X132753757Y-71087189D01*
X132754001Y-71095019D01*
X132754001Y-71760669D01*
X132754371Y-71767490D01*
X132759895Y-71818352D01*
X132763521Y-71833604D01*
X132808676Y-71954054D01*
X132817214Y-71969649D01*
X132893715Y-72071724D01*
X132906276Y-72084285D01*
X133008351Y-72160786D01*
X133023946Y-72169324D01*
X133144394Y-72214478D01*
X133159649Y-72218105D01*
X133210514Y-72223631D01*
X133217328Y-72224000D01*
X133839885Y-72224000D01*
X133855124Y-72219525D01*
X133856329Y-72218135D01*
X133858000Y-72210452D01*
X133858000Y-72205884D01*
X134366000Y-72205884D01*
X134370475Y-72221123D01*
X134371865Y-72222328D01*
X134379548Y-72223999D01*
X135006669Y-72223999D01*
X135013490Y-72223629D01*
X135064352Y-72218105D01*
X135079604Y-72214479D01*
X135200054Y-72169324D01*
X135215649Y-72160786D01*
X135317724Y-72084285D01*
X135330285Y-72071724D01*
X135406786Y-71969649D01*
X135415324Y-71954054D01*
X135460478Y-71833606D01*
X135464105Y-71818351D01*
X135469631Y-71767486D01*
X135470000Y-71760672D01*
X135470000Y-71088930D01*
X135490002Y-71020809D01*
X135543658Y-70974316D01*
X135613932Y-70964212D01*
X135678512Y-70993706D01*
X135717118Y-71054199D01*
X135763971Y-71217595D01*
X135849176Y-71383385D01*
X135964959Y-71529468D01*
X136106912Y-71650279D01*
X136269627Y-71741217D01*
X136446907Y-71798819D01*
X136631998Y-71820890D01*
X136638133Y-71820418D01*
X136638135Y-71820418D01*
X136811710Y-71807062D01*
X136811715Y-71807061D01*
X136817851Y-71806589D01*
X136823781Y-71804933D01*
X136823783Y-71804933D01*
X136991459Y-71758117D01*
X136991458Y-71758117D01*
X136997387Y-71756462D01*
X137163768Y-71672417D01*
X137188255Y-71653286D01*
X137305794Y-71561454D01*
X137305795Y-71561453D01*
X137310655Y-71557656D01*
X137432454Y-71416550D01*
X137524526Y-71254474D01*
X137583364Y-71077601D01*
X137590585Y-71020443D01*
X137606285Y-70896170D01*
X137606286Y-70896163D01*
X137606727Y-70892668D01*
X137607099Y-70866000D01*
X137605791Y-70852665D01*
X138236994Y-70852665D01*
X138237510Y-70858809D01*
X138251114Y-71020809D01*
X138252592Y-71038414D01*
X138303971Y-71217595D01*
X138389176Y-71383385D01*
X138504959Y-71529468D01*
X138646912Y-71650279D01*
X138809627Y-71741217D01*
X138986907Y-71798819D01*
X139171998Y-71820890D01*
X139178133Y-71820418D01*
X139178135Y-71820418D01*
X139351710Y-71807062D01*
X139351715Y-71807061D01*
X139357851Y-71806589D01*
X139363781Y-71804933D01*
X139363783Y-71804933D01*
X139531459Y-71758117D01*
X139531458Y-71758117D01*
X139537387Y-71756462D01*
X139703768Y-71672417D01*
X139728255Y-71653286D01*
X139845794Y-71561454D01*
X139845795Y-71561453D01*
X139850655Y-71557656D01*
X139972454Y-71416550D01*
X140064526Y-71254474D01*
X140123364Y-71077601D01*
X140130585Y-71020443D01*
X140146285Y-70896170D01*
X140146286Y-70896163D01*
X140146727Y-70892668D01*
X140147099Y-70866000D01*
X140145791Y-70852665D01*
X140776994Y-70852665D01*
X140777510Y-70858809D01*
X140791114Y-71020809D01*
X140792592Y-71038414D01*
X140843971Y-71217595D01*
X140929176Y-71383385D01*
X141044959Y-71529468D01*
X141186912Y-71650279D01*
X141349627Y-71741217D01*
X141526907Y-71798819D01*
X141711998Y-71820890D01*
X141718133Y-71820418D01*
X141718135Y-71820418D01*
X141891710Y-71807062D01*
X141891715Y-71807061D01*
X141897851Y-71806589D01*
X141903781Y-71804933D01*
X141903783Y-71804933D01*
X142071459Y-71758117D01*
X142071458Y-71758117D01*
X142077387Y-71756462D01*
X142243768Y-71672417D01*
X142268255Y-71653286D01*
X142385794Y-71561454D01*
X142385795Y-71561453D01*
X142390655Y-71557656D01*
X142512454Y-71416550D01*
X142604526Y-71254474D01*
X142663364Y-71077601D01*
X142670585Y-71020443D01*
X142686285Y-70896170D01*
X142686286Y-70896163D01*
X142686727Y-70892668D01*
X142687099Y-70866000D01*
X142685791Y-70852665D01*
X143316994Y-70852665D01*
X143317510Y-70858809D01*
X143331114Y-71020809D01*
X143332592Y-71038414D01*
X143383971Y-71217595D01*
X143469176Y-71383385D01*
X143584959Y-71529468D01*
X143726912Y-71650279D01*
X143889627Y-71741217D01*
X144066907Y-71798819D01*
X144251998Y-71820890D01*
X144258133Y-71820418D01*
X144258135Y-71820418D01*
X144431710Y-71807062D01*
X144431715Y-71807061D01*
X144437851Y-71806589D01*
X144443781Y-71804933D01*
X144443783Y-71804933D01*
X144611459Y-71758117D01*
X144611458Y-71758117D01*
X144617387Y-71756462D01*
X144783768Y-71672417D01*
X144808255Y-71653286D01*
X144925794Y-71561454D01*
X144925795Y-71561453D01*
X144930655Y-71557656D01*
X145052454Y-71416550D01*
X145144526Y-71254474D01*
X145203364Y-71077601D01*
X145210585Y-71020443D01*
X145226285Y-70896170D01*
X145226286Y-70896163D01*
X145226727Y-70892668D01*
X145227099Y-70866000D01*
X145225791Y-70852665D01*
X145856994Y-70852665D01*
X145857510Y-70858809D01*
X145871114Y-71020809D01*
X145872592Y-71038414D01*
X145923971Y-71217595D01*
X146009176Y-71383385D01*
X146124959Y-71529468D01*
X146266912Y-71650279D01*
X146429627Y-71741217D01*
X146606907Y-71798819D01*
X146791998Y-71820890D01*
X146798133Y-71820418D01*
X146798135Y-71820418D01*
X146971710Y-71807062D01*
X146971715Y-71807061D01*
X146977851Y-71806589D01*
X146983781Y-71804933D01*
X146983783Y-71804933D01*
X147151459Y-71758117D01*
X147151458Y-71758117D01*
X147157387Y-71756462D01*
X147323768Y-71672417D01*
X147348255Y-71653286D01*
X147465794Y-71561454D01*
X147465795Y-71561453D01*
X147470655Y-71557656D01*
X147592454Y-71416550D01*
X147684526Y-71254474D01*
X147743364Y-71077601D01*
X147750585Y-71020443D01*
X147766285Y-70896170D01*
X147766286Y-70896163D01*
X147766727Y-70892668D01*
X147767099Y-70866000D01*
X147765791Y-70852665D01*
X148396994Y-70852665D01*
X148397510Y-70858809D01*
X148411114Y-71020809D01*
X148412592Y-71038414D01*
X148463971Y-71217595D01*
X148549176Y-71383385D01*
X148664959Y-71529468D01*
X148806912Y-71650279D01*
X148969627Y-71741217D01*
X149146907Y-71798819D01*
X149331998Y-71820890D01*
X149338133Y-71820418D01*
X149338135Y-71820418D01*
X149511710Y-71807062D01*
X149511715Y-71807061D01*
X149517851Y-71806589D01*
X149523781Y-71804933D01*
X149523783Y-71804933D01*
X149691459Y-71758117D01*
X149691458Y-71758117D01*
X149697387Y-71756462D01*
X149863768Y-71672417D01*
X149888255Y-71653286D01*
X150005794Y-71561454D01*
X150005795Y-71561453D01*
X150010655Y-71557656D01*
X150132454Y-71416550D01*
X150224526Y-71254474D01*
X150283364Y-71077601D01*
X150290585Y-71020443D01*
X150306285Y-70896170D01*
X150306286Y-70896163D01*
X150306727Y-70892668D01*
X150307099Y-70866000D01*
X150305791Y-70852665D01*
X150936994Y-70852665D01*
X150937510Y-70858809D01*
X150951114Y-71020809D01*
X150952592Y-71038414D01*
X151003971Y-71217595D01*
X151089176Y-71383385D01*
X151204959Y-71529468D01*
X151346912Y-71650279D01*
X151509627Y-71741217D01*
X151686907Y-71798819D01*
X151871998Y-71820890D01*
X151878133Y-71820418D01*
X151878135Y-71820418D01*
X152051710Y-71807062D01*
X152051715Y-71807061D01*
X152057851Y-71806589D01*
X152063781Y-71804933D01*
X152063783Y-71804933D01*
X152231459Y-71758117D01*
X152231458Y-71758117D01*
X152237387Y-71756462D01*
X152403768Y-71672417D01*
X152428255Y-71653286D01*
X152545794Y-71561454D01*
X152545795Y-71561453D01*
X152550655Y-71557656D01*
X152672454Y-71416550D01*
X152764526Y-71254474D01*
X152823364Y-71077601D01*
X152830585Y-71020443D01*
X152846285Y-70896170D01*
X152846286Y-70896163D01*
X152846727Y-70892668D01*
X152847099Y-70866000D01*
X152845791Y-70852665D01*
X153476994Y-70852665D01*
X153477510Y-70858809D01*
X153491114Y-71020809D01*
X153492592Y-71038414D01*
X153543971Y-71217595D01*
X153629176Y-71383385D01*
X153744959Y-71529468D01*
X153886912Y-71650279D01*
X154049627Y-71741217D01*
X154226907Y-71798819D01*
X154411998Y-71820890D01*
X154418133Y-71820418D01*
X154418135Y-71820418D01*
X154591710Y-71807062D01*
X154591715Y-71807061D01*
X154597851Y-71806589D01*
X154603781Y-71804933D01*
X154603783Y-71804933D01*
X154771459Y-71758117D01*
X154771458Y-71758117D01*
X154777387Y-71756462D01*
X154943768Y-71672417D01*
X154968255Y-71653286D01*
X155085794Y-71561454D01*
X155085795Y-71561453D01*
X155090655Y-71557656D01*
X155212454Y-71416550D01*
X155304526Y-71254474D01*
X155363364Y-71077601D01*
X155370585Y-71020443D01*
X155386285Y-70896170D01*
X155386286Y-70896163D01*
X155386727Y-70892668D01*
X155387099Y-70866000D01*
X155368909Y-70680487D01*
X155367128Y-70674588D01*
X155367127Y-70674583D01*
X155316814Y-70507939D01*
X155315033Y-70502040D01*
X155227522Y-70337456D01*
X155223632Y-70332686D01*
X155223629Y-70332682D01*
X155113605Y-70197780D01*
X155113602Y-70197777D01*
X155109710Y-70193005D01*
X155104056Y-70188327D01*
X154970834Y-70078116D01*
X154966085Y-70074187D01*
X154802116Y-69985529D01*
X154713082Y-69957969D01*
X154629936Y-69932231D01*
X154629933Y-69932230D01*
X154624049Y-69930409D01*
X154617924Y-69929765D01*
X154617923Y-69929765D01*
X154444796Y-69911568D01*
X154444795Y-69911568D01*
X154438668Y-69910924D01*
X154360549Y-69918033D01*
X154259171Y-69927259D01*
X154259168Y-69927260D01*
X154253032Y-69927818D01*
X154247122Y-69929557D01*
X154247119Y-69929558D01*
X154105190Y-69971331D01*
X154074214Y-69980448D01*
X153909023Y-70066807D01*
X153763752Y-70183608D01*
X153643935Y-70326401D01*
X153640971Y-70331793D01*
X153640968Y-70331797D01*
X153566256Y-70467699D01*
X153554135Y-70489746D01*
X153497772Y-70667424D01*
X153476994Y-70852665D01*
X152845791Y-70852665D01*
X152828909Y-70680487D01*
X152827128Y-70674588D01*
X152827127Y-70674583D01*
X152776814Y-70507939D01*
X152775033Y-70502040D01*
X152687522Y-70337456D01*
X152683632Y-70332686D01*
X152683629Y-70332682D01*
X152573605Y-70197780D01*
X152573602Y-70197777D01*
X152569710Y-70193005D01*
X152564056Y-70188327D01*
X152430834Y-70078116D01*
X152426085Y-70074187D01*
X152262116Y-69985529D01*
X152173082Y-69957969D01*
X152089936Y-69932231D01*
X152089933Y-69932230D01*
X152084049Y-69930409D01*
X152077924Y-69929765D01*
X152077923Y-69929765D01*
X151904796Y-69911568D01*
X151904795Y-69911568D01*
X151898668Y-69910924D01*
X151820549Y-69918033D01*
X151719171Y-69927259D01*
X151719168Y-69927260D01*
X151713032Y-69927818D01*
X151707122Y-69929557D01*
X151707119Y-69929558D01*
X151565190Y-69971331D01*
X151534214Y-69980448D01*
X151369023Y-70066807D01*
X151223752Y-70183608D01*
X151103935Y-70326401D01*
X151100971Y-70331793D01*
X151100968Y-70331797D01*
X151026256Y-70467699D01*
X151014135Y-70489746D01*
X150957772Y-70667424D01*
X150936994Y-70852665D01*
X150305791Y-70852665D01*
X150288909Y-70680487D01*
X150287128Y-70674588D01*
X150287127Y-70674583D01*
X150236814Y-70507939D01*
X150235033Y-70502040D01*
X150147522Y-70337456D01*
X150143632Y-70332686D01*
X150143629Y-70332682D01*
X150033605Y-70197780D01*
X150033602Y-70197777D01*
X150029710Y-70193005D01*
X150024056Y-70188327D01*
X149890834Y-70078116D01*
X149886085Y-70074187D01*
X149722116Y-69985529D01*
X149633082Y-69957969D01*
X149549936Y-69932231D01*
X149549933Y-69932230D01*
X149544049Y-69930409D01*
X149537924Y-69929765D01*
X149537923Y-69929765D01*
X149364796Y-69911568D01*
X149364795Y-69911568D01*
X149358668Y-69910924D01*
X149280549Y-69918033D01*
X149179171Y-69927259D01*
X149179168Y-69927260D01*
X149173032Y-69927818D01*
X149167122Y-69929557D01*
X149167119Y-69929558D01*
X149025190Y-69971331D01*
X148994214Y-69980448D01*
X148829023Y-70066807D01*
X148683752Y-70183608D01*
X148563935Y-70326401D01*
X148560971Y-70331793D01*
X148560968Y-70331797D01*
X148486256Y-70467699D01*
X148474135Y-70489746D01*
X148417772Y-70667424D01*
X148396994Y-70852665D01*
X147765791Y-70852665D01*
X147748909Y-70680487D01*
X147747128Y-70674588D01*
X147747127Y-70674583D01*
X147696814Y-70507939D01*
X147695033Y-70502040D01*
X147607522Y-70337456D01*
X147603632Y-70332686D01*
X147603629Y-70332682D01*
X147493605Y-70197780D01*
X147493602Y-70197777D01*
X147489710Y-70193005D01*
X147484056Y-70188327D01*
X147350834Y-70078116D01*
X147346085Y-70074187D01*
X147182116Y-69985529D01*
X147093082Y-69957969D01*
X147009936Y-69932231D01*
X147009933Y-69932230D01*
X147004049Y-69930409D01*
X146997924Y-69929765D01*
X146997923Y-69929765D01*
X146824796Y-69911568D01*
X146824795Y-69911568D01*
X146818668Y-69910924D01*
X146740549Y-69918033D01*
X146639171Y-69927259D01*
X146639168Y-69927260D01*
X146633032Y-69927818D01*
X146627122Y-69929557D01*
X146627119Y-69929558D01*
X146485190Y-69971331D01*
X146454214Y-69980448D01*
X146289023Y-70066807D01*
X146143752Y-70183608D01*
X146023935Y-70326401D01*
X146020971Y-70331793D01*
X146020968Y-70331797D01*
X145946256Y-70467699D01*
X145934135Y-70489746D01*
X145877772Y-70667424D01*
X145856994Y-70852665D01*
X145225791Y-70852665D01*
X145208909Y-70680487D01*
X145207128Y-70674588D01*
X145207127Y-70674583D01*
X145156814Y-70507939D01*
X145155033Y-70502040D01*
X145067522Y-70337456D01*
X145063632Y-70332686D01*
X145063629Y-70332682D01*
X144953605Y-70197780D01*
X144953602Y-70197777D01*
X144949710Y-70193005D01*
X144944056Y-70188327D01*
X144810834Y-70078116D01*
X144806085Y-70074187D01*
X144642116Y-69985529D01*
X144553082Y-69957969D01*
X144469936Y-69932231D01*
X144469933Y-69932230D01*
X144464049Y-69930409D01*
X144457924Y-69929765D01*
X144457923Y-69929765D01*
X144284796Y-69911568D01*
X144284795Y-69911568D01*
X144278668Y-69910924D01*
X144200549Y-69918033D01*
X144099171Y-69927259D01*
X144099168Y-69927260D01*
X144093032Y-69927818D01*
X144087122Y-69929557D01*
X144087119Y-69929558D01*
X143945190Y-69971331D01*
X143914214Y-69980448D01*
X143749023Y-70066807D01*
X143603752Y-70183608D01*
X143483935Y-70326401D01*
X143480971Y-70331793D01*
X143480968Y-70331797D01*
X143406256Y-70467699D01*
X143394135Y-70489746D01*
X143337772Y-70667424D01*
X143316994Y-70852665D01*
X142685791Y-70852665D01*
X142668909Y-70680487D01*
X142667128Y-70674588D01*
X142667127Y-70674583D01*
X142616814Y-70507939D01*
X142615033Y-70502040D01*
X142527522Y-70337456D01*
X142523632Y-70332686D01*
X142523629Y-70332682D01*
X142413605Y-70197780D01*
X142413602Y-70197777D01*
X142409710Y-70193005D01*
X142404056Y-70188327D01*
X142270834Y-70078116D01*
X142266085Y-70074187D01*
X142102116Y-69985529D01*
X142013082Y-69957969D01*
X141929936Y-69932231D01*
X141929933Y-69932230D01*
X141924049Y-69930409D01*
X141917924Y-69929765D01*
X141917923Y-69929765D01*
X141744796Y-69911568D01*
X141744795Y-69911568D01*
X141738668Y-69910924D01*
X141660549Y-69918033D01*
X141559171Y-69927259D01*
X141559168Y-69927260D01*
X141553032Y-69927818D01*
X141547122Y-69929557D01*
X141547119Y-69929558D01*
X141405190Y-69971331D01*
X141374214Y-69980448D01*
X141209023Y-70066807D01*
X141063752Y-70183608D01*
X140943935Y-70326401D01*
X140940971Y-70331793D01*
X140940968Y-70331797D01*
X140866256Y-70467699D01*
X140854135Y-70489746D01*
X140797772Y-70667424D01*
X140776994Y-70852665D01*
X140145791Y-70852665D01*
X140128909Y-70680487D01*
X140127128Y-70674588D01*
X140127127Y-70674583D01*
X140076814Y-70507939D01*
X140075033Y-70502040D01*
X139987522Y-70337456D01*
X139983632Y-70332686D01*
X139983629Y-70332682D01*
X139873605Y-70197780D01*
X139873602Y-70197777D01*
X139869710Y-70193005D01*
X139864056Y-70188327D01*
X139730834Y-70078116D01*
X139726085Y-70074187D01*
X139562116Y-69985529D01*
X139473082Y-69957969D01*
X139389936Y-69932231D01*
X139389933Y-69932230D01*
X139384049Y-69930409D01*
X139377924Y-69929765D01*
X139377923Y-69929765D01*
X139204796Y-69911568D01*
X139204795Y-69911568D01*
X139198668Y-69910924D01*
X139120549Y-69918033D01*
X139019171Y-69927259D01*
X139019168Y-69927260D01*
X139013032Y-69927818D01*
X139007122Y-69929557D01*
X139007119Y-69929558D01*
X138865190Y-69971331D01*
X138834214Y-69980448D01*
X138669023Y-70066807D01*
X138523752Y-70183608D01*
X138403935Y-70326401D01*
X138400971Y-70331793D01*
X138400968Y-70331797D01*
X138326256Y-70467699D01*
X138314135Y-70489746D01*
X138257772Y-70667424D01*
X138236994Y-70852665D01*
X137605791Y-70852665D01*
X137588909Y-70680487D01*
X137587128Y-70674588D01*
X137587127Y-70674583D01*
X137536814Y-70507939D01*
X137535033Y-70502040D01*
X137447522Y-70337456D01*
X137443632Y-70332686D01*
X137443629Y-70332682D01*
X137333605Y-70197780D01*
X137333602Y-70197777D01*
X137329710Y-70193005D01*
X137324056Y-70188327D01*
X137190834Y-70078116D01*
X137186085Y-70074187D01*
X137022116Y-69985529D01*
X136933082Y-69957969D01*
X136849936Y-69932231D01*
X136849933Y-69932230D01*
X136844049Y-69930409D01*
X136837924Y-69929765D01*
X136837923Y-69929765D01*
X136664796Y-69911568D01*
X136664795Y-69911568D01*
X136658668Y-69910924D01*
X136580549Y-69918033D01*
X136479171Y-69927259D01*
X136479168Y-69927260D01*
X136473032Y-69927818D01*
X136467122Y-69929557D01*
X136467119Y-69929558D01*
X136325190Y-69971331D01*
X136294214Y-69980448D01*
X136129023Y-70066807D01*
X135983752Y-70183608D01*
X135863935Y-70326401D01*
X135860971Y-70331793D01*
X135860968Y-70331797D01*
X135786256Y-70467699D01*
X135774135Y-70489746D01*
X135772274Y-70495613D01*
X135772273Y-70495615D01*
X135727365Y-70637184D01*
X135717772Y-70667424D01*
X135717169Y-70667233D01*
X135685512Y-70725860D01*
X135623360Y-70760177D01*
X135552521Y-70755445D01*
X135495487Y-70713166D01*
X135470364Y-70646763D01*
X135469999Y-70637184D01*
X135469999Y-69971331D01*
X135469629Y-69964510D01*
X135464105Y-69913648D01*
X135460479Y-69898396D01*
X135415324Y-69777946D01*
X135406786Y-69762351D01*
X135330285Y-69660276D01*
X135317724Y-69647715D01*
X135215649Y-69571214D01*
X135200054Y-69562676D01*
X135079606Y-69517522D01*
X135064351Y-69513895D01*
X135013486Y-69508369D01*
X135006672Y-69508000D01*
X134384115Y-69508000D01*
X134368876Y-69512475D01*
X134367671Y-69513865D01*
X134366000Y-69521548D01*
X134366000Y-72205884D01*
X133858000Y-72205884D01*
X133858000Y-69526116D01*
X133853525Y-69510877D01*
X133852135Y-69509672D01*
X133844452Y-69508001D01*
X133217331Y-69508001D01*
X133210510Y-69508371D01*
X133159648Y-69513895D01*
X133144396Y-69517521D01*
X133023946Y-69562676D01*
X133008351Y-69571214D01*
X132906276Y-69647715D01*
X132893715Y-69660276D01*
X132817214Y-69762351D01*
X132808676Y-69777946D01*
X132763522Y-69898394D01*
X132759895Y-69913649D01*
X132754369Y-69964514D01*
X132754000Y-69971328D01*
X132754000Y-70638999D01*
X132733998Y-70707120D01*
X132680342Y-70753613D01*
X132610068Y-70763717D01*
X132545488Y-70734223D01*
X132507378Y-70675417D01*
X132503193Y-70661553D01*
X132455033Y-70502040D01*
X132367522Y-70337456D01*
X132363632Y-70332686D01*
X132363629Y-70332682D01*
X132253605Y-70197780D01*
X132253602Y-70197777D01*
X132249710Y-70193005D01*
X132244056Y-70188327D01*
X132110834Y-70078116D01*
X132106085Y-70074187D01*
X131942116Y-69985529D01*
X131853082Y-69957969D01*
X131769936Y-69932231D01*
X131769933Y-69932230D01*
X131764049Y-69930409D01*
X131757924Y-69929765D01*
X131757923Y-69929765D01*
X131584796Y-69911568D01*
X131584795Y-69911568D01*
X131578668Y-69910924D01*
X131500549Y-69918033D01*
X131399171Y-69927259D01*
X131399168Y-69927260D01*
X131393032Y-69927818D01*
X131387122Y-69929557D01*
X131387119Y-69929558D01*
X131245190Y-69971331D01*
X131214214Y-69980448D01*
X131049023Y-70066807D01*
X130903752Y-70183608D01*
X130783935Y-70326401D01*
X130780971Y-70331793D01*
X130780968Y-70331797D01*
X130706256Y-70467699D01*
X130694135Y-70489746D01*
X130637772Y-70667424D01*
X130616994Y-70852665D01*
X129894500Y-70852665D01*
X129894500Y-69314500D01*
X129914502Y-69246379D01*
X129968158Y-69199886D01*
X130020500Y-69188500D01*
X160047500Y-69188500D01*
X160115621Y-69208502D01*
G37*
G04 #@! TD.AperFunction*
M02*
