M48
INCH,TZ
T1C0.0060
T2C0.0701
%
G90
G05
T1
X51700Y-28100
X52800Y-28500
X53600Y-28400
X53800Y-28100
X53800Y-29600
X53900Y-27300
X53900Y-28400
X54000Y-33200
X54800Y-32800
X54800Y-33200
X56100Y-28600
X56100Y-28800
X56100Y-29000
X56100Y-29200
X56100Y-29400
X56100Y-32000
X56200Y-29950
X56200Y-30300
X56200Y-30500
X56200Y-30750
X56200Y-31100
X56200Y-31600
X56700Y-32200
X57300Y-28200
X57300Y-32700
X57900Y-33700
X58500Y-31300
X59400Y-31400
X59600Y-33100
X59600Y-33600
T2
X55600Y-33400
X55600Y-27600
X59300Y-30500
X51900Y-30500
T0
M30
