G04 #@! TF.GenerationSoftware,KiCad,Pcbnew,(6.0.8)*
G04 #@! TF.CreationDate,2022-11-24T15:47:19+02:00*
G04 #@! TF.ProjectId,sensor,73656e73-6f72-42e6-9b69-6361645f7063,rev?*
G04 #@! TF.SameCoordinates,Original*
G04 #@! TF.FileFunction,Copper,L3,Inr*
G04 #@! TF.FilePolarity,Positive*
%FSLAX46Y46*%
G04 Gerber Fmt 4.6, Leading zero omitted, Abs format (unit mm)*
G04 Created by KiCad (PCBNEW (6.0.8)) date 2022-11-24 15:47:19*
%MOMM*%
%LPD*%
G01*
G04 APERTURE LIST*
G04 #@! TA.AperFunction,ComponentPad*
%ADD10O,1.700000X1.700000*%
G04 #@! TD*
G04 #@! TA.AperFunction,ComponentPad*
%ADD11R,1.700000X1.700000*%
G04 #@! TD*
G04 #@! TA.AperFunction,ComponentPad*
%ADD12C,3.000000*%
G04 #@! TD*
G04 #@! TA.AperFunction,ComponentPad*
%ADD13C,1.192000*%
G04 #@! TD*
G04 #@! TA.AperFunction,ViaPad*
%ADD14C,0.381000*%
G04 #@! TD*
G04 #@! TA.AperFunction,ViaPad*
%ADD15C,0.254000*%
G04 #@! TD*
G04 #@! TA.AperFunction,Conductor*
%ADD16C,0.152400*%
G04 #@! TD*
G04 #@! TA.AperFunction,Conductor*
%ADD17C,0.254000*%
G04 #@! TD*
G04 APERTURE END LIST*
D10*
X131572000Y-70866000D03*
D11*
X134112000Y-70866000D03*
D10*
X136652000Y-70866000D03*
X139192000Y-70866000D03*
X141732000Y-70866000D03*
X144272000Y-70866000D03*
X146812000Y-70866000D03*
X149352000Y-70866000D03*
X151892000Y-70866000D03*
X154432000Y-70866000D03*
X131572000Y-85090000D03*
X134112000Y-85090000D03*
X136652000Y-85090000D03*
X139192000Y-85090000D03*
X141732000Y-85090000D03*
X144272000Y-85090000D03*
X146812000Y-85090000D03*
X149352000Y-85090000D03*
X151892000Y-85090000D03*
D11*
X154432000Y-85090000D03*
D12*
X132842000Y-74676000D03*
X156438600Y-81280000D03*
X156438600Y-74676000D03*
X132842000Y-81280000D03*
D13*
X144272000Y-78994000D03*
X144272000Y-76994000D03*
X143272000Y-77994000D03*
D14*
X156514800Y-79121000D03*
D15*
X150749000Y-81153000D03*
D14*
X156489400Y-84505800D03*
X157200600Y-78155800D03*
X154863800Y-83235800D03*
X146685000Y-80162400D03*
X136118600Y-80949800D03*
X137160000Y-78994000D03*
X140970000Y-82677000D03*
X135890000Y-82804000D03*
X135890000Y-82296000D03*
D15*
X138836400Y-81356200D03*
D14*
X134366000Y-79121000D03*
X138074400Y-78994000D03*
X150825200Y-73126600D03*
D15*
X151536400Y-77851000D03*
D14*
X154940000Y-79857600D03*
X151015700Y-73875900D03*
X146812000Y-72390000D03*
X149707600Y-73787000D03*
D15*
X150241000Y-80137000D03*
X150241000Y-81153000D03*
X151765000Y-81153000D03*
D14*
X146685000Y-80746600D03*
X147904200Y-82677000D03*
X131445000Y-79121000D03*
D15*
X137998200Y-81356200D03*
D14*
X132842000Y-79121000D03*
D15*
X138430000Y-81356200D03*
D16*
X146675200Y-80152600D02*
X146415400Y-80152600D01*
X146685000Y-80162400D02*
X146675200Y-80152600D01*
D17*
X156489400Y-84505800D02*
X158292800Y-84505800D01*
X158597600Y-78282800D02*
X158470600Y-78155800D01*
X157200600Y-78155800D02*
X158470600Y-78155800D01*
X158496000Y-69469000D02*
X158597600Y-69570600D01*
X158597600Y-84201000D02*
X158597600Y-78282800D01*
D16*
X151358600Y-80543400D02*
X152450800Y-80543400D01*
D17*
X158597600Y-69570600D02*
X158597600Y-78282800D01*
D16*
X154559000Y-82651600D02*
X154940000Y-82651600D01*
D17*
X140106400Y-69469000D02*
X158496000Y-69469000D01*
D16*
X154940000Y-82651600D02*
X156489400Y-84201000D01*
D17*
X139192000Y-70866000D02*
X139954000Y-70104000D01*
D16*
X150749000Y-81153000D02*
X151358600Y-80543400D01*
X156489400Y-84201000D02*
X156489400Y-84505800D01*
D17*
X139954000Y-69621400D02*
X140106400Y-69469000D01*
X139954000Y-70104000D02*
X139954000Y-69621400D01*
D16*
X152450800Y-80543400D02*
X154559000Y-82651600D01*
D17*
X158292800Y-84505800D02*
X158597600Y-84201000D01*
D16*
X146415400Y-80152600D02*
X145973800Y-80594200D01*
X145973800Y-83388200D02*
X146050000Y-83464400D01*
X146050000Y-83464400D02*
X154635200Y-83464400D01*
X145973800Y-80594200D02*
X145973800Y-83388200D01*
X154635200Y-83464400D02*
X154863800Y-83235800D01*
X140970000Y-82677000D02*
X141147800Y-82854800D01*
X141147800Y-82854800D02*
X144576800Y-82854800D01*
X144957800Y-83794600D02*
X146812000Y-83794600D01*
X144576800Y-82854800D02*
X144881600Y-83159600D01*
X144881600Y-83718400D02*
X144957800Y-83794600D01*
X146812000Y-83794600D02*
X146812000Y-85090000D01*
X144881600Y-83159600D02*
X144881600Y-83718400D01*
X135890000Y-82931000D02*
X136144000Y-83185000D01*
X144272000Y-83185000D02*
X144272000Y-85090000D01*
X135890000Y-82804000D02*
X135890000Y-82931000D01*
X136144000Y-83185000D02*
X144272000Y-83185000D01*
X134366000Y-83185000D02*
X130810000Y-83185000D01*
X130175000Y-82550000D02*
X130175000Y-72771000D01*
X130810000Y-83185000D02*
X130175000Y-82550000D01*
X130175000Y-72771000D02*
X130556000Y-72390000D01*
X135255000Y-82296000D02*
X134366000Y-83185000D01*
X141732000Y-72390000D02*
X141732000Y-70866000D01*
X130556000Y-72390000D02*
X141732000Y-72390000D01*
X135890000Y-82296000D02*
X135255000Y-82296000D01*
X138303000Y-79502000D02*
X134747000Y-79502000D01*
X144145000Y-80899000D02*
X139319000Y-80899000D01*
X138861800Y-80060800D02*
X138303000Y-79502000D01*
X147955000Y-77089000D02*
X144145000Y-80899000D01*
X147955000Y-72263000D02*
X149352000Y-70866000D01*
X134747000Y-79502000D02*
X134366000Y-79121000D01*
X138861800Y-81356200D02*
X138861800Y-80060800D01*
X138861800Y-81356200D02*
X139319000Y-80899000D01*
X147955000Y-72263000D02*
X147955000Y-77089000D01*
X150571200Y-77419200D02*
X151003000Y-77851000D01*
X150825200Y-73126600D02*
X150571200Y-73380600D01*
X151003000Y-77851000D02*
X151536400Y-77851000D01*
X150571200Y-73380600D02*
X150571200Y-77419200D01*
D17*
X154940000Y-79857600D02*
X155016200Y-79857600D01*
X151015700Y-73875900D02*
X151015700Y-75933300D01*
X151015700Y-75933300D02*
X154940000Y-79857600D01*
X155016200Y-79857600D02*
X156438600Y-81280000D01*
D16*
X149707600Y-79603600D02*
X150241000Y-80137000D01*
X149707600Y-73787000D02*
X149707600Y-79603600D01*
X150139400Y-72821800D02*
X150266400Y-72694800D01*
X150774400Y-80365600D02*
X150774400Y-79298800D01*
X153162000Y-72694800D02*
X154432000Y-71424800D01*
X154432000Y-71424800D02*
X154432000Y-70866000D01*
X150266400Y-72694800D02*
X153162000Y-72694800D01*
X150139400Y-78663800D02*
X150139400Y-72821800D01*
X150241000Y-80899000D02*
X150774400Y-80365600D01*
X150774400Y-79298800D02*
X150139400Y-78663800D01*
X150241000Y-81153000D02*
X150241000Y-80899000D01*
X146786600Y-83159600D02*
X146685000Y-83058000D01*
X150749000Y-83159600D02*
X146786600Y-83159600D01*
X151765000Y-81153000D02*
X151765000Y-82143600D01*
X151765000Y-82143600D02*
X150749000Y-83159600D01*
X146685000Y-83058000D02*
X146685000Y-80746600D01*
X149199600Y-72415400D02*
X149326600Y-72288400D01*
X149098000Y-77647800D02*
X149199600Y-77546200D01*
X147904200Y-77851000D02*
X148107400Y-77647800D01*
X148107400Y-77647800D02*
X149098000Y-77647800D01*
X149326600Y-72288400D02*
X150469600Y-72288400D01*
X149199600Y-77546200D02*
X149199600Y-72415400D01*
X147904200Y-82677000D02*
X147904200Y-77851000D01*
X150469600Y-72288400D02*
X151892000Y-70866000D01*
X137668000Y-80137000D02*
X134390052Y-80137000D01*
X134390052Y-80137000D02*
X133771052Y-79518000D01*
X137998200Y-81356200D02*
X137998200Y-80467200D01*
X137998200Y-80467200D02*
X137668000Y-80137000D01*
X133771052Y-79518000D02*
X131842000Y-79518000D01*
X131842000Y-79518000D02*
X131445000Y-79121000D01*
X134366000Y-79756000D02*
X133731000Y-79121000D01*
X138049000Y-79756000D02*
X134366000Y-79756000D01*
X133731000Y-79121000D02*
X132842000Y-79121000D01*
X138430000Y-80137000D02*
X138049000Y-79756000D01*
X138430000Y-81356200D02*
X138430000Y-80137000D01*
M02*
