G04 #@! TF.GenerationSoftware,KiCad,Pcbnew,(5.1.8)-1*
G04 #@! TF.CreationDate,2021-04-03T22:15:50+03:00*
G04 #@! TF.ProjectId,sensor,73656e73-6f72-42e6-9b69-6361645f7063,rev?*
G04 #@! TF.SameCoordinates,Original*
G04 #@! TF.FileFunction,Legend,Bot*
G04 #@! TF.FilePolarity,Positive*
%FSLAX46Y46*%
G04 Gerber Fmt 4.6, Leading zero omitted, Abs format (unit mm)*
G04 Created by KiCad (PCBNEW (5.1.8)-1) date 2021-04-03 22:15:50*
%MOMM*%
%LPD*%
G01*
G04 APERTURE LIST*
%ADD10C,0.100000*%
%ADD11C,0.200000*%
%ADD12C,0.152400*%
%ADD13C,0.254000*%
%ADD14C,0.150000*%
G04 APERTURE END LIST*
D10*
X136152000Y-75070000D02*
X137152000Y-75070000D01*
X136152000Y-79870000D02*
X137152000Y-79870000D01*
D11*
X138452000Y-75370000D02*
X138452000Y-75370000D01*
X138452000Y-75570000D02*
X138452000Y-75570000D01*
X138452000Y-75570000D02*
G75*
G02*
X138452000Y-75370000I0J100000D01*
G01*
X138452000Y-75370000D02*
G75*
G02*
X138452000Y-75570000I0J-100000D01*
G01*
X147596000Y-75570000D02*
X147596000Y-75570000D01*
X147596000Y-75370000D02*
X147596000Y-75370000D01*
D10*
X145296000Y-79870000D02*
X146296000Y-79870000D01*
X145296000Y-75070000D02*
X146296000Y-75070000D01*
D11*
X147596000Y-75370000D02*
G75*
G02*
X147596000Y-75570000I0J-100000D01*
G01*
X147596000Y-75570000D02*
G75*
G02*
X147596000Y-75370000I0J100000D01*
G01*
D12*
X143002000Y-75565000D02*
X143002000Y-79375000D01*
X143002000Y-79375000D02*
X142661141Y-79375000D01*
X139446000Y-79375000D02*
X139446000Y-75565000D01*
X139446000Y-75565000D02*
X139786859Y-75565000D01*
X142661141Y-75565000D02*
X143002000Y-75565000D01*
X139786859Y-79375000D02*
X139446000Y-79375000D01*
X140475600Y-74491200D02*
G75*
G03*
X140475600Y-74491200I-101600J0D01*
G01*
D13*
X137443523Y-76532619D02*
X136173523Y-76532619D01*
X136173523Y-76835000D01*
X136234000Y-77016428D01*
X136354952Y-77137380D01*
X136475904Y-77197857D01*
X136717809Y-77258333D01*
X136899238Y-77258333D01*
X137141142Y-77197857D01*
X137262095Y-77137380D01*
X137383047Y-77016428D01*
X137443523Y-76835000D01*
X137443523Y-76532619D01*
X136294476Y-77742142D02*
X136234000Y-77802619D01*
X136173523Y-77923571D01*
X136173523Y-78225952D01*
X136234000Y-78346904D01*
X136294476Y-78407380D01*
X136415428Y-78467857D01*
X136536380Y-78467857D01*
X136717809Y-78407380D01*
X137443523Y-77681666D01*
X137443523Y-78467857D01*
X146587523Y-76532619D02*
X145317523Y-76532619D01*
X145317523Y-76835000D01*
X145378000Y-77016428D01*
X145498952Y-77137380D01*
X145619904Y-77197857D01*
X145861809Y-77258333D01*
X146043238Y-77258333D01*
X146285142Y-77197857D01*
X146406095Y-77137380D01*
X146527047Y-77016428D01*
X146587523Y-76835000D01*
X146587523Y-76532619D01*
X145317523Y-77681666D02*
X145317523Y-78467857D01*
X145801333Y-78044523D01*
X145801333Y-78225952D01*
X145861809Y-78346904D01*
X145922285Y-78407380D01*
X146043238Y-78467857D01*
X146345619Y-78467857D01*
X146466571Y-78407380D01*
X146527047Y-78346904D01*
X146587523Y-78225952D01*
X146587523Y-77863095D01*
X146527047Y-77742142D01*
X146466571Y-77681666D01*
D14*
X141557333Y-83788380D02*
X141557333Y-84502666D01*
X141604952Y-84645523D01*
X141700190Y-84740761D01*
X141843047Y-84788380D01*
X141938285Y-84788380D01*
X141128761Y-83883619D02*
X141081142Y-83836000D01*
X140985904Y-83788380D01*
X140747809Y-83788380D01*
X140652571Y-83836000D01*
X140604952Y-83883619D01*
X140557333Y-83978857D01*
X140557333Y-84074095D01*
X140604952Y-84216952D01*
X141176380Y-84788380D01*
X140557333Y-84788380D01*
X141557333Y-69056380D02*
X141557333Y-69770666D01*
X141604952Y-69913523D01*
X141700190Y-70008761D01*
X141843047Y-70056380D01*
X141938285Y-70056380D01*
X141176380Y-69056380D02*
X140557333Y-69056380D01*
X140890666Y-69437333D01*
X140747809Y-69437333D01*
X140652571Y-69484952D01*
X140604952Y-69532571D01*
X140557333Y-69627809D01*
X140557333Y-69865904D01*
X140604952Y-69961142D01*
X140652571Y-70008761D01*
X140747809Y-70056380D01*
X141033523Y-70056380D01*
X141128761Y-70008761D01*
X141176380Y-69961142D01*
X150955333Y-76422380D02*
X150955333Y-77136666D01*
X151002952Y-77279523D01*
X151098190Y-77374761D01*
X151241047Y-77422380D01*
X151336285Y-77422380D01*
X150050571Y-76755714D02*
X150050571Y-77422380D01*
X150288666Y-76374761D02*
X150526761Y-77089047D01*
X149907714Y-77089047D01*
X132159333Y-76422380D02*
X132159333Y-77136666D01*
X132206952Y-77279523D01*
X132302190Y-77374761D01*
X132445047Y-77422380D01*
X132540285Y-77422380D01*
X131206952Y-76422380D02*
X131683142Y-76422380D01*
X131730761Y-76898571D01*
X131683142Y-76850952D01*
X131587904Y-76803333D01*
X131349809Y-76803333D01*
X131254571Y-76850952D01*
X131206952Y-76898571D01*
X131159333Y-76993809D01*
X131159333Y-77231904D01*
X131206952Y-77327142D01*
X131254571Y-77374761D01*
X131349809Y-77422380D01*
X131587904Y-77422380D01*
X131683142Y-77374761D01*
X131730761Y-77327142D01*
X141676380Y-76350952D02*
X141676380Y-75874761D01*
X140676380Y-75874761D01*
X141152571Y-76684285D02*
X141152571Y-77017619D01*
X141676380Y-77160476D02*
X141676380Y-76684285D01*
X140676380Y-76684285D01*
X140676380Y-77160476D01*
X141676380Y-77589047D02*
X140676380Y-77589047D01*
X140676380Y-77827142D01*
X140724000Y-77970000D01*
X140819238Y-78065238D01*
X140914476Y-78112857D01*
X141104952Y-78160476D01*
X141247809Y-78160476D01*
X141438285Y-78112857D01*
X141533523Y-78065238D01*
X141628761Y-77970000D01*
X141676380Y-77827142D01*
X141676380Y-77589047D01*
X141676380Y-79112857D02*
X141676380Y-78541428D01*
X141676380Y-78827142D02*
X140676380Y-78827142D01*
X140819238Y-78731904D01*
X140914476Y-78636666D01*
X140962095Y-78541428D01*
X140676380Y-77470000D02*
X140914476Y-77470000D01*
X140819238Y-77231904D02*
X140914476Y-77470000D01*
X140819238Y-77708095D01*
X141104952Y-77327142D02*
X140914476Y-77470000D01*
X141104952Y-77612857D01*
M02*
