M48
INCH,TZ
T1C0.0040
T2C0.0060
T3C0.0256
T4C0.0394
T5C0.0701
%
G90
G05
T1
X53590Y-31870
X54000Y-31100
X54360Y-31100
T2
X57800Y-28500
X61620Y-31150
T3
X56406Y-30706
X56800Y-30313
X56800Y-31100
T4
X51800Y-27900
X51800Y-33500
X52800Y-27900
X52800Y-33500
X53800Y-27900
X53800Y-33500
X54800Y-27900
X54800Y-33500
X55800Y-27900
X55800Y-33500
X56800Y-27900
X56800Y-33500
X57800Y-27900
X57800Y-33500
X58800Y-27900
X58800Y-33500
X59800Y-27900
X59800Y-33500
X60800Y-27900
X60800Y-33500
T5
X52300Y-29400
X52300Y-32000
X61590Y-29400
X61590Y-32000
T0
M30
