G04 #@! TF.GenerationSoftware,KiCad,Pcbnew,(5.1.8)-1*
G04 #@! TF.CreationDate,2021-03-29T10:41:43+03:00*
G04 #@! TF.ProjectId,sensor board,73656e73-6f72-4206-926f-6172642e6b69,rev?*
G04 #@! TF.SameCoordinates,Original*
G04 #@! TF.FileFunction,Legend,Top*
G04 #@! TF.FilePolarity,Positive*
%FSLAX46Y46*%
G04 Gerber Fmt 4.6, Leading zero omitted, Abs format (unit mm)*
G04 Created by KiCad (PCBNEW (5.1.8)-1) date 2021-03-29 10:41:43*
%MOMM*%
%LPD*%
G01*
G04 APERTURE LIST*
%ADD10C,0.120000*%
%ADD11C,0.200000*%
%ADD12C,0.100000*%
%ADD13C,0.300000*%
%ADD14C,0.127000*%
%ADD15C,0.112700*%
%ADD16C,0.254000*%
G04 APERTURE END LIST*
D10*
X144146000Y-83719641D02*
X144146000Y-83412359D01*
X144906000Y-83719641D02*
X144906000Y-83412359D01*
X138302000Y-69950359D02*
X138302000Y-70257641D01*
X137542000Y-69950359D02*
X137542000Y-70257641D01*
X150496000Y-81179641D02*
X150496000Y-80872359D01*
X151256000Y-81179641D02*
X151256000Y-80872359D01*
X132741641Y-72770000D02*
X132434359Y-72770000D01*
X132741641Y-72010000D02*
X132434359Y-72010000D01*
X146198000Y-83458164D02*
X146198000Y-83673836D01*
X146918000Y-83458164D02*
X146918000Y-83673836D01*
X148950000Y-80879836D02*
X148950000Y-80664164D01*
X148230000Y-80879836D02*
X148230000Y-80664164D01*
X132186000Y-81680164D02*
X132186000Y-81895836D01*
X131466000Y-81680164D02*
X131466000Y-81895836D01*
X145660164Y-85492000D02*
X145875836Y-85492000D01*
X145660164Y-86212000D02*
X145875836Y-86212000D01*
X131720000Y-69996164D02*
X131720000Y-70211836D01*
X132440000Y-69996164D02*
X132440000Y-70211836D01*
X134218000Y-69996164D02*
X134218000Y-70211836D01*
X133498000Y-69996164D02*
X133498000Y-70211836D01*
D11*
X135330000Y-79516000D02*
X135330000Y-74916000D01*
X135330000Y-74916000D02*
X141530000Y-74916000D01*
X141530000Y-74916000D02*
X141530000Y-79516000D01*
X141530000Y-79516000D02*
X135330000Y-79516000D01*
X135580000Y-81666000D02*
X135580000Y-79866000D01*
X146346000Y-78702000D02*
X146346000Y-80760000D01*
X146346000Y-80760000D02*
X144230000Y-80760000D01*
X144230000Y-80760000D02*
X144230000Y-78244000D01*
X144230000Y-78244000D02*
X145888000Y-78244000D01*
X145888000Y-78244000D02*
X146346000Y-78702000D01*
X146446000Y-78244000D02*
G75*
G03*
X146446000Y-78244000I-100000J0D01*
G01*
D12*
X144167000Y-74890000D02*
X144167000Y-75390000D01*
X144167000Y-75390000D02*
X145542000Y-75390000D01*
X144167000Y-69890000D02*
X144167000Y-69390000D01*
X144167000Y-69390000D02*
X145542000Y-69390000D01*
D13*
X147642000Y-70290000D02*
X147642000Y-70290000D01*
X147642000Y-70190000D02*
X147642000Y-70190000D01*
X147642000Y-70190000D02*
G75*
G02*
X147642000Y-70290000I0J-50000D01*
G01*
X147642000Y-70290000D02*
G75*
G02*
X147642000Y-70190000I0J50000D01*
G01*
D10*
X148210000Y-83412359D02*
X148210000Y-83719641D01*
X148970000Y-83412359D02*
X148970000Y-83719641D01*
X150748000Y-83412359D02*
X150748000Y-83719641D01*
X149988000Y-83412359D02*
X149988000Y-83719641D01*
X135510000Y-69950359D02*
X135510000Y-70257641D01*
X136270000Y-69950359D02*
X136270000Y-70257641D01*
X137796000Y-83973641D02*
X137796000Y-83666359D01*
X138556000Y-83973641D02*
X138556000Y-83666359D01*
X135764000Y-83973641D02*
X135764000Y-83666359D01*
X136524000Y-83973641D02*
X136524000Y-83666359D01*
X132460000Y-74575641D02*
X132460000Y-74268359D01*
X131700000Y-74575641D02*
X131700000Y-74268359D01*
D14*
X144813261Y-83974214D02*
X144510880Y-84185880D01*
X144813261Y-84337071D02*
X144178261Y-84337071D01*
X144178261Y-84095166D01*
X144208500Y-84034690D01*
X144238738Y-84004452D01*
X144299214Y-83974214D01*
X144389928Y-83974214D01*
X144450404Y-84004452D01*
X144480642Y-84034690D01*
X144510880Y-84095166D01*
X144510880Y-84337071D01*
X144813261Y-83369452D02*
X144813261Y-83732309D01*
X144813261Y-83550880D02*
X144178261Y-83550880D01*
X144268976Y-83611357D01*
X144329452Y-83671833D01*
X144359690Y-83732309D01*
X144178261Y-82976357D02*
X144178261Y-82915880D01*
X144208500Y-82855404D01*
X144238738Y-82825166D01*
X144299214Y-82794928D01*
X144420166Y-82764690D01*
X144571357Y-82764690D01*
X144692309Y-82794928D01*
X144752785Y-82825166D01*
X144783023Y-82855404D01*
X144813261Y-82915880D01*
X144813261Y-82976357D01*
X144783023Y-83036833D01*
X144752785Y-83067071D01*
X144692309Y-83097309D01*
X144571357Y-83127547D01*
X144420166Y-83127547D01*
X144299214Y-83097309D01*
X144238738Y-83067071D01*
X144208500Y-83036833D01*
X144178261Y-82976357D01*
X138209261Y-70209833D02*
X137906880Y-70421500D01*
X138209261Y-70572690D02*
X137574261Y-70572690D01*
X137574261Y-70330785D01*
X137604500Y-70270309D01*
X137634738Y-70240071D01*
X137695214Y-70209833D01*
X137785928Y-70209833D01*
X137846404Y-70240071D01*
X137876642Y-70270309D01*
X137906880Y-70330785D01*
X137906880Y-70572690D01*
X137634738Y-69967928D02*
X137604500Y-69937690D01*
X137574261Y-69877214D01*
X137574261Y-69726023D01*
X137604500Y-69665547D01*
X137634738Y-69635309D01*
X137695214Y-69605071D01*
X137755690Y-69605071D01*
X137846404Y-69635309D01*
X138209261Y-69998166D01*
X138209261Y-69605071D01*
X151163261Y-81131833D02*
X150860880Y-81343500D01*
X151163261Y-81494690D02*
X150528261Y-81494690D01*
X150528261Y-81252785D01*
X150558500Y-81192309D01*
X150588738Y-81162071D01*
X150649214Y-81131833D01*
X150739928Y-81131833D01*
X150800404Y-81162071D01*
X150830642Y-81192309D01*
X150860880Y-81252785D01*
X150860880Y-81494690D01*
X151163261Y-80527071D02*
X151163261Y-80889928D01*
X151163261Y-80708500D02*
X150528261Y-80708500D01*
X150618976Y-80768976D01*
X150679452Y-80829452D01*
X150709690Y-80889928D01*
X132482166Y-72677261D02*
X132270500Y-72374880D01*
X132119309Y-72677261D02*
X132119309Y-72042261D01*
X132361214Y-72042261D01*
X132421690Y-72072500D01*
X132451928Y-72102738D01*
X132482166Y-72163214D01*
X132482166Y-72253928D01*
X132451928Y-72314404D01*
X132421690Y-72344642D01*
X132361214Y-72374880D01*
X132119309Y-72374880D01*
X133056690Y-72042261D02*
X132754309Y-72042261D01*
X132724071Y-72344642D01*
X132754309Y-72314404D01*
X132814785Y-72284166D01*
X132965976Y-72284166D01*
X133026452Y-72314404D01*
X133056690Y-72344642D01*
X133086928Y-72405119D01*
X133086928Y-72556309D01*
X133056690Y-72616785D01*
X133026452Y-72647023D01*
X132965976Y-72677261D01*
X132814785Y-72677261D01*
X132754309Y-72647023D01*
X132724071Y-72616785D01*
X146784785Y-83671833D02*
X146815023Y-83702071D01*
X146845261Y-83792785D01*
X146845261Y-83853261D01*
X146815023Y-83943976D01*
X146754547Y-84004452D01*
X146694071Y-84034690D01*
X146573119Y-84064928D01*
X146482404Y-84064928D01*
X146361452Y-84034690D01*
X146300976Y-84004452D01*
X146240500Y-83943976D01*
X146210261Y-83853261D01*
X146210261Y-83792785D01*
X146240500Y-83702071D01*
X146270738Y-83671833D01*
X146845261Y-83067071D02*
X146845261Y-83429928D01*
X146845261Y-83248500D02*
X146210261Y-83248500D01*
X146300976Y-83308976D01*
X146361452Y-83369452D01*
X146391690Y-83429928D01*
X148816785Y-80877833D02*
X148847023Y-80908071D01*
X148877261Y-80998785D01*
X148877261Y-81059261D01*
X148847023Y-81149976D01*
X148786547Y-81210452D01*
X148726071Y-81240690D01*
X148605119Y-81270928D01*
X148514404Y-81270928D01*
X148393452Y-81240690D01*
X148332976Y-81210452D01*
X148272500Y-81149976D01*
X148242261Y-81059261D01*
X148242261Y-80998785D01*
X148272500Y-80908071D01*
X148302738Y-80877833D01*
X148242261Y-80666166D02*
X148242261Y-80273071D01*
X148484166Y-80484738D01*
X148484166Y-80394023D01*
X148514404Y-80333547D01*
X148544642Y-80303309D01*
X148605119Y-80273071D01*
X148756309Y-80273071D01*
X148816785Y-80303309D01*
X148847023Y-80333547D01*
X148877261Y-80394023D01*
X148877261Y-80575452D01*
X148847023Y-80635928D01*
X148816785Y-80666166D01*
D15*
X132052785Y-81893833D02*
X132083023Y-81924071D01*
X132113261Y-82014785D01*
X132113261Y-82075261D01*
X132083023Y-82165976D01*
X132022547Y-82226452D01*
X131962071Y-82256690D01*
X131841119Y-82286928D01*
X131750404Y-82286928D01*
X131629452Y-82256690D01*
X131568976Y-82226452D01*
X131508500Y-82165976D01*
X131478261Y-82075261D01*
X131478261Y-82014785D01*
X131508500Y-81924071D01*
X131538738Y-81893833D01*
X131538738Y-81651928D02*
X131508500Y-81621690D01*
X131478261Y-81561214D01*
X131478261Y-81410023D01*
X131508500Y-81349547D01*
X131538738Y-81319309D01*
X131599214Y-81289071D01*
X131659690Y-81289071D01*
X131750404Y-81319309D01*
X132113261Y-81682166D01*
X132113261Y-81289071D01*
D14*
X145690166Y-86078785D02*
X145659928Y-86109023D01*
X145569214Y-86139261D01*
X145508738Y-86139261D01*
X145418023Y-86109023D01*
X145357547Y-86048547D01*
X145327309Y-85988071D01*
X145297071Y-85867119D01*
X145297071Y-85776404D01*
X145327309Y-85655452D01*
X145357547Y-85594976D01*
X145418023Y-85534500D01*
X145508738Y-85504261D01*
X145569214Y-85504261D01*
X145659928Y-85534500D01*
X145690166Y-85564738D01*
X146234452Y-85715928D02*
X146234452Y-86139261D01*
X146083261Y-85474023D02*
X145932071Y-85927595D01*
X146325166Y-85927595D01*
X132306785Y-70209833D02*
X132337023Y-70240071D01*
X132367261Y-70330785D01*
X132367261Y-70391261D01*
X132337023Y-70481976D01*
X132276547Y-70542452D01*
X132216071Y-70572690D01*
X132095119Y-70602928D01*
X132004404Y-70602928D01*
X131883452Y-70572690D01*
X131822976Y-70542452D01*
X131762500Y-70481976D01*
X131732261Y-70391261D01*
X131732261Y-70330785D01*
X131762500Y-70240071D01*
X131792738Y-70209833D01*
X131732261Y-69635309D02*
X131732261Y-69937690D01*
X132034642Y-69967928D01*
X132004404Y-69937690D01*
X131974166Y-69877214D01*
X131974166Y-69726023D01*
X132004404Y-69665547D01*
X132034642Y-69635309D01*
X132095119Y-69605071D01*
X132246309Y-69605071D01*
X132306785Y-69635309D01*
X132337023Y-69665547D01*
X132367261Y-69726023D01*
X132367261Y-69877214D01*
X132337023Y-69937690D01*
X132306785Y-69967928D01*
X134084785Y-70209833D02*
X134115023Y-70240071D01*
X134145261Y-70330785D01*
X134145261Y-70391261D01*
X134115023Y-70481976D01*
X134054547Y-70542452D01*
X133994071Y-70572690D01*
X133873119Y-70602928D01*
X133782404Y-70602928D01*
X133661452Y-70572690D01*
X133600976Y-70542452D01*
X133540500Y-70481976D01*
X133510261Y-70391261D01*
X133510261Y-70330785D01*
X133540500Y-70240071D01*
X133570738Y-70209833D01*
X133510261Y-69665547D02*
X133510261Y-69786500D01*
X133540500Y-69846976D01*
X133570738Y-69877214D01*
X133661452Y-69937690D01*
X133782404Y-69967928D01*
X134024309Y-69967928D01*
X134084785Y-69937690D01*
X134115023Y-69907452D01*
X134145261Y-69846976D01*
X134145261Y-69726023D01*
X134115023Y-69665547D01*
X134084785Y-69635309D01*
X134024309Y-69605071D01*
X133873119Y-69605071D01*
X133812642Y-69635309D01*
X133782404Y-69665547D01*
X133752166Y-69726023D01*
X133752166Y-69846976D01*
X133782404Y-69907452D01*
X133812642Y-69937690D01*
X133873119Y-69967928D01*
D16*
X139004523Y-78455761D02*
X137734523Y-78455761D01*
X138883571Y-77125285D02*
X138944047Y-77185761D01*
X139004523Y-77367190D01*
X139004523Y-77488142D01*
X138944047Y-77669571D01*
X138823095Y-77790523D01*
X138702142Y-77851000D01*
X138460238Y-77911476D01*
X138278809Y-77911476D01*
X138036904Y-77851000D01*
X137915952Y-77790523D01*
X137795000Y-77669571D01*
X137734523Y-77488142D01*
X137734523Y-77367190D01*
X137795000Y-77185761D01*
X137855476Y-77125285D01*
X139004523Y-75915761D02*
X139004523Y-76641476D01*
X139004523Y-76278619D02*
X137734523Y-76278619D01*
X137915952Y-76399571D01*
X138036904Y-76520523D01*
X138097380Y-76641476D01*
D14*
X145575261Y-80121880D02*
X144940261Y-80121880D01*
X145514785Y-79456642D02*
X145545023Y-79486880D01*
X145575261Y-79577595D01*
X145575261Y-79638071D01*
X145545023Y-79728785D01*
X145484547Y-79789261D01*
X145424071Y-79819500D01*
X145303119Y-79849738D01*
X145212404Y-79849738D01*
X145091452Y-79819500D01*
X145030976Y-79789261D01*
X144970500Y-79728785D01*
X144940261Y-79638071D01*
X144940261Y-79577595D01*
X144970500Y-79486880D01*
X145000738Y-79456642D01*
X145000738Y-79214738D02*
X144970500Y-79184500D01*
X144940261Y-79124023D01*
X144940261Y-78972833D01*
X144970500Y-78912357D01*
X145000738Y-78882119D01*
X145061214Y-78851880D01*
X145121690Y-78851880D01*
X145212404Y-78882119D01*
X145575261Y-79244976D01*
X145575261Y-78851880D01*
D16*
X145159523Y-72813333D02*
X146066666Y-72813333D01*
X146248095Y-72873809D01*
X146369047Y-72994761D01*
X146429523Y-73176190D01*
X146429523Y-73297142D01*
X146429523Y-71543333D02*
X146429523Y-72269047D01*
X146429523Y-71906190D02*
X145159523Y-71906190D01*
X145340952Y-72027142D01*
X145461904Y-72148095D01*
X145522380Y-72269047D01*
D14*
X148877261Y-83671833D02*
X148574880Y-83883500D01*
X148877261Y-84034690D02*
X148242261Y-84034690D01*
X148242261Y-83792785D01*
X148272500Y-83732309D01*
X148302738Y-83702071D01*
X148363214Y-83671833D01*
X148453928Y-83671833D01*
X148514404Y-83702071D01*
X148544642Y-83732309D01*
X148574880Y-83792785D01*
X148574880Y-84034690D01*
X148242261Y-83460166D02*
X148242261Y-83067071D01*
X148484166Y-83278738D01*
X148484166Y-83188023D01*
X148514404Y-83127547D01*
X148544642Y-83097309D01*
X148605119Y-83067071D01*
X148756309Y-83067071D01*
X148816785Y-83097309D01*
X148847023Y-83127547D01*
X148877261Y-83188023D01*
X148877261Y-83369452D01*
X148847023Y-83429928D01*
X148816785Y-83460166D01*
X150655261Y-83417833D02*
X150352880Y-83629500D01*
X150655261Y-83780690D02*
X150020261Y-83780690D01*
X150020261Y-83538785D01*
X150050500Y-83478309D01*
X150080738Y-83448071D01*
X150141214Y-83417833D01*
X150231928Y-83417833D01*
X150292404Y-83448071D01*
X150322642Y-83478309D01*
X150352880Y-83538785D01*
X150352880Y-83780690D01*
X150231928Y-82873547D02*
X150655261Y-82873547D01*
X149990023Y-83024738D02*
X150443595Y-83175928D01*
X150443595Y-82782833D01*
X136177261Y-70209833D02*
X135874880Y-70421500D01*
X136177261Y-70572690D02*
X135542261Y-70572690D01*
X135542261Y-70330785D01*
X135572500Y-70270309D01*
X135602738Y-70240071D01*
X135663214Y-70209833D01*
X135753928Y-70209833D01*
X135814404Y-70240071D01*
X135844642Y-70270309D01*
X135874880Y-70330785D01*
X135874880Y-70572690D01*
X135542261Y-69998166D02*
X135542261Y-69574833D01*
X136177261Y-69846976D01*
X138463261Y-83925833D02*
X138160880Y-84137500D01*
X138463261Y-84288690D02*
X137828261Y-84288690D01*
X137828261Y-84046785D01*
X137858500Y-83986309D01*
X137888738Y-83956071D01*
X137949214Y-83925833D01*
X138039928Y-83925833D01*
X138100404Y-83956071D01*
X138130642Y-83986309D01*
X138160880Y-84046785D01*
X138160880Y-84288690D01*
X138100404Y-83562976D02*
X138070166Y-83623452D01*
X138039928Y-83653690D01*
X137979452Y-83683928D01*
X137949214Y-83683928D01*
X137888738Y-83653690D01*
X137858500Y-83623452D01*
X137828261Y-83562976D01*
X137828261Y-83442023D01*
X137858500Y-83381547D01*
X137888738Y-83351309D01*
X137949214Y-83321071D01*
X137979452Y-83321071D01*
X138039928Y-83351309D01*
X138070166Y-83381547D01*
X138100404Y-83442023D01*
X138100404Y-83562976D01*
X138130642Y-83623452D01*
X138160880Y-83653690D01*
X138221357Y-83683928D01*
X138342309Y-83683928D01*
X138402785Y-83653690D01*
X138433023Y-83623452D01*
X138463261Y-83562976D01*
X138463261Y-83442023D01*
X138433023Y-83381547D01*
X138402785Y-83351309D01*
X138342309Y-83321071D01*
X138221357Y-83321071D01*
X138160880Y-83351309D01*
X138130642Y-83381547D01*
X138100404Y-83442023D01*
X136431261Y-83925833D02*
X136128880Y-84137500D01*
X136431261Y-84288690D02*
X135796261Y-84288690D01*
X135796261Y-84046785D01*
X135826500Y-83986309D01*
X135856738Y-83956071D01*
X135917214Y-83925833D01*
X136007928Y-83925833D01*
X136068404Y-83956071D01*
X136098642Y-83986309D01*
X136128880Y-84046785D01*
X136128880Y-84288690D01*
X136431261Y-83623452D02*
X136431261Y-83502500D01*
X136401023Y-83442023D01*
X136370785Y-83411785D01*
X136280071Y-83351309D01*
X136159119Y-83321071D01*
X135917214Y-83321071D01*
X135856738Y-83351309D01*
X135826500Y-83381547D01*
X135796261Y-83442023D01*
X135796261Y-83562976D01*
X135826500Y-83623452D01*
X135856738Y-83653690D01*
X135917214Y-83683928D01*
X136068404Y-83683928D01*
X136128880Y-83653690D01*
X136159119Y-83623452D01*
X136189357Y-83562976D01*
X136189357Y-83442023D01*
X136159119Y-83381547D01*
X136128880Y-83351309D01*
X136068404Y-83321071D01*
X132367261Y-74527833D02*
X132064880Y-74739500D01*
X132367261Y-74890690D02*
X131732261Y-74890690D01*
X131732261Y-74648785D01*
X131762500Y-74588309D01*
X131792738Y-74558071D01*
X131853214Y-74527833D01*
X131943928Y-74527833D01*
X132004404Y-74558071D01*
X132034642Y-74588309D01*
X132064880Y-74648785D01*
X132064880Y-74890690D01*
X131732261Y-73983547D02*
X131732261Y-74104500D01*
X131762500Y-74164976D01*
X131792738Y-74195214D01*
X131883452Y-74255690D01*
X132004404Y-74285928D01*
X132246309Y-74285928D01*
X132306785Y-74255690D01*
X132337023Y-74225452D01*
X132367261Y-74164976D01*
X132367261Y-74044023D01*
X132337023Y-73983547D01*
X132306785Y-73953309D01*
X132246309Y-73923071D01*
X132095119Y-73923071D01*
X132034642Y-73953309D01*
X132004404Y-73983547D01*
X131974166Y-74044023D01*
X131974166Y-74164976D01*
X132004404Y-74225452D01*
X132034642Y-74255690D01*
X132095119Y-74285928D01*
X134145261Y-83925833D02*
X134145261Y-84228214D01*
X133510261Y-84228214D01*
X134145261Y-83381547D02*
X134145261Y-83744404D01*
X134145261Y-83562976D02*
X133510261Y-83562976D01*
X133600976Y-83623452D01*
X133661452Y-83683928D01*
X133691690Y-83744404D01*
M02*
