G04 #@! TF.GenerationSoftware,KiCad,Pcbnew,(5.1.8)-1*
G04 #@! TF.CreationDate,2021-03-29T10:41:43+03:00*
G04 #@! TF.ProjectId,sensor board,73656e73-6f72-4206-926f-6172642e6b69,rev?*
G04 #@! TF.SameCoordinates,Original*
G04 #@! TF.FileFunction,Legend,Bot*
G04 #@! TF.FilePolarity,Positive*
%FSLAX46Y46*%
G04 Gerber Fmt 4.6, Leading zero omitted, Abs format (unit mm)*
G04 Created by KiCad (PCBNEW (5.1.8)-1) date 2021-03-29 10:41:43*
%MOMM*%
%LPD*%
G01*
G04 APERTURE LIST*
%ADD10C,0.100000*%
%ADD11C,0.200000*%
%ADD12C,0.152400*%
%ADD13C,0.254000*%
%ADD14C,0.150000*%
G04 APERTURE END LIST*
D10*
X136152000Y-75070000D02*
X137152000Y-75070000D01*
X136152000Y-79870000D02*
X137152000Y-79870000D01*
D11*
X138452000Y-75370000D02*
X138452000Y-75370000D01*
X138452000Y-75570000D02*
X138452000Y-75570000D01*
X138452000Y-75570000D02*
G75*
G02*
X138452000Y-75370000I0J100000D01*
G01*
X138452000Y-75370000D02*
G75*
G02*
X138452000Y-75570000I0J-100000D01*
G01*
X147596000Y-75570000D02*
X147596000Y-75570000D01*
X147596000Y-75370000D02*
X147596000Y-75370000D01*
D10*
X145296000Y-79870000D02*
X146296000Y-79870000D01*
X145296000Y-75070000D02*
X146296000Y-75070000D01*
D11*
X147596000Y-75370000D02*
G75*
G02*
X147596000Y-75570000I0J-100000D01*
G01*
X147596000Y-75570000D02*
G75*
G02*
X147596000Y-75370000I0J100000D01*
G01*
D12*
X143002000Y-75565000D02*
X143002000Y-79375000D01*
X143002000Y-79375000D02*
X142661141Y-79375000D01*
X139446000Y-79375000D02*
X139446000Y-75565000D01*
X139446000Y-75565000D02*
X139786859Y-75565000D01*
X142661141Y-75565000D02*
X143002000Y-75565000D01*
X139786859Y-79375000D02*
X139446000Y-79375000D01*
X140475600Y-74491200D02*
G75*
G03*
X140475600Y-74491200I-101600J0D01*
G01*
D13*
X137443523Y-76532619D02*
X136173523Y-76532619D01*
X136173523Y-76835000D01*
X136234000Y-77016428D01*
X136354952Y-77137380D01*
X136475904Y-77197857D01*
X136717809Y-77258333D01*
X136899238Y-77258333D01*
X137141142Y-77197857D01*
X137262095Y-77137380D01*
X137383047Y-77016428D01*
X137443523Y-76835000D01*
X137443523Y-76532619D01*
X136294476Y-77742142D02*
X136234000Y-77802619D01*
X136173523Y-77923571D01*
X136173523Y-78225952D01*
X136234000Y-78346904D01*
X136294476Y-78407380D01*
X136415428Y-78467857D01*
X136536380Y-78467857D01*
X136717809Y-78407380D01*
X137443523Y-77681666D01*
X137443523Y-78467857D01*
X146587523Y-76532619D02*
X145317523Y-76532619D01*
X145317523Y-76835000D01*
X145378000Y-77016428D01*
X145498952Y-77137380D01*
X145619904Y-77197857D01*
X145861809Y-77258333D01*
X146043238Y-77258333D01*
X146285142Y-77197857D01*
X146406095Y-77137380D01*
X146527047Y-77016428D01*
X146587523Y-76835000D01*
X146587523Y-76532619D01*
X145317523Y-77681666D02*
X145317523Y-78467857D01*
X145801333Y-78044523D01*
X145801333Y-78225952D01*
X145861809Y-78346904D01*
X145922285Y-78407380D01*
X146043238Y-78467857D01*
X146345619Y-78467857D01*
X146466571Y-78407380D01*
X146527047Y-78346904D01*
X146587523Y-78225952D01*
X146587523Y-77863095D01*
X146527047Y-77742142D01*
X146466571Y-77681666D01*
D14*
X141557333Y-83788380D02*
X141557333Y-84502666D01*
X141604952Y-84645523D01*
X141700190Y-84740761D01*
X141843047Y-84788380D01*
X141938285Y-84788380D01*
X141128761Y-83883619D02*
X141081142Y-83836000D01*
X140985904Y-83788380D01*
X140747809Y-83788380D01*
X140652571Y-83836000D01*
X140604952Y-83883619D01*
X140557333Y-83978857D01*
X140557333Y-84074095D01*
X140604952Y-84216952D01*
X141176380Y-84788380D01*
X140557333Y-84788380D01*
X141557333Y-69056380D02*
X141557333Y-69770666D01*
X141604952Y-69913523D01*
X141700190Y-70008761D01*
X141843047Y-70056380D01*
X141938285Y-70056380D01*
X141176380Y-69056380D02*
X140557333Y-69056380D01*
X140890666Y-69437333D01*
X140747809Y-69437333D01*
X140652571Y-69484952D01*
X140604952Y-69532571D01*
X140557333Y-69627809D01*
X140557333Y-69865904D01*
X140604952Y-69961142D01*
X140652571Y-70008761D01*
X140747809Y-70056380D01*
X141033523Y-70056380D01*
X141128761Y-70008761D01*
X141176380Y-69961142D01*
X150955333Y-76422380D02*
X150955333Y-77136666D01*
X151002952Y-77279523D01*
X151098190Y-77374761D01*
X151241047Y-77422380D01*
X151336285Y-77422380D01*
X150050571Y-76755714D02*
X150050571Y-77422380D01*
X150288666Y-76374761D02*
X150526761Y-77089047D01*
X149907714Y-77089047D01*
X132159333Y-76422380D02*
X132159333Y-77136666D01*
X132206952Y-77279523D01*
X132302190Y-77374761D01*
X132445047Y-77422380D01*
X132540285Y-77422380D01*
X131206952Y-76422380D02*
X131683142Y-76422380D01*
X131730761Y-76898571D01*
X131683142Y-76850952D01*
X131587904Y-76803333D01*
X131349809Y-76803333D01*
X131254571Y-76850952D01*
X131206952Y-76898571D01*
X131159333Y-76993809D01*
X131159333Y-77231904D01*
X131206952Y-77327142D01*
X131254571Y-77374761D01*
X131349809Y-77422380D01*
X131587904Y-77422380D01*
X131683142Y-77374761D01*
X131730761Y-77327142D01*
X141676380Y-76350952D02*
X141676380Y-75874761D01*
X140676380Y-75874761D01*
X141152571Y-76684285D02*
X141152571Y-77017619D01*
X141676380Y-77160476D02*
X141676380Y-76684285D01*
X140676380Y-76684285D01*
X140676380Y-77160476D01*
X141676380Y-77589047D02*
X140676380Y-77589047D01*
X140676380Y-77827142D01*
X140724000Y-77970000D01*
X140819238Y-78065238D01*
X140914476Y-78112857D01*
X141104952Y-78160476D01*
X141247809Y-78160476D01*
X141438285Y-78112857D01*
X141533523Y-78065238D01*
X141628761Y-77970000D01*
X141676380Y-77827142D01*
X141676380Y-77589047D01*
X141676380Y-79112857D02*
X141676380Y-78541428D01*
X141676380Y-78827142D02*
X140676380Y-78827142D01*
X140819238Y-78731904D01*
X140914476Y-78636666D01*
X140962095Y-78541428D01*
X141676380Y-71946190D02*
X141676380Y-71374761D01*
X141676380Y-71660476D02*
X140676380Y-71660476D01*
X140819238Y-71565238D01*
X140914476Y-71470000D01*
X140962095Y-71374761D01*
X140676380Y-72850952D02*
X140676380Y-72374761D01*
X141152571Y-72327142D01*
X141104952Y-72374761D01*
X141057333Y-72470000D01*
X141057333Y-72708095D01*
X141104952Y-72803333D01*
X141152571Y-72850952D01*
X141247809Y-72898571D01*
X141485904Y-72898571D01*
X141581142Y-72850952D01*
X141628761Y-72803333D01*
X141676380Y-72708095D01*
X141676380Y-72470000D01*
X141628761Y-72374761D01*
X141581142Y-72327142D01*
X140676380Y-73517619D02*
X140676380Y-73612857D01*
X140724000Y-73708095D01*
X140771619Y-73755714D01*
X140866857Y-73803333D01*
X141057333Y-73850952D01*
X141295428Y-73850952D01*
X141485904Y-73803333D01*
X141581142Y-73755714D01*
X141628761Y-73708095D01*
X141676380Y-73612857D01*
X141676380Y-73517619D01*
X141628761Y-73422380D01*
X141581142Y-73374761D01*
X141485904Y-73327142D01*
X141295428Y-73279523D01*
X141057333Y-73279523D01*
X140866857Y-73327142D01*
X140771619Y-73374761D01*
X140724000Y-73422380D01*
X140676380Y-73517619D01*
X140676380Y-74184285D02*
X140676380Y-74803333D01*
X141057333Y-74470000D01*
X141057333Y-74612857D01*
X141104952Y-74708095D01*
X141152571Y-74755714D01*
X141247809Y-74803333D01*
X141485904Y-74803333D01*
X141581142Y-74755714D01*
X141628761Y-74708095D01*
X141676380Y-74612857D01*
X141676380Y-74327142D01*
X141628761Y-74231904D01*
X141581142Y-74184285D01*
X140676380Y-75708095D02*
X140676380Y-75231904D01*
X141152571Y-75184285D01*
X141104952Y-75231904D01*
X141057333Y-75327142D01*
X141057333Y-75565238D01*
X141104952Y-75660476D01*
X141152571Y-75708095D01*
X141247809Y-75755714D01*
X141485904Y-75755714D01*
X141581142Y-75708095D01*
X141628761Y-75660476D01*
X141676380Y-75565238D01*
X141676380Y-75327142D01*
X141628761Y-75231904D01*
X141581142Y-75184285D01*
X140771619Y-76136666D02*
X140724000Y-76184285D01*
X140676380Y-76279523D01*
X140676380Y-76517619D01*
X140724000Y-76612857D01*
X140771619Y-76660476D01*
X140866857Y-76708095D01*
X140962095Y-76708095D01*
X141104952Y-76660476D01*
X141676380Y-76089047D01*
X141676380Y-76708095D01*
X141676380Y-77136666D02*
X140676380Y-77136666D01*
X141390666Y-77470000D01*
X140676380Y-77803333D01*
X141676380Y-77803333D01*
X141676380Y-78803333D02*
X141676380Y-78231904D01*
X141676380Y-78517619D02*
X140676380Y-78517619D01*
X140819238Y-78422380D01*
X140914476Y-78327142D01*
X140962095Y-78231904D01*
X140676380Y-79136666D02*
X140676380Y-79803333D01*
X141676380Y-79374761D01*
X140676380Y-80089047D02*
X140676380Y-80708095D01*
X141057333Y-80374761D01*
X141057333Y-80517619D01*
X141104952Y-80612857D01*
X141152571Y-80660476D01*
X141247809Y-80708095D01*
X141485904Y-80708095D01*
X141581142Y-80660476D01*
X141628761Y-80612857D01*
X141676380Y-80517619D01*
X141676380Y-80231904D01*
X141628761Y-80136666D01*
X141581142Y-80089047D01*
X140676380Y-81041428D02*
X140676380Y-81660476D01*
X141057333Y-81327142D01*
X141057333Y-81470000D01*
X141104952Y-81565238D01*
X141152571Y-81612857D01*
X141247809Y-81660476D01*
X141485904Y-81660476D01*
X141581142Y-81612857D01*
X141628761Y-81565238D01*
X141676380Y-81470000D01*
X141676380Y-81184285D01*
X141628761Y-81089047D01*
X141581142Y-81041428D01*
X140676380Y-82279523D02*
X140676380Y-82374761D01*
X140724000Y-82470000D01*
X140771619Y-82517619D01*
X140866857Y-82565238D01*
X141057333Y-82612857D01*
X141295428Y-82612857D01*
X141485904Y-82565238D01*
X141581142Y-82517619D01*
X141628761Y-82470000D01*
X141676380Y-82374761D01*
X141676380Y-82279523D01*
X141628761Y-82184285D01*
X141581142Y-82136666D01*
X141485904Y-82089047D01*
X141295428Y-82041428D01*
X141057333Y-82041428D01*
X140866857Y-82089047D01*
X140771619Y-82136666D01*
X140724000Y-82184285D01*
X140676380Y-82279523D01*
X140676380Y-83231904D02*
X140676380Y-83327142D01*
X140724000Y-83422380D01*
X140771619Y-83470000D01*
X140866857Y-83517619D01*
X141057333Y-83565238D01*
X141295428Y-83565238D01*
X141485904Y-83517619D01*
X141581142Y-83470000D01*
X141628761Y-83422380D01*
X141676380Y-83327142D01*
X141676380Y-83231904D01*
X141628761Y-83136666D01*
X141581142Y-83089047D01*
X141485904Y-83041428D01*
X141295428Y-82993809D01*
X141057333Y-82993809D01*
X140866857Y-83041428D01*
X140771619Y-83089047D01*
X140724000Y-83136666D01*
X140676380Y-83231904D01*
X140676380Y-77470000D02*
X140914476Y-77470000D01*
X140819238Y-77231904D02*
X140914476Y-77470000D01*
X140819238Y-77708095D01*
X141104952Y-77327142D02*
X140914476Y-77470000D01*
X141104952Y-77612857D01*
M02*
