G04 #@! TF.GenerationSoftware,KiCad,Pcbnew,(5.1.8)-1*
G04 #@! TF.CreationDate,2021-03-29T10:41:43+03:00*
G04 #@! TF.ProjectId,sensor board,73656e73-6f72-4206-926f-6172642e6b69,rev?*
G04 #@! TF.SameCoordinates,Original*
G04 #@! TF.FileFunction,Copper,L1,Top*
G04 #@! TF.FilePolarity,Positive*
%FSLAX46Y46*%
G04 Gerber Fmt 4.6, Leading zero omitted, Abs format (unit mm)*
G04 Created by KiCad (PCBNEW (5.1.8)-1) date 2021-03-29 10:41:43*
%MOMM*%
%LPD*%
G01*
G04 APERTURE LIST*
G04 #@! TA.AperFunction,SMDPad,CuDef*
%ADD10R,0.450000X1.800000*%
G04 #@! TD*
G04 #@! TA.AperFunction,SMDPad,CuDef*
%ADD11C,0.216000*%
G04 #@! TD*
G04 #@! TA.AperFunction,SMDPad,CuDef*
%ADD12R,0.720000X0.250000*%
G04 #@! TD*
G04 #@! TA.AperFunction,SMDPad,CuDef*
%ADD13R,0.570000X0.250000*%
G04 #@! TD*
G04 #@! TA.AperFunction,SMDPad,CuDef*
%ADD14R,0.950000X0.400000*%
G04 #@! TD*
G04 #@! TA.AperFunction,ComponentPad*
%ADD15C,3.000000*%
G04 #@! TD*
G04 #@! TA.AperFunction,SMDPad,CuDef*
%ADD16R,0.780000X0.610000*%
G04 #@! TD*
G04 #@! TA.AperFunction,ViaPad*
%ADD17C,0.381000*%
G04 #@! TD*
G04 #@! TA.AperFunction,ViaPad*
%ADD18C,0.254000*%
G04 #@! TD*
G04 #@! TA.AperFunction,Conductor*
%ADD19C,0.254000*%
G04 #@! TD*
G04 #@! TA.AperFunction,Conductor*
%ADD20C,0.508000*%
G04 #@! TD*
G04 #@! TA.AperFunction,Conductor*
%ADD21C,0.152400*%
G04 #@! TD*
G04 #@! TA.AperFunction,Conductor*
%ADD22C,0.100000*%
G04 #@! TD*
G04 APERTURE END LIST*
G04 #@! TA.AperFunction,SMDPad,CuDef*
G36*
G01*
X144711000Y-83326000D02*
X144341000Y-83326000D01*
G75*
G02*
X144206000Y-83191000I0J135000D01*
G01*
X144206000Y-82921000D01*
G75*
G02*
X144341000Y-82786000I135000J0D01*
G01*
X144711000Y-82786000D01*
G75*
G02*
X144846000Y-82921000I0J-135000D01*
G01*
X144846000Y-83191000D01*
G75*
G02*
X144711000Y-83326000I-135000J0D01*
G01*
G37*
G04 #@! TD.AperFunction*
G04 #@! TA.AperFunction,SMDPad,CuDef*
G36*
G01*
X144711000Y-84346000D02*
X144341000Y-84346000D01*
G75*
G02*
X144206000Y-84211000I0J135000D01*
G01*
X144206000Y-83941000D01*
G75*
G02*
X144341000Y-83806000I135000J0D01*
G01*
X144711000Y-83806000D01*
G75*
G02*
X144846000Y-83941000I0J-135000D01*
G01*
X144846000Y-84211000D01*
G75*
G02*
X144711000Y-84346000I-135000J0D01*
G01*
G37*
G04 #@! TD.AperFunction*
G04 #@! TA.AperFunction,SMDPad,CuDef*
G36*
G01*
X137737000Y-70344000D02*
X138107000Y-70344000D01*
G75*
G02*
X138242000Y-70479000I0J-135000D01*
G01*
X138242000Y-70749000D01*
G75*
G02*
X138107000Y-70884000I-135000J0D01*
G01*
X137737000Y-70884000D01*
G75*
G02*
X137602000Y-70749000I0J135000D01*
G01*
X137602000Y-70479000D01*
G75*
G02*
X137737000Y-70344000I135000J0D01*
G01*
G37*
G04 #@! TD.AperFunction*
G04 #@! TA.AperFunction,SMDPad,CuDef*
G36*
G01*
X137737000Y-69324000D02*
X138107000Y-69324000D01*
G75*
G02*
X138242000Y-69459000I0J-135000D01*
G01*
X138242000Y-69729000D01*
G75*
G02*
X138107000Y-69864000I-135000J0D01*
G01*
X137737000Y-69864000D01*
G75*
G02*
X137602000Y-69729000I0J135000D01*
G01*
X137602000Y-69459000D01*
G75*
G02*
X137737000Y-69324000I135000J0D01*
G01*
G37*
G04 #@! TD.AperFunction*
G04 #@! TA.AperFunction,SMDPad,CuDef*
G36*
G01*
X151061000Y-80786000D02*
X150691000Y-80786000D01*
G75*
G02*
X150556000Y-80651000I0J135000D01*
G01*
X150556000Y-80381000D01*
G75*
G02*
X150691000Y-80246000I135000J0D01*
G01*
X151061000Y-80246000D01*
G75*
G02*
X151196000Y-80381000I0J-135000D01*
G01*
X151196000Y-80651000D01*
G75*
G02*
X151061000Y-80786000I-135000J0D01*
G01*
G37*
G04 #@! TD.AperFunction*
G04 #@! TA.AperFunction,SMDPad,CuDef*
G36*
G01*
X151061000Y-81806000D02*
X150691000Y-81806000D01*
G75*
G02*
X150556000Y-81671000I0J135000D01*
G01*
X150556000Y-81401000D01*
G75*
G02*
X150691000Y-81266000I135000J0D01*
G01*
X151061000Y-81266000D01*
G75*
G02*
X151196000Y-81401000I0J-135000D01*
G01*
X151196000Y-81671000D01*
G75*
G02*
X151061000Y-81806000I-135000J0D01*
G01*
G37*
G04 #@! TD.AperFunction*
G04 #@! TA.AperFunction,SMDPad,CuDef*
G36*
G01*
X132348000Y-72205000D02*
X132348000Y-72575000D01*
G75*
G02*
X132213000Y-72710000I-135000J0D01*
G01*
X131943000Y-72710000D01*
G75*
G02*
X131808000Y-72575000I0J135000D01*
G01*
X131808000Y-72205000D01*
G75*
G02*
X131943000Y-72070000I135000J0D01*
G01*
X132213000Y-72070000D01*
G75*
G02*
X132348000Y-72205000I0J-135000D01*
G01*
G37*
G04 #@! TD.AperFunction*
G04 #@! TA.AperFunction,SMDPad,CuDef*
G36*
G01*
X133368000Y-72205000D02*
X133368000Y-72575000D01*
G75*
G02*
X133233000Y-72710000I-135000J0D01*
G01*
X132963000Y-72710000D01*
G75*
G02*
X132828000Y-72575000I0J135000D01*
G01*
X132828000Y-72205000D01*
G75*
G02*
X132963000Y-72070000I135000J0D01*
G01*
X133233000Y-72070000D01*
G75*
G02*
X133368000Y-72205000I0J-135000D01*
G01*
G37*
G04 #@! TD.AperFunction*
G04 #@! TA.AperFunction,SMDPad,CuDef*
G36*
G01*
X146388000Y-83766000D02*
X146728000Y-83766000D01*
G75*
G02*
X146868000Y-83906000I0J-140000D01*
G01*
X146868000Y-84186000D01*
G75*
G02*
X146728000Y-84326000I-140000J0D01*
G01*
X146388000Y-84326000D01*
G75*
G02*
X146248000Y-84186000I0J140000D01*
G01*
X146248000Y-83906000D01*
G75*
G02*
X146388000Y-83766000I140000J0D01*
G01*
G37*
G04 #@! TD.AperFunction*
G04 #@! TA.AperFunction,SMDPad,CuDef*
G36*
G01*
X146388000Y-82806000D02*
X146728000Y-82806000D01*
G75*
G02*
X146868000Y-82946000I0J-140000D01*
G01*
X146868000Y-83226000D01*
G75*
G02*
X146728000Y-83366000I-140000J0D01*
G01*
X146388000Y-83366000D01*
G75*
G02*
X146248000Y-83226000I0J140000D01*
G01*
X146248000Y-82946000D01*
G75*
G02*
X146388000Y-82806000I140000J0D01*
G01*
G37*
G04 #@! TD.AperFunction*
G04 #@! TA.AperFunction,SMDPad,CuDef*
G36*
G01*
X148760000Y-80572000D02*
X148420000Y-80572000D01*
G75*
G02*
X148280000Y-80432000I0J140000D01*
G01*
X148280000Y-80152000D01*
G75*
G02*
X148420000Y-80012000I140000J0D01*
G01*
X148760000Y-80012000D01*
G75*
G02*
X148900000Y-80152000I0J-140000D01*
G01*
X148900000Y-80432000D01*
G75*
G02*
X148760000Y-80572000I-140000J0D01*
G01*
G37*
G04 #@! TD.AperFunction*
G04 #@! TA.AperFunction,SMDPad,CuDef*
G36*
G01*
X148760000Y-81532000D02*
X148420000Y-81532000D01*
G75*
G02*
X148280000Y-81392000I0J140000D01*
G01*
X148280000Y-81112000D01*
G75*
G02*
X148420000Y-80972000I140000J0D01*
G01*
X148760000Y-80972000D01*
G75*
G02*
X148900000Y-81112000I0J-140000D01*
G01*
X148900000Y-81392000D01*
G75*
G02*
X148760000Y-81532000I-140000J0D01*
G01*
G37*
G04 #@! TD.AperFunction*
G04 #@! TA.AperFunction,SMDPad,CuDef*
G36*
G01*
X131656000Y-81028000D02*
X131996000Y-81028000D01*
G75*
G02*
X132136000Y-81168000I0J-140000D01*
G01*
X132136000Y-81448000D01*
G75*
G02*
X131996000Y-81588000I-140000J0D01*
G01*
X131656000Y-81588000D01*
G75*
G02*
X131516000Y-81448000I0J140000D01*
G01*
X131516000Y-81168000D01*
G75*
G02*
X131656000Y-81028000I140000J0D01*
G01*
G37*
G04 #@! TD.AperFunction*
G04 #@! TA.AperFunction,SMDPad,CuDef*
G36*
G01*
X131656000Y-81988000D02*
X131996000Y-81988000D01*
G75*
G02*
X132136000Y-82128000I0J-140000D01*
G01*
X132136000Y-82408000D01*
G75*
G02*
X131996000Y-82548000I-140000J0D01*
G01*
X131656000Y-82548000D01*
G75*
G02*
X131516000Y-82408000I0J140000D01*
G01*
X131516000Y-82128000D01*
G75*
G02*
X131656000Y-81988000I140000J0D01*
G01*
G37*
G04 #@! TD.AperFunction*
G04 #@! TA.AperFunction,SMDPad,CuDef*
G36*
G01*
X145008000Y-86022000D02*
X145008000Y-85682000D01*
G75*
G02*
X145148000Y-85542000I140000J0D01*
G01*
X145428000Y-85542000D01*
G75*
G02*
X145568000Y-85682000I0J-140000D01*
G01*
X145568000Y-86022000D01*
G75*
G02*
X145428000Y-86162000I-140000J0D01*
G01*
X145148000Y-86162000D01*
G75*
G02*
X145008000Y-86022000I0J140000D01*
G01*
G37*
G04 #@! TD.AperFunction*
G04 #@! TA.AperFunction,SMDPad,CuDef*
G36*
G01*
X145968000Y-86022000D02*
X145968000Y-85682000D01*
G75*
G02*
X146108000Y-85542000I140000J0D01*
G01*
X146388000Y-85542000D01*
G75*
G02*
X146528000Y-85682000I0J-140000D01*
G01*
X146528000Y-86022000D01*
G75*
G02*
X146388000Y-86162000I-140000J0D01*
G01*
X146108000Y-86162000D01*
G75*
G02*
X145968000Y-86022000I0J140000D01*
G01*
G37*
G04 #@! TD.AperFunction*
G04 #@! TA.AperFunction,SMDPad,CuDef*
G36*
G01*
X131910000Y-70304000D02*
X132250000Y-70304000D01*
G75*
G02*
X132390000Y-70444000I0J-140000D01*
G01*
X132390000Y-70724000D01*
G75*
G02*
X132250000Y-70864000I-140000J0D01*
G01*
X131910000Y-70864000D01*
G75*
G02*
X131770000Y-70724000I0J140000D01*
G01*
X131770000Y-70444000D01*
G75*
G02*
X131910000Y-70304000I140000J0D01*
G01*
G37*
G04 #@! TD.AperFunction*
G04 #@! TA.AperFunction,SMDPad,CuDef*
G36*
G01*
X131910000Y-69344000D02*
X132250000Y-69344000D01*
G75*
G02*
X132390000Y-69484000I0J-140000D01*
G01*
X132390000Y-69764000D01*
G75*
G02*
X132250000Y-69904000I-140000J0D01*
G01*
X131910000Y-69904000D01*
G75*
G02*
X131770000Y-69764000I0J140000D01*
G01*
X131770000Y-69484000D01*
G75*
G02*
X131910000Y-69344000I140000J0D01*
G01*
G37*
G04 #@! TD.AperFunction*
G04 #@! TA.AperFunction,SMDPad,CuDef*
G36*
G01*
X133688000Y-69344000D02*
X134028000Y-69344000D01*
G75*
G02*
X134168000Y-69484000I0J-140000D01*
G01*
X134168000Y-69764000D01*
G75*
G02*
X134028000Y-69904000I-140000J0D01*
G01*
X133688000Y-69904000D01*
G75*
G02*
X133548000Y-69764000I0J140000D01*
G01*
X133548000Y-69484000D01*
G75*
G02*
X133688000Y-69344000I140000J0D01*
G01*
G37*
G04 #@! TD.AperFunction*
G04 #@! TA.AperFunction,SMDPad,CuDef*
G36*
G01*
X133688000Y-70304000D02*
X134028000Y-70304000D01*
G75*
G02*
X134168000Y-70444000I0J-140000D01*
G01*
X134168000Y-70724000D01*
G75*
G02*
X134028000Y-70864000I-140000J0D01*
G01*
X133688000Y-70864000D01*
G75*
G02*
X133548000Y-70724000I0J140000D01*
G01*
X133548000Y-70444000D01*
G75*
G02*
X133688000Y-70304000I140000J0D01*
G01*
G37*
G04 #@! TD.AperFunction*
D10*
X136155000Y-80766000D03*
X136805000Y-80766000D03*
X137455000Y-80766000D03*
X138105000Y-80766000D03*
X138755000Y-80766000D03*
X139405000Y-80766000D03*
X140055000Y-80766000D03*
X140705000Y-80766000D03*
X140705000Y-73666000D03*
X140055000Y-73666000D03*
X139405000Y-73666000D03*
X138755000Y-73666000D03*
X138105000Y-73666000D03*
X137455000Y-73666000D03*
X136805000Y-73666000D03*
X136155000Y-73666000D03*
D11*
X145888000Y-78702000D03*
X145888000Y-79102000D03*
X145888000Y-79502000D03*
X145888000Y-79902000D03*
X145888000Y-80302000D03*
X145488000Y-78702000D03*
X145488000Y-79102000D03*
X145488000Y-79502000D03*
X145488000Y-79902000D03*
X145488000Y-80302000D03*
X145088000Y-78702000D03*
X145088000Y-79102000D03*
X145088000Y-79502000D03*
X145088000Y-79902000D03*
X145088000Y-80302000D03*
X144688000Y-78702000D03*
X144688000Y-79102000D03*
X144688000Y-79502000D03*
X144688000Y-79902000D03*
X144688000Y-80302000D03*
D12*
X146707000Y-70390000D03*
D13*
X144302000Y-70640000D03*
D12*
X146707000Y-70890000D03*
D13*
X144302000Y-71140000D03*
D12*
X146707000Y-71390000D03*
D13*
X144302000Y-71640000D03*
D12*
X146707000Y-71890000D03*
D13*
X144302000Y-72140000D03*
D12*
X146707000Y-72390000D03*
D13*
X144302000Y-72640000D03*
D12*
X146707000Y-72890000D03*
D13*
X144302000Y-73140000D03*
D12*
X146707000Y-73390000D03*
D13*
X144302000Y-73640000D03*
D12*
X146707000Y-73890000D03*
D13*
X144302000Y-74140000D03*
D12*
X146707000Y-74390000D03*
D14*
X146442000Y-75060000D03*
X146442000Y-69720000D03*
G04 #@! TA.AperFunction,SMDPad,CuDef*
G36*
G01*
X148405000Y-83806000D02*
X148775000Y-83806000D01*
G75*
G02*
X148910000Y-83941000I0J-135000D01*
G01*
X148910000Y-84211000D01*
G75*
G02*
X148775000Y-84346000I-135000J0D01*
G01*
X148405000Y-84346000D01*
G75*
G02*
X148270000Y-84211000I0J135000D01*
G01*
X148270000Y-83941000D01*
G75*
G02*
X148405000Y-83806000I135000J0D01*
G01*
G37*
G04 #@! TD.AperFunction*
G04 #@! TA.AperFunction,SMDPad,CuDef*
G36*
G01*
X148405000Y-82786000D02*
X148775000Y-82786000D01*
G75*
G02*
X148910000Y-82921000I0J-135000D01*
G01*
X148910000Y-83191000D01*
G75*
G02*
X148775000Y-83326000I-135000J0D01*
G01*
X148405000Y-83326000D01*
G75*
G02*
X148270000Y-83191000I0J135000D01*
G01*
X148270000Y-82921000D01*
G75*
G02*
X148405000Y-82786000I135000J0D01*
G01*
G37*
G04 #@! TD.AperFunction*
G04 #@! TA.AperFunction,SMDPad,CuDef*
G36*
G01*
X150183000Y-82786000D02*
X150553000Y-82786000D01*
G75*
G02*
X150688000Y-82921000I0J-135000D01*
G01*
X150688000Y-83191000D01*
G75*
G02*
X150553000Y-83326000I-135000J0D01*
G01*
X150183000Y-83326000D01*
G75*
G02*
X150048000Y-83191000I0J135000D01*
G01*
X150048000Y-82921000D01*
G75*
G02*
X150183000Y-82786000I135000J0D01*
G01*
G37*
G04 #@! TD.AperFunction*
G04 #@! TA.AperFunction,SMDPad,CuDef*
G36*
G01*
X150183000Y-83806000D02*
X150553000Y-83806000D01*
G75*
G02*
X150688000Y-83941000I0J-135000D01*
G01*
X150688000Y-84211000D01*
G75*
G02*
X150553000Y-84346000I-135000J0D01*
G01*
X150183000Y-84346000D01*
G75*
G02*
X150048000Y-84211000I0J135000D01*
G01*
X150048000Y-83941000D01*
G75*
G02*
X150183000Y-83806000I135000J0D01*
G01*
G37*
G04 #@! TD.AperFunction*
G04 #@! TA.AperFunction,SMDPad,CuDef*
G36*
G01*
X135705000Y-70344000D02*
X136075000Y-70344000D01*
G75*
G02*
X136210000Y-70479000I0J-135000D01*
G01*
X136210000Y-70749000D01*
G75*
G02*
X136075000Y-70884000I-135000J0D01*
G01*
X135705000Y-70884000D01*
G75*
G02*
X135570000Y-70749000I0J135000D01*
G01*
X135570000Y-70479000D01*
G75*
G02*
X135705000Y-70344000I135000J0D01*
G01*
G37*
G04 #@! TD.AperFunction*
G04 #@! TA.AperFunction,SMDPad,CuDef*
G36*
G01*
X135705000Y-69324000D02*
X136075000Y-69324000D01*
G75*
G02*
X136210000Y-69459000I0J-135000D01*
G01*
X136210000Y-69729000D01*
G75*
G02*
X136075000Y-69864000I-135000J0D01*
G01*
X135705000Y-69864000D01*
G75*
G02*
X135570000Y-69729000I0J135000D01*
G01*
X135570000Y-69459000D01*
G75*
G02*
X135705000Y-69324000I135000J0D01*
G01*
G37*
G04 #@! TD.AperFunction*
G04 #@! TA.AperFunction,SMDPad,CuDef*
G36*
G01*
X138361000Y-84600000D02*
X137991000Y-84600000D01*
G75*
G02*
X137856000Y-84465000I0J135000D01*
G01*
X137856000Y-84195000D01*
G75*
G02*
X137991000Y-84060000I135000J0D01*
G01*
X138361000Y-84060000D01*
G75*
G02*
X138496000Y-84195000I0J-135000D01*
G01*
X138496000Y-84465000D01*
G75*
G02*
X138361000Y-84600000I-135000J0D01*
G01*
G37*
G04 #@! TD.AperFunction*
G04 #@! TA.AperFunction,SMDPad,CuDef*
G36*
G01*
X138361000Y-83580000D02*
X137991000Y-83580000D01*
G75*
G02*
X137856000Y-83445000I0J135000D01*
G01*
X137856000Y-83175000D01*
G75*
G02*
X137991000Y-83040000I135000J0D01*
G01*
X138361000Y-83040000D01*
G75*
G02*
X138496000Y-83175000I0J-135000D01*
G01*
X138496000Y-83445000D01*
G75*
G02*
X138361000Y-83580000I-135000J0D01*
G01*
G37*
G04 #@! TD.AperFunction*
G04 #@! TA.AperFunction,SMDPad,CuDef*
G36*
G01*
X136329000Y-84600000D02*
X135959000Y-84600000D01*
G75*
G02*
X135824000Y-84465000I0J135000D01*
G01*
X135824000Y-84195000D01*
G75*
G02*
X135959000Y-84060000I135000J0D01*
G01*
X136329000Y-84060000D01*
G75*
G02*
X136464000Y-84195000I0J-135000D01*
G01*
X136464000Y-84465000D01*
G75*
G02*
X136329000Y-84600000I-135000J0D01*
G01*
G37*
G04 #@! TD.AperFunction*
G04 #@! TA.AperFunction,SMDPad,CuDef*
G36*
G01*
X136329000Y-83580000D02*
X135959000Y-83580000D01*
G75*
G02*
X135824000Y-83445000I0J135000D01*
G01*
X135824000Y-83175000D01*
G75*
G02*
X135959000Y-83040000I135000J0D01*
G01*
X136329000Y-83040000D01*
G75*
G02*
X136464000Y-83175000I0J-135000D01*
G01*
X136464000Y-83445000D01*
G75*
G02*
X136329000Y-83580000I-135000J0D01*
G01*
G37*
G04 #@! TD.AperFunction*
G04 #@! TA.AperFunction,SMDPad,CuDef*
G36*
G01*
X132265000Y-74182000D02*
X131895000Y-74182000D01*
G75*
G02*
X131760000Y-74047000I0J135000D01*
G01*
X131760000Y-73777000D01*
G75*
G02*
X131895000Y-73642000I135000J0D01*
G01*
X132265000Y-73642000D01*
G75*
G02*
X132400000Y-73777000I0J-135000D01*
G01*
X132400000Y-74047000D01*
G75*
G02*
X132265000Y-74182000I-135000J0D01*
G01*
G37*
G04 #@! TD.AperFunction*
G04 #@! TA.AperFunction,SMDPad,CuDef*
G36*
G01*
X132265000Y-75202000D02*
X131895000Y-75202000D01*
G75*
G02*
X131760000Y-75067000I0J135000D01*
G01*
X131760000Y-74797000D01*
G75*
G02*
X131895000Y-74662000I135000J0D01*
G01*
X132265000Y-74662000D01*
G75*
G02*
X132400000Y-74797000I0J-135000D01*
G01*
X132400000Y-75067000D01*
G75*
G02*
X132265000Y-75202000I-135000J0D01*
G01*
G37*
G04 #@! TD.AperFunction*
D15*
X141224000Y-84836000D03*
X141224000Y-70104000D03*
X150622000Y-77470000D03*
X131826000Y-77470000D03*
D16*
X133858000Y-83360000D03*
X133858000Y-84280000D03*
D17*
X148590000Y-79502000D03*
X145542000Y-71628000D03*
X147066000Y-85598000D03*
X136652000Y-75184000D03*
X131318000Y-71374000D03*
X142494000Y-74676000D03*
X145542000Y-83058000D03*
X136906000Y-69342000D03*
X142748000Y-78994000D03*
X139192000Y-83312000D03*
X144018000Y-81788000D03*
X134112000Y-72390000D03*
X142494000Y-81280000D03*
X136906000Y-72136000D03*
X142494000Y-73152000D03*
X151384000Y-84074000D03*
X151384000Y-85344000D03*
X142494000Y-73660000D03*
X136144000Y-72136000D03*
X136652000Y-71374000D03*
X142494000Y-72644000D03*
D18*
X145491200Y-79095600D03*
X145491200Y-79502000D03*
D17*
X139192000Y-84328000D03*
D18*
X145491200Y-79908400D03*
D17*
X137160000Y-84328000D03*
X142748000Y-80264000D03*
X142748000Y-78105000D03*
X150876000Y-79756000D03*
X142494000Y-74168000D03*
X142748000Y-76073000D03*
X142748000Y-76962000D03*
X142748000Y-77470000D03*
D19*
X138755000Y-73666000D02*
X138755000Y-74859000D01*
X138755000Y-74859000D02*
X138430000Y-75184000D01*
X137455000Y-74971000D02*
X137455000Y-73666000D01*
X137668000Y-75184000D02*
X137455000Y-74971000D01*
X138105000Y-75001000D02*
X137922000Y-75184000D01*
X138105000Y-73666000D02*
X138105000Y-75001000D01*
X137922000Y-75184000D02*
X137668000Y-75184000D01*
X146442000Y-75060000D02*
X145542000Y-74160000D01*
X146707000Y-72390000D02*
X145542000Y-72390000D01*
X145542000Y-72390000D02*
X145542000Y-71628000D01*
X145542000Y-74160000D02*
X145542000Y-72390000D01*
X148590000Y-80292000D02*
X148590000Y-79502000D01*
D20*
X136652000Y-75184000D02*
X138176000Y-75184000D01*
D19*
X138176000Y-75184000D02*
X137922000Y-75184000D01*
X138430000Y-75184000D02*
X138176000Y-75184000D01*
X139405000Y-73666000D02*
X139405000Y-75143000D01*
X139405000Y-75143000D02*
X139446000Y-75184000D01*
X140716000Y-73677000D02*
X140705000Y-73666000D01*
X140716000Y-75184000D02*
X140716000Y-73677000D01*
X140055000Y-75083000D02*
X139954000Y-75184000D01*
X140055000Y-73666000D02*
X140055000Y-75083000D01*
X139954000Y-75184000D02*
X140716000Y-75184000D01*
X139446000Y-75184000D02*
X139954000Y-75184000D01*
X140716000Y-75184000D02*
X142494000Y-75184000D01*
D21*
X145888000Y-78578000D02*
X145888000Y-78702000D01*
X142494000Y-75184000D02*
X145888000Y-78578000D01*
D19*
X142494000Y-75184000D02*
X142494000Y-74676000D01*
X138755000Y-81649602D02*
X138208612Y-82195990D01*
X138755000Y-80766000D02*
X138755000Y-81649602D01*
X138208612Y-82195990D02*
X134011990Y-82195990D01*
X133124000Y-81308000D02*
X131826000Y-81308000D01*
X134011990Y-82195990D02*
X133124000Y-81308000D01*
D21*
X145488000Y-80454735D02*
X145488000Y-80302000D01*
X146285265Y-81252000D02*
X145488000Y-80454735D01*
X148590000Y-81252000D02*
X146285265Y-81252000D01*
D20*
X136144000Y-83310000D02*
X138176000Y-83310000D01*
X139190000Y-83310000D02*
X139192000Y-83312000D01*
X138176000Y-83310000D02*
X139190000Y-83310000D01*
D21*
X145088000Y-79102000D02*
X144688000Y-79102000D01*
X142856000Y-79102000D02*
X142748000Y-78994000D01*
X144688000Y-79102000D02*
X142856000Y-79102000D01*
D20*
X133098000Y-72390000D02*
X134112000Y-72390000D01*
D21*
X145088000Y-80302000D02*
X145088000Y-79502000D01*
X144688000Y-79502000D02*
X145088000Y-79502000D01*
X145088000Y-80718000D02*
X144018000Y-81788000D01*
X145088000Y-80302000D02*
X145088000Y-80718000D01*
X144688000Y-80302000D02*
X144688000Y-80610000D01*
X144018000Y-81280000D02*
X142494000Y-81280000D01*
X144688000Y-80610000D02*
X144018000Y-81280000D01*
D19*
X138105000Y-79612000D02*
X134366000Y-75873000D01*
X138105000Y-80766000D02*
X138105000Y-79612000D01*
X134366000Y-75873000D02*
X134366000Y-73914000D01*
X132082000Y-73914000D02*
X132080000Y-73912000D01*
X134366000Y-73914000D02*
X132082000Y-73914000D01*
X134112000Y-83106000D02*
X133858000Y-83360000D01*
X134112000Y-82550000D02*
X134112000Y-83106000D01*
X139405000Y-81920000D02*
X139405000Y-80766000D01*
X138775000Y-82550000D02*
X139405000Y-81920000D01*
X134112000Y-82550000D02*
X138775000Y-82550000D01*
X136805000Y-72237000D02*
X136906000Y-72136000D01*
X136805000Y-73666000D02*
X136805000Y-72237000D01*
X142506000Y-73140000D02*
X142494000Y-73152000D01*
X144302000Y-73140000D02*
X142506000Y-73140000D01*
D20*
X150370000Y-84074000D02*
X150368000Y-84076000D01*
X151384000Y-84074000D02*
X150370000Y-84074000D01*
X148590000Y-85344000D02*
X148590000Y-84076000D01*
X148590000Y-85344000D02*
X151384000Y-85344000D01*
D19*
X136155000Y-72147000D02*
X136144000Y-72136000D01*
X136155000Y-73666000D02*
X136155000Y-72147000D01*
X142514000Y-73640000D02*
X142494000Y-73660000D01*
X144302000Y-73640000D02*
X142514000Y-73640000D01*
D21*
X146739000Y-74422000D02*
X146707000Y-74390000D01*
X146450000Y-79102000D02*
X145888000Y-79102000D01*
X147006080Y-79102000D02*
X146450000Y-79102000D01*
X147320000Y-78788080D02*
X147006080Y-79102000D01*
X147320000Y-74676000D02*
X147320000Y-78788080D01*
X147034000Y-74390000D02*
X147320000Y-74676000D01*
X146707000Y-74390000D02*
X147034000Y-74390000D01*
X147219400Y-73890000D02*
X146707000Y-73890000D01*
X147574000Y-74244600D02*
X147219400Y-73890000D01*
X147574000Y-78891040D02*
X147574000Y-74244600D01*
X146963040Y-79502000D02*
X147574000Y-78891040D01*
X145888000Y-79502000D02*
X146963040Y-79502000D01*
X145888000Y-79902000D02*
X146920000Y-79902000D01*
X146920000Y-79902000D02*
X147826410Y-78995590D01*
X147826410Y-73809449D02*
X147826410Y-78995590D01*
X147406961Y-73390000D02*
X147826410Y-73809449D01*
X146707000Y-73390000D02*
X147406961Y-73390000D01*
X146876960Y-80302000D02*
X148082000Y-79096960D01*
X145888000Y-80302000D02*
X146876960Y-80302000D01*
X148082000Y-73306219D02*
X147673781Y-72898000D01*
X148082000Y-79096960D02*
X148082000Y-73306219D01*
X146715000Y-72898000D02*
X146707000Y-72890000D01*
X147673781Y-72898000D02*
X146715000Y-72898000D01*
D19*
X142498000Y-72640000D02*
X142494000Y-72644000D01*
X144302000Y-72640000D02*
X142498000Y-72640000D01*
X135892000Y-70614000D02*
X136652000Y-71374000D01*
X135890000Y-70614000D02*
X135892000Y-70614000D01*
D20*
X139190000Y-84330000D02*
X139192000Y-84328000D01*
X138176000Y-84330000D02*
X139190000Y-84330000D01*
X137158000Y-84330000D02*
X137160000Y-84328000D01*
X136144000Y-84330000D02*
X137158000Y-84330000D01*
D21*
X143110000Y-79902000D02*
X142748000Y-80264000D01*
X144688000Y-79902000D02*
X143110000Y-79902000D01*
D19*
X141986000Y-78105000D02*
X142748000Y-78105000D01*
X141732000Y-78359000D02*
X141986000Y-78105000D01*
X141732000Y-82042000D02*
X141732000Y-78359000D01*
X143766000Y-84076000D02*
X141732000Y-82042000D01*
X144526000Y-84076000D02*
X143766000Y-84076000D01*
X141224000Y-84836000D02*
X140462000Y-84836000D01*
X137922000Y-70614000D02*
X137922000Y-71094600D01*
X138967400Y-72140000D02*
X144302000Y-72140000D01*
X137922000Y-71094600D02*
X138967400Y-72140000D01*
X150876000Y-80516000D02*
X150876000Y-79756000D01*
X142522000Y-74140000D02*
X142494000Y-74168000D01*
X144302000Y-74140000D02*
X142522000Y-74140000D01*
D21*
X145488000Y-78549265D02*
X143138735Y-76200000D01*
X145488000Y-78702000D02*
X145488000Y-78549265D01*
X143138735Y-76200000D02*
X143129000Y-76200000D01*
X143002000Y-76073000D02*
X142748000Y-76073000D01*
X143129000Y-76200000D02*
X143002000Y-76073000D01*
X145088000Y-78549265D02*
X144008735Y-77470000D01*
X145088000Y-78702000D02*
X145088000Y-78549265D01*
X144008735Y-77470000D02*
X144008735Y-77460735D01*
X143510000Y-76962000D02*
X142748000Y-76962000D01*
X144008735Y-77460735D02*
X143510000Y-76962000D01*
X144688000Y-78702000D02*
X143456000Y-77470000D01*
X143456000Y-77470000D02*
X142748000Y-77470000D01*
D19*
X139319000Y-69977000D02*
X130071000Y-69977000D01*
X130071000Y-68349000D01*
X139319000Y-68349000D01*
X139319000Y-69977000D01*
G04 #@! TA.AperFunction,Conductor*
D22*
G36*
X139319000Y-69977000D02*
G01*
X130071000Y-69977000D01*
X130071000Y-68349000D01*
X139319000Y-68349000D01*
X139319000Y-69977000D01*
G37*
G04 #@! TD.AperFunction*
D19*
X132461000Y-84074000D02*
X132463440Y-84098776D01*
X132470667Y-84122601D01*
X132482403Y-84144557D01*
X132498197Y-84163803D01*
X132517443Y-84179597D01*
X132539399Y-84191333D01*
X132563224Y-84198560D01*
X132588000Y-84201000D01*
X135001000Y-84201000D01*
X135001000Y-85090000D01*
X135003440Y-85114776D01*
X135010667Y-85138601D01*
X135022403Y-85160557D01*
X135038197Y-85179803D01*
X135057443Y-85195597D01*
X135079399Y-85207333D01*
X135103224Y-85214560D01*
X135128000Y-85217000D01*
X139700000Y-85217000D01*
X139724776Y-85214560D01*
X139748601Y-85207333D01*
X139770557Y-85195597D01*
X139789803Y-85179803D01*
X139805597Y-85160557D01*
X139817333Y-85138601D01*
X139824560Y-85114776D01*
X139827000Y-85090000D01*
X139827000Y-83439000D01*
X142621000Y-83439000D01*
X142621000Y-86591000D01*
X130071000Y-86591000D01*
X130071000Y-81915000D01*
X132461000Y-81915000D01*
X132461000Y-84074000D01*
G04 #@! TA.AperFunction,Conductor*
D22*
G36*
X132461000Y-84074000D02*
G01*
X132463440Y-84098776D01*
X132470667Y-84122601D01*
X132482403Y-84144557D01*
X132498197Y-84163803D01*
X132517443Y-84179597D01*
X132539399Y-84191333D01*
X132563224Y-84198560D01*
X132588000Y-84201000D01*
X135001000Y-84201000D01*
X135001000Y-85090000D01*
X135003440Y-85114776D01*
X135010667Y-85138601D01*
X135022403Y-85160557D01*
X135038197Y-85179803D01*
X135057443Y-85195597D01*
X135079399Y-85207333D01*
X135103224Y-85214560D01*
X135128000Y-85217000D01*
X139700000Y-85217000D01*
X139724776Y-85214560D01*
X139748601Y-85207333D01*
X139770557Y-85195597D01*
X139789803Y-85179803D01*
X139805597Y-85160557D01*
X139817333Y-85138601D01*
X139824560Y-85114776D01*
X139827000Y-85090000D01*
X139827000Y-83439000D01*
X142621000Y-83439000D01*
X142621000Y-86591000D01*
X130071000Y-86591000D01*
X130071000Y-81915000D01*
X132461000Y-81915000D01*
X132461000Y-84074000D01*
G37*
G04 #@! TD.AperFunction*
D19*
X151511000Y-83439000D02*
X144145000Y-83439000D01*
X144145000Y-82677000D01*
X149606000Y-82677000D01*
X149630776Y-82674560D01*
X149654601Y-82667333D01*
X149676557Y-82655597D01*
X149695803Y-82639803D01*
X149711597Y-82620557D01*
X149723333Y-82598601D01*
X149730560Y-82574776D01*
X149733000Y-82550000D01*
X149733000Y-81153000D01*
X151511000Y-81153000D01*
X151511000Y-83439000D01*
G04 #@! TA.AperFunction,Conductor*
D22*
G36*
X151511000Y-83439000D02*
G01*
X144145000Y-83439000D01*
X144145000Y-82677000D01*
X149606000Y-82677000D01*
X149630776Y-82674560D01*
X149654601Y-82667333D01*
X149676557Y-82655597D01*
X149695803Y-82639803D01*
X149711597Y-82620557D01*
X149723333Y-82598601D01*
X149730560Y-82574776D01*
X149733000Y-82550000D01*
X149733000Y-81153000D01*
X151511000Y-81153000D01*
X151511000Y-83439000D01*
G37*
G04 #@! TD.AperFunction*
D19*
X147447000Y-85852000D02*
X147449440Y-85876776D01*
X147456667Y-85900601D01*
X147468403Y-85922557D01*
X147484197Y-85941803D01*
X147503443Y-85957597D01*
X147525399Y-85969333D01*
X147549224Y-85976560D01*
X147574000Y-85979000D01*
X152377001Y-85979000D01*
X152377001Y-86591000D01*
X145923000Y-86591000D01*
X145923000Y-83947000D01*
X147447000Y-83947000D01*
X147447000Y-85852000D01*
G04 #@! TA.AperFunction,Conductor*
D22*
G36*
X147447000Y-85852000D02*
G01*
X147449440Y-85876776D01*
X147456667Y-85900601D01*
X147468403Y-85922557D01*
X147484197Y-85941803D01*
X147503443Y-85957597D01*
X147525399Y-85969333D01*
X147549224Y-85976560D01*
X147574000Y-85979000D01*
X152377001Y-85979000D01*
X152377001Y-86591000D01*
X145923000Y-86591000D01*
X145923000Y-83947000D01*
X147447000Y-83947000D01*
X147447000Y-85852000D01*
G37*
G04 #@! TD.AperFunction*
D19*
X133477000Y-81407000D02*
X130071000Y-81407000D01*
X130071000Y-74549000D01*
X133477000Y-74549000D01*
X133477000Y-81407000D01*
G04 #@! TA.AperFunction,Conductor*
D22*
G36*
X133477000Y-81407000D02*
G01*
X130071000Y-81407000D01*
X130071000Y-74549000D01*
X133477000Y-74549000D01*
X133477000Y-81407000D01*
G37*
G04 #@! TD.AperFunction*
D19*
X134747000Y-71247000D02*
X132588000Y-71247000D01*
X132563224Y-71249440D01*
X132539399Y-71256667D01*
X132517443Y-71268403D01*
X132498197Y-71284197D01*
X132482403Y-71303443D01*
X132470667Y-71325399D01*
X132463440Y-71349224D01*
X132461000Y-71374000D01*
X132461000Y-73025000D01*
X130071000Y-73025000D01*
X130071000Y-70485000D01*
X134747000Y-70485000D01*
X134747000Y-71247000D01*
G04 #@! TA.AperFunction,Conductor*
D22*
G36*
X134747000Y-71247000D02*
G01*
X132588000Y-71247000D01*
X132563224Y-71249440D01*
X132539399Y-71256667D01*
X132517443Y-71268403D01*
X132498197Y-71284197D01*
X132482403Y-71303443D01*
X132470667Y-71325399D01*
X132463440Y-71349224D01*
X132461000Y-71374000D01*
X132461000Y-73025000D01*
X130071000Y-73025000D01*
X130071000Y-70485000D01*
X134747000Y-70485000D01*
X134747000Y-71247000D01*
G37*
G04 #@! TD.AperFunction*
D19*
X145415000Y-86591000D02*
X143383000Y-86591000D01*
X143383000Y-83947000D01*
X145415000Y-83947000D01*
X145415000Y-86591000D01*
G04 #@! TA.AperFunction,Conductor*
D22*
G36*
X145415000Y-86591000D02*
G01*
X143383000Y-86591000D01*
X143383000Y-83947000D01*
X145415000Y-83947000D01*
X145415000Y-86591000D01*
G37*
G04 #@! TD.AperFunction*
D19*
X151003000Y-72263000D02*
X145161000Y-72263000D01*
X145161000Y-71882000D01*
X145158560Y-71857224D01*
X145151333Y-71833399D01*
X145139597Y-71811443D01*
X145123803Y-71792197D01*
X145104557Y-71776403D01*
X145082601Y-71764667D01*
X145058776Y-71757440D01*
X145034000Y-71755000D01*
X143637000Y-71755000D01*
X143637000Y-68349000D01*
X151003000Y-68349000D01*
X151003000Y-72263000D01*
G04 #@! TA.AperFunction,Conductor*
D22*
G36*
X151003000Y-72263000D02*
G01*
X145161000Y-72263000D01*
X145161000Y-71882000D01*
X145158560Y-71857224D01*
X145151333Y-71833399D01*
X145139597Y-71811443D01*
X145123803Y-71792197D01*
X145104557Y-71776403D01*
X145082601Y-71764667D01*
X145058776Y-71757440D01*
X145034000Y-71755000D01*
X143637000Y-71755000D01*
X143637000Y-68349000D01*
X151003000Y-68349000D01*
X151003000Y-72263000D01*
G37*
G04 #@! TD.AperFunction*
M02*
