M48
INCH,TZ
T1C0.0157
T2C0.0394
%
G90
G05
T1
X73250Y-34500
X73250Y-35500
X73250Y-36250
X73250Y-37250
X74000Y-34750
X74000Y-35750
X74000Y-36750
T2
X55719Y-27919
X55719Y-28919
X55719Y-29919
X55719Y-30919
X55719Y-31919
X55719Y-32919
X55719Y-33919
X55719Y-34919
X55719Y-35919
X55719Y-36919
X55719Y-37919
X55719Y-38919
X55719Y-39919
X55719Y-40919
X55719Y-41919
X55719Y-42919
X55719Y-43919
X55719Y-44919
T0
M30
